;TYPE=PLATED
;Layer: PTH_Through
;EasyEDA Pro Client v2.2.47.7, 2026-05-16 15:29:03
;Gerber Generator version 0.3
M48
METRIC,LZ,0000.00000
;Hole size 1 = 0.30480 METRIC
T01C0.30480
;Hole size 2 = 0.80000 METRIC
T02C0.80000
%
G05
G90
T01
X75.82131Y29.82641
X80.26885Y29.82641
X44.48533Y40.98209
X47.93973Y44.56349
X66.65699Y44.26885
X34.02307Y29.02885
X75.54445Y40.87287
X41.95803Y30.09819
X34.69617Y23.95139
X59.23511Y1.33523
X40.45689Y1.00249
X54.33037Y1.69337
X63.51501Y5.18587
X83.10095Y12.31311
X65.15839Y7.01975
X50.74135Y30.64429
X56.55033Y32.07431
X58.19879Y26.98923
X64.68849Y27.61915
X66.18455Y23.60595
X70.88609Y25.67859
X74.92215Y17.62425
X47.82035Y17.62425
X51.05885Y10.51987
X56.41825Y10.51987
X58.92015Y6.60827
X64.52085Y8.73679
X61.97069Y-5.39069
X80.81495Y-5.39069
X45.72231Y28.16017
X41.84373Y33.38749
X74.07379Y8.12465
X82.17639Y12.31311
X39.88539Y29.96611
X79.79895Y18.86123
X86.09561Y0.99487
X62.08753Y-1.45623
X48.35629Y32.92267
X73.81217Y35.49061
X75.62827Y36.99175
X71.08929Y33.60085
X72.59043Y36.66663
X67.03037Y34.42889
X64.55133Y36.75045
X60.43653Y34.79973
X53.55821Y36.09767
X50.18763Y35.20867
X55.01617Y30.25821
X60.35779Y30.25821
X58.03623Y32.22925
X64.54371Y32.22925
X63.26355Y29.92801
X67.88889Y33.37479
X67.03037Y30.52745
X72.66409Y31.70601
X75.43777Y33.18429
X70.18505Y32.24195
X75.01613Y30.20487
X48.55949Y28.45481
X50.16985Y27.15179
X55.82135Y29.27523
X54.09161Y28.51577
X60.54321Y28.51577
X62.18151Y27.61661
X67.90413Y29.81371
X66.19471Y27.65725
X70.66511Y29.91277
X71.91987Y25.23917
X75.17615Y28.99075
X74.83579Y26.35931
X48.84397Y25.04867
X58.19625Y24.24603
X64.51577Y22.85411
X62.17135Y23.45609
X67.45455Y25.14773
X70.20537Y23.08525
X75.57239Y25.13757
X74.81293Y21.37583
X47.82035Y21.37583
X47.10661Y18.62501
X52.55491Y19.24985
X50.10635Y20.10837
X56.56811Y20.10837
X54.18559Y19.16603
X60.55591Y20.42587
X70.38571Y18.45229
X75.72733Y20.99483
X47.56381Y14.47719
X52.53713Y16.04183
X62.19675Y15.55161
X68.53913Y15.32047
X66.28869Y17.00449
X71.75985Y17.00449
X72.95365Y16.57269
X75.72733Y17.00195
X74.92215Y14.42893
X49.20465Y14.42893
X53.99255Y11.74669
X60.01489Y13.33165
X74.92723Y9.75533
X47.82035Y9.75533
X46.18459Y7.37027
X51.90721Y9.06953
X55.03903Y5.98343
X60.89881Y6.86481
X62.17135Y7.45409
X65.94325Y8.99841
X70.38571Y6.23489
X75.64097Y8.98317
X57.50283Y49.72223
X44.80029Y41.90411
X90.04023Y3.68981
X72.34151Y3.68981
X46.15919Y13.00145
X92.13319Y13.00145
X60.07331Y41.57645
X90.12151Y41.57645
X83.54291Y0.61133
X51.44493Y-2.29697
X63.55565Y-2.29697
X89.52207Y5.64053
X47.00247Y5.36367
X68.707Y8.255
X72.898Y7.747
T02
X38.85029Y44.47809G85X38.46462Y44.93771
X41.60124Y41.19964G85X41.08703Y41.81245
X48.22794Y46.76007G85X47.7137Y47.37293
X45.47698Y50.03854G85X45.09131Y50.49816
M30