;TYPE=PLATED
;Layer: PTH_Through
;EasyEDA Pro Client v2.2.47.7, 2026-05-13 19:00:28
;Gerber Generator version 0.3
M48
METRIC,LZ,0000.00000
;Hole size 1 = 0.30480 METRIC
T01C0.30480
;Hole size 2 = 0.80000 METRIC
T02C0.80000
%
G05
G90
T01
X81.98589Y16.06215
X75.82131Y14.63467
X71.41187Y14.53053
X69.01411Y-1.83977
X59.97171Y-1.83977
X65.33111Y42.69659
X45.42259Y42.69659
X81.09943Y21.82541
X37.32761Y19.69689
X74.16015Y23.74311
X70.00979Y24.45685
X60.96739Y-1.15143
X65.23205Y1.44445
X63.30673Y38.37605
X42.59557Y32.80075
X37.11679Y32.76519
X66.30901Y34.82005
X62.30597Y34.82005
X63.49469Y0.44369
X75.85179Y2.80335
X79.67703Y23.95139
X82.67931Y17.54551
X66.89321Y22.24197
X72.56249Y24.64227
X74.92215Y17.42359
X47.75939Y17.42359
X51.10203Y10.59607
X54.38117Y12.88461
X90.19517Y3.47391
X58.87697Y-3.57713
X47.73653Y44.18249
X60.57877Y44.18249
X59.30877Y46.71741
X45.42513Y45.50583
X80.18503Y17.10863
X40.07843Y18.41927
X86.99477Y0.28875
X63.93411Y-3.04881
X47.82035Y33.46115
X72.92571Y33.03697
X71.82081Y37.32449
X68.57977Y35.05373
X69.68975Y33.05729
X63.58867Y33.05729
X56.55541Y35.14009
X50.20795Y35.14009
X54.91965Y30.23535
X60.87087Y31.09387
X58.19117Y31.12435
X63.74361Y33.84977
X62.17135Y32.26227
X68.53405Y32.26227
X66.17439Y31.57393
X72.55487Y32.09971
X74.92215Y29.00853
X47.82035Y29.00853
X47.10407Y26.64379
X52.53967Y28.03571
X70.19521Y27.65725
X76.14897Y29.00853
X74.38621Y26.55997
X47.82035Y25.85639
X47.01263Y21.76191
X52.95369Y23.28845
X50.18509Y24.17237
X56.53763Y24.17237
X54.20083Y23.54499
X60.53813Y24.08347
X58.92015Y22.10989
X64.35829Y22.10989
X62.20183Y24.04537
X68.54167Y24.04537
X73.77407Y23.01921
X47.82035Y21.47235
X65.09235Y20.70527
X68.89219Y20.34713
X51.58463Y14.14191
X47.15487Y14.14191
X49.99967Y14.75659
X57.02277Y15.49573
X54.20337Y15.52621
X60.58893Y16.61587
X58.19371Y15.78275
X64.55387Y15.78275
X62.77079Y14.63213
X68.96839Y14.63213
X70.20029Y15.14013
X75.72733Y16.99179
X74.92215Y13.85235
X47.82035Y13.49675
X47.43173Y9.88487
X52.54475Y11.47745
X54.17035Y11.53841
X59.82185Y12.99129
X58.62297Y13.03447
X64.54879Y11.68319
X70.10885Y11.92957
X75.60287Y13.09289
X74.82309Y10.33191
X48.41979Y9.67151
X69.69229Y9.06699
X71.89955Y8.98571
X70.92165Y6.63367
X75.61303Y9.74009
X90.99527Y8.65805
X71.60745Y5.64307
X62.59299Y44.53047
X86.02449Y44.53047
X92.21701Y32.66867
X60.80991Y36.71489
X79.39001Y18.78249
X82.99427Y18.78249
T02
X41.89509Y39.87074G85X41.29509Y39.87074
X46.1748Y39.87074G85X45.37483Y39.87074
X46.17483Y48.52126G85X45.3748Y48.52126
X41.89509Y48.52126G85X41.29509Y48.52126
M30