G04 Layer: TopSilkscreenLayer*
G04 EasyEDA Pro v2.2.47.7, 2026-05-13 19:00:28*
G04 Gerber Generator version 0.3*
G04 Scale: 100 percent, Rotated: No, Reflected: No*
G04 Dimensions in millimeters*
G04 Leading zeros omitted, absolute positions, 4 integers and 5 decimals*
G04 Generated by custom config*
G04 Object Configs: Pad,Via,Track,Text,Image,Dimension,BoardOutline,BoardCutout,CopperFilled,SolidRegion,FPCStiffener,Line,PlaneZone,ComponentProperty,ComponentSilkscreen,TearDrop*
G04 Layer Configs: 1,2,3,4,7,8,5,6,11,14,9,10*
G04 Copper Areas: 0*
%FSLAX45Y45*%
%MOMM*%
%ADD10C,0.1524*%
%ADD11C,0.254*%
%ADD12C,0.1*%
%ADD13C,0.3*%
%ADD14C,0.15001*%
%ADD15C,0.5027*%
G75*


G04 Text Start*
G54D10*
G01X6747002Y4460240D02*
G01X6743954Y4466590D01*
G01X6737604Y4472686D01*
G01X6731508Y4475734D01*
G01X6719062Y4475734D01*
G01X6712966Y4472686D01*
G01X6706616Y4466590D01*
G01X6703568Y4460240D01*
G01X6700520Y4451096D01*
G01X6700520Y4435602D01*
G01X6703568Y4426204D01*
G01X6706616Y4420108D01*
G01X6712966Y4413758D01*
G01X6719062Y4410710D01*
G01X6731508Y4410710D01*
G01X6737604Y4413758D01*
G01X6743954Y4420108D01*
G01X6747002Y4426204D01*
G01X6777228Y4463288D02*
G01X6783324Y4466590D01*
G01X6792468Y4475734D01*
G01X6792468Y4410710D01*
G01X7686802Y4155440D02*
G01X7683754Y4161790D01*
G01X7677404Y4167886D01*
G01X7671308Y4170934D01*
G01X7658862Y4170934D01*
G01X7652766Y4167886D01*
G01X7646416Y4161790D01*
G01X7643368Y4155440D01*
G01X7640320Y4146296D01*
G01X7640320Y4130802D01*
G01X7643368Y4121404D01*
G01X7646416Y4115308D01*
G01X7652766Y4108958D01*
G01X7658862Y4105910D01*
G01X7671308Y4105910D01*
G01X7677404Y4108958D01*
G01X7683754Y4115308D01*
G01X7686802Y4121404D01*
G01X7720076Y4155440D02*
G01X7720076Y4158488D01*
G01X7723124Y4164838D01*
G01X7726172Y4167886D01*
G01X7732268Y4170934D01*
G01X7744714Y4170934D01*
G01X7751064Y4167886D01*
G01X7754112Y4164838D01*
G01X7757160Y4158488D01*
G01X7757160Y4152392D01*
G01X7754112Y4146296D01*
G01X7747762Y4136898D01*
G01X7717028Y4105910D01*
G01X7760208Y4105910D01*
G01X2778760Y3064002D02*
G01X2772410Y3060954D01*
G01X2766314Y3054604D01*
G01X2763266Y3048508D01*
G01X2763266Y3036062D01*
G01X2766314Y3029966D01*
G01X2772410Y3023616D01*
G01X2778760Y3020568D01*
G01X2787904Y3017520D01*
G01X2803398Y3017520D01*
G01X2812796Y3020568D01*
G01X2818892Y3023616D01*
G01X2825242Y3029966D01*
G01X2828290Y3036062D01*
G01X2828290Y3048508D01*
G01X2825242Y3054604D01*
G01X2818892Y3060954D01*
G01X2812796Y3064002D01*
G01X2763266Y3124962D02*
G01X2806446Y3094228D01*
G01X2806446Y3140456D01*
G01X2763266Y3124962D02*
G01X2828290Y3124962D01*
G01X8036560Y4168902D02*
G01X8030210Y4165854D01*
G01X8024114Y4159504D01*
G01X8021066Y4153408D01*
G01X8021066Y4140962D01*
G01X8024114Y4134866D01*
G01X8030210Y4128516D01*
G01X8036560Y4125468D01*
G01X8045704Y4122420D01*
G01X8061198Y4122420D01*
G01X8070596Y4125468D01*
G01X8076692Y4128516D01*
G01X8083042Y4134866D01*
G01X8086090Y4140962D01*
G01X8086090Y4153408D01*
G01X8083042Y4159504D01*
G01X8076692Y4165854D01*
G01X8070596Y4168902D01*
G01X8042656Y4239260D02*
G01X8052054Y4236212D01*
G01X8058150Y4229862D01*
G01X8061198Y4220718D01*
G01X8061198Y4217670D01*
G01X8058150Y4208272D01*
G01X8052054Y4202176D01*
G01X8042656Y4199128D01*
G01X8039608Y4199128D01*
G01X8030210Y4202176D01*
G01X8024114Y4208272D01*
G01X8021066Y4217670D01*
G01X8021066Y4220718D01*
G01X8024114Y4229862D01*
G01X8030210Y4236212D01*
G01X8042656Y4239260D01*
G01X8058150Y4239260D01*
G01X8073644Y4236212D01*
G01X8083042Y4229862D01*
G01X8086090Y4220718D01*
G01X8086090Y4214368D01*
G01X8083042Y4205224D01*
G01X8076692Y4202176D01*
G01X4942840Y-371602D02*
G01X4949190Y-368554D01*
G01X4955286Y-362204D01*
G01X4958334Y-356108D01*
G01X4958334Y-343662D01*
G01X4955286Y-337566D01*
G01X4949190Y-331216D01*
G01X4942840Y-328168D01*
G01X4933696Y-325120D01*
G01X4918202Y-325120D01*
G01X4908804Y-328168D01*
G01X4902708Y-331216D01*
G01X4896358Y-337566D01*
G01X4893310Y-343662D01*
G01X4893310Y-356108D01*
G01X4896358Y-362204D01*
G01X4902708Y-368554D01*
G01X4908804Y-371602D01*
G01X4945888Y-401828D02*
G01X4949190Y-407924D01*
G01X4958334Y-417068D01*
G01X4893310Y-417068D01*
G01X4958334Y-465836D02*
G01X4955286Y-456438D01*
G01X4945888Y-450342D01*
G01X4930648Y-447294D01*
G01X4921250Y-447294D01*
G01X4905756Y-450342D01*
G01X4896358Y-456438D01*
G01X4893310Y-465836D01*
G01X4893310Y-471932D01*
G01X4896358Y-481330D01*
G01X4905756Y-487426D01*
G01X4921250Y-490474D01*
G01X4930648Y-490474D01*
G01X4945888Y-487426D01*
G01X4955286Y-481330D01*
G01X4958334Y-471932D01*
G01X4958334Y-465836D01*
G01X4039578Y3147586D02*
G01X4045928Y3150634D01*
G01X4052024Y3156984D01*
G01X4055072Y3163080D01*
G01X4055072Y3175526D01*
G01X4052024Y3181622D01*
G01X4045928Y3187972D01*
G01X4039578Y3191020D01*
G01X4030434Y3194068D01*
G01X4014940Y3194068D01*
G01X4005542Y3191020D01*
G01X3999446Y3187972D01*
G01X3993096Y3181622D01*
G01X3990048Y3175526D01*
G01X3990048Y3163080D01*
G01X3993096Y3156984D01*
G01X3999446Y3150634D01*
G01X4005542Y3147586D01*
G01X4042626Y3117360D02*
G01X4045928Y3111264D01*
G01X4055072Y3102120D01*
G01X3990048Y3102120D01*
G01X4042626Y3071894D02*
G01X4045928Y3065798D01*
G01X4055072Y3056654D01*
G01X3990048Y3056654D01*
G01X8002422Y3325190D02*
G01X7996072Y3322142D01*
G01X7989976Y3315792D01*
G01X7986928Y3309696D01*
G01X7986928Y3297250D01*
G01X7989976Y3291154D01*
G01X7996072Y3284804D01*
G01X8002422Y3281756D01*
G01X8011566Y3278708D01*
G01X8027060Y3278708D01*
G01X8036458Y3281756D01*
G01X8042554Y3284804D01*
G01X8048904Y3291154D01*
G01X8051952Y3297250D01*
G01X8051952Y3309696D01*
G01X8048904Y3315792D01*
G01X8042554Y3322142D01*
G01X8036458Y3325190D01*
G01X7986928Y3355416D02*
G01X8051952Y3355416D01*
G01X7986928Y3355416D02*
G01X8051952Y3398596D01*
G01X7986928Y3398596D02*
G01X8051952Y3398596D01*
G01X8002422Y3431870D02*
G01X7999374Y3431870D01*
G01X7993024Y3434918D01*
G01X7989976Y3437966D01*
G01X7986928Y3444062D01*
G01X7986928Y3456508D01*
G01X7989976Y3462858D01*
G01X7993024Y3465906D01*
G01X7999374Y3468954D01*
G01X8005470Y3468954D01*
G01X8011566Y3465906D01*
G01X8020964Y3459556D01*
G01X8051952Y3428822D01*
G01X8051952Y3472002D01*
G01X6444234Y68580D02*
G01X6379210Y68580D01*
G01X6379210Y68580D02*
G01X6379210Y31496D01*
G01X6444234Y1270D02*
G01X6379210Y1270D01*
G01X6444234Y1270D02*
G01X6444234Y-20320D01*
G01X6441186Y-29464D01*
G01X6435090Y-35814D01*
G01X6428740Y-38862D01*
G01X6419596Y-41910D01*
G01X6404102Y-41910D01*
G01X6394704Y-38862D01*
G01X6388608Y-35814D01*
G01X6382258Y-29464D01*
G01X6379210Y-20320D01*
G01X6379210Y1270D01*
G01X6444234Y-90678D02*
G01X6441186Y-84328D01*
G01X6435090Y-78232D01*
G01X6428740Y-75184D01*
G01X6419596Y-72136D01*
G01X6404102Y-72136D01*
G01X6394704Y-75184D01*
G01X6388608Y-78232D01*
G01X6382258Y-84328D01*
G01X6379210Y-90678D01*
G01X6379210Y-102870D01*
G01X6382258Y-109220D01*
G01X6388608Y-115316D01*
G01X6394704Y-118364D01*
G01X6404102Y-121666D01*
G01X6419596Y-121666D01*
G01X6428740Y-118364D01*
G01X6435090Y-115316D01*
G01X6441186Y-109220D01*
G01X6444234Y-102870D01*
G01X6444234Y-90678D01*
G01X6431788Y-151892D02*
G01X6435090Y-157988D01*
G01X6444234Y-167132D01*
G01X6379210Y-167132D01*
G01X6698234Y5097780D02*
G01X6633210Y5097780D01*
G01X6698234Y5097780D02*
G01X6698234Y5069840D01*
G01X6695186Y5060696D01*
G01X6692138Y5057648D01*
G01X6685788Y5054346D01*
G01X6679692Y5054346D01*
G01X6673596Y5057648D01*
G01X6670548Y5060696D01*
G01X6667246Y5069840D01*
G01X6667246Y5097780D01*
G01X6667246Y5076190D02*
G01X6633210Y5054346D01*
G01X6685788Y5024120D02*
G01X6689090Y5018024D01*
G01X6698234Y5008880D01*
G01X6633210Y5008880D01*
G01X6075934Y5097780D02*
G01X6010910Y5097780D01*
G01X6075934Y5097780D02*
G01X6075934Y5069840D01*
G01X6072886Y5060696D01*
G01X6069838Y5057648D01*
G01X6063488Y5054346D01*
G01X6057392Y5054346D01*
G01X6051296Y5057648D01*
G01X6048248Y5060696D01*
G01X6044946Y5069840D01*
G01X6044946Y5097780D01*
G01X6044946Y5076190D02*
G01X6010910Y5054346D01*
G01X6060440Y5021072D02*
G01X6063488Y5021072D01*
G01X6069838Y5018024D01*
G01X6072886Y5014976D01*
G01X6075934Y5008880D01*
G01X6075934Y4996434D01*
G01X6072886Y4990084D01*
G01X6069838Y4987036D01*
G01X6063488Y4983988D01*
G01X6057392Y4983988D01*
G01X6051296Y4987036D01*
G01X6041898Y4993386D01*
G01X6010910Y5024120D01*
G01X6010910Y4980940D01*
G01X6659880Y4376166D02*
G01X6659880Y4441190D01*
G01X6659880Y4376166D02*
G01X6631940Y4376166D01*
G01X6622796Y4379214D01*
G01X6619748Y4382262D01*
G01X6616446Y4388612D01*
G01X6616446Y4394708D01*
G01X6619748Y4400804D01*
G01X6622796Y4403852D01*
G01X6631940Y4407154D01*
G01X6659880Y4407154D01*
G01X6638290Y4407154D02*
G01X6616446Y4441190D01*
G01X6580124Y4376166D02*
G01X6546088Y4376166D01*
G01X6564630Y4400804D01*
G01X6555486Y4400804D01*
G01X6549136Y4403852D01*
G01X6546088Y4407154D01*
G01X6543040Y4416298D01*
G01X6543040Y4422648D01*
G01X6546088Y4431792D01*
G01X6552184Y4438142D01*
G01X6561582Y4441190D01*
G01X6570980Y4441190D01*
G01X6580124Y4438142D01*
G01X6583172Y4434840D01*
G01X6586220Y4428744D01*
G01X8628634Y4145280D02*
G01X8563610Y4145280D01*
G01X8628634Y4145280D02*
G01X8628634Y4117340D01*
G01X8625586Y4108196D01*
G01X8622538Y4105148D01*
G01X8616188Y4101846D01*
G01X8610092Y4101846D01*
G01X8603996Y4105148D01*
G01X8600948Y4108196D01*
G01X8597646Y4117340D01*
G01X8597646Y4145280D01*
G01X8597646Y4123690D02*
G01X8563610Y4101846D01*
G01X8628634Y4040886D02*
G01X8585454Y4071620D01*
G01X8585454Y4025392D01*
G01X8628634Y4040886D02*
G01X8563610Y4040886D01*
G01X4858766Y-315453D02*
G01X4923790Y-315453D01*
G01X4858766Y-315453D02*
G01X4858766Y-287513D01*
G01X4861814Y-278369D01*
G01X4864862Y-275321D01*
G01X4871212Y-272019D01*
G01X4877308Y-272019D01*
G01X4883404Y-275321D01*
G01X4886452Y-278369D01*
G01X4889754Y-287513D01*
G01X4889754Y-315453D01*
G01X4889754Y-293863D02*
G01X4923790Y-272019D01*
G01X4858766Y-204709D02*
G01X4858766Y-235697D01*
G01X4886452Y-238745D01*
G01X4883404Y-235697D01*
G01X4880356Y-226553D01*
G01X4880356Y-217155D01*
G01X4883404Y-207757D01*
G01X4889754Y-201661D01*
G01X4898898Y-198613D01*
G01X4905248Y-198613D01*
G01X4914392Y-201661D01*
G01X4920742Y-207757D01*
G01X4923790Y-217155D01*
G01X4923790Y-226553D01*
G01X4920742Y-235697D01*
G01X4917440Y-238745D01*
G01X4911344Y-241793D01*
G01X5506720Y-199687D02*
G01X5506720Y-264711D01*
G01X5506720Y-199687D02*
G01X5534660Y-199687D01*
G01X5543804Y-202735D01*
G01X5546852Y-205783D01*
G01X5550154Y-212133D01*
G01X5550154Y-218229D01*
G01X5546852Y-224325D01*
G01X5543804Y-227373D01*
G01X5534660Y-230675D01*
G01X5506720Y-230675D01*
G01X5528310Y-230675D02*
G01X5550154Y-264711D01*
G01X5617464Y-208831D02*
G01X5614416Y-202735D01*
G01X5605018Y-199687D01*
G01X5598922Y-199687D01*
G01X5589524Y-202735D01*
G01X5583428Y-212133D01*
G01X5580380Y-227373D01*
G01X5580380Y-242867D01*
G01X5583428Y-255313D01*
G01X5589524Y-261663D01*
G01X5598922Y-264711D01*
G01X5601970Y-264711D01*
G01X5611114Y-261663D01*
G01X5617464Y-255313D01*
G01X5620512Y-246169D01*
G01X5620512Y-242867D01*
G01X5617464Y-233723D01*
G01X5611114Y-227373D01*
G01X5601970Y-224325D01*
G01X5598922Y-224325D01*
G01X5589524Y-227373D01*
G01X5583428Y-233723D01*
G01X5580380Y-242867D01*
G01X6380734Y4665980D02*
G01X6315710Y4665980D01*
G01X6380734Y4665980D02*
G01X6380734Y4638040D01*
G01X6377686Y4628896D01*
G01X6374638Y4625848D01*
G01X6368288Y4622546D01*
G01X6362192Y4622546D01*
G01X6356096Y4625848D01*
G01X6353048Y4628896D01*
G01X6349746Y4638040D01*
G01X6349746Y4665980D01*
G01X6349746Y4644390D02*
G01X6315710Y4622546D01*
G01X6380734Y4549140D02*
G01X6315710Y4580128D01*
G01X6380734Y4592320D02*
G01X6380734Y4549140D01*
G01X5735066Y4516120D02*
G01X5800090Y4516120D01*
G01X5735066Y4516120D02*
G01X5735066Y4544060D01*
G01X5738114Y4553204D01*
G01X5741162Y4556252D01*
G01X5747512Y4559554D01*
G01X5753608Y4559554D01*
G01X5759704Y4556252D01*
G01X5762752Y4553204D01*
G01X5766054Y4544060D01*
G01X5766054Y4516120D01*
G01X5766054Y4537710D02*
G01X5800090Y4559554D01*
G01X5735066Y4605020D02*
G01X5738114Y4595876D01*
G01X5744210Y4592828D01*
G01X5750560Y4592828D01*
G01X5756656Y4595876D01*
G01X5759704Y4601972D01*
G01X5762752Y4614418D01*
G01X5766054Y4623816D01*
G01X5772150Y4629912D01*
G01X5778246Y4632960D01*
G01X5787644Y4632960D01*
G01X5793740Y4629912D01*
G01X5797042Y4626864D01*
G01X5800090Y4617466D01*
G01X5800090Y4605020D01*
G01X5797042Y4595876D01*
G01X5793740Y4592828D01*
G01X5787644Y4589780D01*
G01X5778246Y4589780D01*
G01X5772150Y4592828D01*
G01X5766054Y4598924D01*
G01X5762752Y4608322D01*
G01X5759704Y4620514D01*
G01X5756656Y4626864D01*
G01X5750560Y4629912D01*
G01X5744210Y4629912D01*
G01X5738114Y4626864D01*
G01X5735066Y4617466D01*
G01X5735066Y4605020D01*
G01X4678934Y3408680D02*
G01X4613910Y3408680D01*
G01X4678934Y3408680D02*
G01X4678934Y3380740D01*
G01X4675886Y3371596D01*
G01X4672838Y3368548D01*
G01X4666488Y3365246D01*
G01X4660392Y3365246D01*
G01X4654296Y3368548D01*
G01X4651248Y3371596D01*
G01X4647946Y3380740D01*
G01X4647946Y3408680D01*
G01X4647946Y3387090D02*
G01X4613910Y3365246D01*
G01X4657344Y3294888D02*
G01X4647946Y3297936D01*
G01X4641850Y3304286D01*
G01X4638802Y3313430D01*
G01X4638802Y3316478D01*
G01X4641850Y3325876D01*
G01X4647946Y3331972D01*
G01X4657344Y3335020D01*
G01X4660392Y3335020D01*
G01X4669790Y3331972D01*
G01X4675886Y3325876D01*
G01X4678934Y3316478D01*
G01X4678934Y3313430D01*
G01X4675886Y3304286D01*
G01X4669790Y3297936D01*
G01X4657344Y3294888D01*
G01X4641850Y3294888D01*
G01X4626356Y3297936D01*
G01X4616958Y3304286D01*
G01X4613910Y3313430D01*
G01X4613910Y3319780D01*
G01X4616958Y3328924D01*
G01X4623308Y3331972D01*
G01X8641334Y4500880D02*
G01X8576310Y4500880D01*
G01X8641334Y4500880D02*
G01X8641334Y4472940D01*
G01X8638286Y4463796D01*
G01X8635238Y4460748D01*
G01X8628888Y4457446D01*
G01X8622792Y4457446D01*
G01X8616696Y4460748D01*
G01X8613648Y4463796D01*
G01X8610346Y4472940D01*
G01X8610346Y4500880D01*
G01X8610346Y4479290D02*
G01X8576310Y4457446D01*
G01X8628888Y4427220D02*
G01X8632190Y4421124D01*
G01X8641334Y4411980D01*
G01X8576310Y4411980D01*
G01X8641334Y4363212D02*
G01X8638286Y4372610D01*
G01X8628888Y4378706D01*
G01X8613648Y4381754D01*
G01X8604250Y4381754D01*
G01X8588756Y4378706D01*
G01X8579358Y4372610D01*
G01X8576310Y4363212D01*
G01X8576310Y4357116D01*
G01X8579358Y4347718D01*
G01X8588756Y4341622D01*
G01X8604250Y4338574D01*
G01X8613648Y4338574D01*
G01X8628888Y4341622D01*
G01X8638286Y4347718D01*
G01X8641334Y4357116D01*
G01X8641334Y4363212D01*
G01X8311134Y4526280D02*
G01X8246110Y4526280D01*
G01X8311134Y4526280D02*
G01X8311134Y4498340D01*
G01X8308086Y4489196D01*
G01X8305038Y4486148D01*
G01X8298688Y4482846D01*
G01X8292592Y4482846D01*
G01X8286496Y4486148D01*
G01X8283448Y4489196D01*
G01X8280146Y4498340D01*
G01X8280146Y4526280D01*
G01X8280146Y4504690D02*
G01X8246110Y4482846D01*
G01X8298688Y4452620D02*
G01X8301990Y4446524D01*
G01X8311134Y4437380D01*
G01X8246110Y4437380D01*
G01X8298688Y4407154D02*
G01X8301990Y4401058D01*
G01X8311134Y4391914D01*
G01X8246110Y4391914D01*
G01X3816401Y1587246D02*
G01X3822497Y1593596D01*
G01X3825545Y1602740D01*
G01X3825545Y1615186D01*
G01X3822497Y1624584D01*
G01X3816401Y1630680D01*
G01X3810051Y1630680D01*
G01X3803955Y1627632D01*
G01X3800907Y1624584D01*
G01X3797859Y1618234D01*
G01X3791509Y1599692D01*
G01X3788461Y1593596D01*
G01X3785413Y1590548D01*
G01X3779063Y1587246D01*
G01X3769919Y1587246D01*
G01X3763569Y1593596D01*
G01X3760521Y1602740D01*
G01X3760521Y1615186D01*
G01X3763569Y1624584D01*
G01X3769919Y1630680D01*
G01X3825545Y1557020D02*
G01X3760521Y1541780D01*
G01X3825545Y1526286D02*
G01X3760521Y1541780D01*
G01X3825545Y1526286D02*
G01X3760521Y1510792D01*
G01X3825545Y1495298D02*
G01X3760521Y1510792D01*
G01X3813099Y1465072D02*
G01X3816401Y1458976D01*
G01X3825545Y1449832D01*
G01X3760521Y1449832D01*
G01X8060690Y-139954D02*
G01X8066786Y-133604D01*
G01X8069834Y-124460D01*
G01X8069834Y-112014D01*
G01X8066786Y-102616D01*
G01X8060690Y-96520D01*
G01X8054340Y-96520D01*
G01X8048244Y-99568D01*
G01X8045196Y-102616D01*
G01X8042148Y-108966D01*
G01X8035798Y-127508D01*
G01X8032750Y-133604D01*
G01X8029702Y-136652D01*
G01X8023352Y-139954D01*
G01X8014208Y-139954D01*
G01X8007858Y-133604D01*
G01X8004810Y-124460D01*
G01X8004810Y-112014D01*
G01X8007858Y-102616D01*
G01X8014208Y-96520D01*
G01X8069834Y-170180D02*
G01X8004810Y-185420D01*
G01X8069834Y-200914D02*
G01X8004810Y-185420D01*
G01X8069834Y-200914D02*
G01X8004810Y-216408D01*
G01X8069834Y-231902D02*
G01X8004810Y-216408D01*
G01X8054340Y-265176D02*
G01X8057388Y-265176D01*
G01X8063738Y-268224D01*
G01X8066786Y-271272D01*
G01X8069834Y-277368D01*
G01X8069834Y-289814D01*
G01X8066786Y-296164D01*
G01X8063738Y-299212D01*
G01X8057388Y-302260D01*
G01X8051292Y-302260D01*
G01X8045196Y-299212D01*
G01X8035798Y-292862D01*
G01X8004810Y-262128D01*
G01X8004810Y-305308D01*
G01X6883146Y-402590D02*
G01X6889496Y-408686D01*
G01X6898640Y-411734D01*
G01X6911086Y-411734D01*
G01X6920484Y-408686D01*
G01X6926580Y-402590D01*
G01X6926580Y-396240D01*
G01X6923532Y-390144D01*
G01X6920484Y-387096D01*
G01X6914134Y-384048D01*
G01X6895592Y-377698D01*
G01X6889496Y-374650D01*
G01X6886448Y-371602D01*
G01X6883146Y-365252D01*
G01X6883146Y-356108D01*
G01X6889496Y-349758D01*
G01X6898640Y-346710D01*
G01X6911086Y-346710D01*
G01X6920484Y-349758D01*
G01X6926580Y-356108D01*
G01X6852920Y-411734D02*
G01X6837680Y-346710D01*
G01X6822186Y-411734D02*
G01X6837680Y-346710D01*
G01X6822186Y-411734D02*
G01X6806692Y-346710D01*
G01X6791198Y-411734D02*
G01X6806692Y-346710D01*
G01X6754876Y-411734D02*
G01X6720840Y-411734D01*
G01X6739382Y-387096D01*
G01X6730238Y-387096D01*
G01X6723888Y-384048D01*
G01X6720840Y-380746D01*
G01X6717792Y-371602D01*
G01X6717792Y-365252D01*
G01X6720840Y-356108D01*
G01X6726936Y-349758D01*
G01X6736334Y-346710D01*
G01X6745732Y-346710D01*
G01X6754876Y-349758D01*
G01X6757924Y-353060D01*
G01X6760972Y-359156D01*
G01X7853934Y4958080D02*
G01X7807452Y4958080D01*
G01X7798308Y4955032D01*
G01X7791958Y4948682D01*
G01X7788910Y4939538D01*
G01X7788910Y4933188D01*
G01X7791958Y4924044D01*
G01X7798308Y4917948D01*
G01X7807452Y4914646D01*
G01X7853934Y4914646D01*
G01X7841488Y4884420D02*
G01X7844790Y4878324D01*
G01X7853934Y4869180D01*
G01X7788910Y4869180D01*
G01X8656320Y2824734D02*
G01X8656320Y2778252D01*
G01X8659368Y2769108D01*
G01X8665718Y2762758D01*
G01X8674862Y2759710D01*
G01X8681212Y2759710D01*
G01X8690356Y2762758D01*
G01X8696452Y2769108D01*
G01X8699754Y2778252D01*
G01X8699754Y2824734D01*
G01X8733028Y2809240D02*
G01X8733028Y2812288D01*
G01X8736076Y2818638D01*
G01X8739124Y2821686D01*
G01X8745220Y2824734D01*
G01X8757666Y2824734D01*
G01X8764016Y2821686D01*
G01X8767064Y2818638D01*
G01X8770112Y2812288D01*
G01X8770112Y2806192D01*
G01X8767064Y2800096D01*
G01X8760714Y2790698D01*
G01X8729980Y2759710D01*
G01X8773160Y2759710D01*
G01X6183719Y-630070D02*
G01X6183719Y-583588D01*
G01X6180671Y-574444D01*
G01X6174321Y-568094D01*
G01X6165177Y-565046D01*
G01X6158827Y-565046D01*
G01X6149683Y-568094D01*
G01X6143587Y-574444D01*
G01X6140285Y-583588D01*
G01X6140285Y-630070D01*
G01X6103963Y-630070D02*
G01X6069927Y-630070D01*
G01X6088469Y-605432D01*
G01X6079325Y-605432D01*
G01X6072975Y-602384D01*
G01X6069927Y-599082D01*
G01X6066879Y-589938D01*
G01X6066879Y-583588D01*
G01X6069927Y-574444D01*
G01X6076023Y-568094D01*
G01X6085421Y-565046D01*
G01X6094819Y-565046D01*
G01X6103963Y-568094D01*
G01X6107011Y-571396D01*
G01X6110059Y-577492D01*
G01X4170680Y2775966D02*
G01X4170680Y2822448D01*
G01X4167632Y2831592D01*
G01X4161282Y2837942D01*
G01X4152138Y2840990D01*
G01X4145788Y2840990D01*
G01X4136644Y2837942D01*
G01X4130548Y2831592D01*
G01X4127246Y2822448D01*
G01X4127246Y2775966D01*
G01X4066286Y2775966D02*
G01X4097020Y2819146D01*
G01X4050792Y2819146D01*
G01X4066286Y2775966D02*
G01X4066286Y2840990D01*
G01X4867339Y4429481D02*
G01X4820857Y4429481D01*
G01X4811713Y4426433D01*
G01X4805363Y4420083D01*
G01X4802315Y4410939D01*
G01X4802315Y4404589D01*
G01X4805363Y4395445D01*
G01X4811713Y4389349D01*
G01X4820857Y4386047D01*
G01X4867339Y4386047D01*
G01X4858195Y4312641D02*
G01X4864291Y4318737D01*
G01X4867339Y4328135D01*
G01X4867339Y4340581D01*
G01X4864291Y4349725D01*
G01X4858195Y4355821D01*
G01X4851845Y4355821D01*
G01X4845749Y4352773D01*
G01X4842701Y4349725D01*
G01X4839653Y4343629D01*
G01X4833303Y4325087D01*
G01X4830255Y4318737D01*
G01X4827207Y4315689D01*
G01X4820857Y4312641D01*
G01X4811713Y4312641D01*
G01X4805363Y4318737D01*
G01X4802315Y4328135D01*
G01X4802315Y4340581D01*
G01X4805363Y4349725D01*
G01X4811713Y4355821D01*
G01X4867339Y4282415D02*
G01X4802315Y4282415D01*
G01X4867339Y4282415D02*
G01X4867339Y4254729D01*
G01X4864291Y4245331D01*
G01X4861243Y4242283D01*
G01X4854893Y4239235D01*
G01X4848797Y4239235D01*
G01X4842701Y4242283D01*
G01X4839653Y4245331D01*
G01X4836351Y4254729D01*
G01X4836351Y4282415D02*
G01X4836351Y4254729D01*
G01X4833303Y4245331D01*
G01X4830255Y4242283D01*
G01X4824159Y4239235D01*
G01X4814761Y4239235D01*
G01X4808665Y4242283D01*
G01X4805363Y4245331D01*
G01X4802315Y4254729D01*
G01X4802315Y4282415D01*
G01X4851845Y4162781D02*
G01X4858195Y4165829D01*
G01X4864291Y4171925D01*
G01X4867339Y4178275D01*
G01X4867339Y4190467D01*
G01X4864291Y4196817D01*
G01X4858195Y4202913D01*
G01X4851845Y4205961D01*
G01X4842701Y4209009D01*
G01X4827207Y4209009D01*
G01X4817809Y4205961D01*
G01X4811713Y4202913D01*
G01X4805363Y4196817D01*
G01X4802315Y4190467D01*
G01X4802315Y4178275D01*
G01X4805363Y4171925D01*
G01X4811713Y4165829D01*
G01X4817809Y4162781D01*
G01X4854893Y4132555D02*
G01X4858195Y4126459D01*
G01X4867339Y4117315D01*
G01X4802315Y4117315D01*
G01X6754902Y4155440D02*
G01X6751854Y4161790D01*
G01X6745504Y4167886D01*
G01X6739408Y4170934D01*
G01X6726962Y4170934D01*
G01X6720866Y4167886D01*
G01X6714516Y4161790D01*
G01X6711468Y4155440D01*
G01X6708420Y4146296D01*
G01X6708420Y4130802D01*
G01X6711468Y4121404D01*
G01X6714516Y4115308D01*
G01X6720866Y4108958D01*
G01X6726962Y4105910D01*
G01X6739408Y4105910D01*
G01X6745504Y4108958D01*
G01X6751854Y4115308D01*
G01X6754902Y4121404D01*
G01X6822212Y4170934D02*
G01X6791224Y4170934D01*
G01X6788176Y4143248D01*
G01X6791224Y4146296D01*
G01X6800368Y4149344D01*
G01X6809766Y4149344D01*
G01X6819164Y4146296D01*
G01X6825260Y4139946D01*
G01X6828308Y4130802D01*
G01X6828308Y4124452D01*
G01X6825260Y4115308D01*
G01X6819164Y4108958D01*
G01X6809766Y4105910D01*
G01X6800368Y4105910D01*
G01X6791224Y4108958D01*
G01X6788176Y4112260D01*
G01X6785128Y4118356D01*
G01X7354902Y4155440D02*
G01X7351854Y4161790D01*
G01X7345504Y4167886D01*
G01X7339408Y4170934D01*
G01X7326962Y4170934D01*
G01X7320866Y4167886D01*
G01X7314516Y4161790D01*
G01X7311468Y4155440D01*
G01X7308420Y4146296D01*
G01X7308420Y4130802D01*
G01X7311468Y4121404D01*
G01X7314516Y4115308D01*
G01X7320866Y4108958D01*
G01X7326962Y4105910D01*
G01X7339408Y4105910D01*
G01X7345504Y4108958D01*
G01X7351854Y4115308D01*
G01X7354902Y4121404D01*
G01X7428308Y4170934D02*
G01X7397320Y4105910D01*
G01X7385128Y4170934D02*
G01X7428308Y4170934D01*
G01X6454902Y4155440D02*
G01X6451854Y4161790D01*
G01X6445504Y4167886D01*
G01X6439408Y4170934D01*
G01X6426962Y4170934D01*
G01X6420866Y4167886D01*
G01X6414516Y4161790D01*
G01X6411468Y4155440D01*
G01X6408420Y4146296D01*
G01X6408420Y4130802D01*
G01X6411468Y4121404D01*
G01X6414516Y4115308D01*
G01X6420866Y4108958D01*
G01X6426962Y4105910D01*
G01X6439408Y4105910D01*
G01X6445504Y4108958D01*
G01X6451854Y4115308D01*
G01X6454902Y4121404D01*
G01X6491224Y4170934D02*
G01X6525260Y4170934D01*
G01X6506718Y4146296D01*
G01X6515862Y4146296D01*
G01X6522212Y4143248D01*
G01X6525260Y4139946D01*
G01X6528308Y4130802D01*
G01X6528308Y4124452D01*
G01X6525260Y4115308D01*
G01X6519164Y4108958D01*
G01X6509766Y4105910D01*
G01X6500368Y4105910D01*
G01X6491224Y4108958D01*
G01X6488176Y4112260D01*
G01X6485128Y4118356D01*
G01X7054902Y4155440D02*
G01X7051854Y4161790D01*
G01X7045504Y4167886D01*
G01X7039408Y4170934D01*
G01X7026962Y4170934D01*
G01X7020866Y4167886D01*
G01X7014516Y4161790D01*
G01X7011468Y4155440D01*
G01X7008420Y4146296D01*
G01X7008420Y4130802D01*
G01X7011468Y4121404D01*
G01X7014516Y4115308D01*
G01X7020866Y4108958D01*
G01X7026962Y4105910D01*
G01X7039408Y4105910D01*
G01X7045504Y4108958D01*
G01X7051854Y4115308D01*
G01X7054902Y4121404D01*
G01X7122212Y4161790D02*
G01X7119164Y4167886D01*
G01X7109766Y4170934D01*
G01X7103670Y4170934D01*
G01X7094272Y4167886D01*
G01X7088176Y4158488D01*
G01X7085128Y4143248D01*
G01X7085128Y4127754D01*
G01X7088176Y4115308D01*
G01X7094272Y4108958D01*
G01X7103670Y4105910D01*
G01X7106718Y4105910D01*
G01X7115862Y4108958D01*
G01X7122212Y4115308D01*
G01X7125260Y4124452D01*
G01X7125260Y4127754D01*
G01X7122212Y4136898D01*
G01X7115862Y4143248D01*
G01X7106718Y4146296D01*
G01X7103670Y4146296D01*
G01X7094272Y4143248D01*
G01X7088176Y4136898D01*
G01X7085128Y4127754D01*
G01X4574540Y-371602D02*
G01X4580890Y-368554D01*
G01X4586986Y-362204D01*
G01X4590034Y-356108D01*
G01X4590034Y-343662D01*
G01X4586986Y-337566D01*
G01X4580890Y-331216D01*
G01X4574540Y-328168D01*
G01X4565396Y-325120D01*
G01X4549902Y-325120D01*
G01X4540504Y-328168D01*
G01X4534408Y-331216D01*
G01X4528058Y-337566D01*
G01X4525010Y-343662D01*
G01X4525010Y-356108D01*
G01X4528058Y-362204D01*
G01X4534408Y-368554D01*
G01X4540504Y-371602D01*
G01X4590034Y-417068D02*
G01X4586986Y-407924D01*
G01X4580890Y-404876D01*
G01X4574540Y-404876D01*
G01X4568444Y-407924D01*
G01X4565396Y-414020D01*
G01X4562348Y-426466D01*
G01X4559046Y-435864D01*
G01X4552950Y-441960D01*
G01X4546854Y-445008D01*
G01X4537456Y-445008D01*
G01X4531360Y-441960D01*
G01X4528058Y-438912D01*
G01X4525010Y-429514D01*
G01X4525010Y-417068D01*
G01X4528058Y-407924D01*
G01X4531360Y-404876D01*
G01X4537456Y-401828D01*
G01X4546854Y-401828D01*
G01X4552950Y-404876D01*
G01X4559046Y-410972D01*
G01X4562348Y-420370D01*
G01X4565396Y-432562D01*
G01X4568444Y-438912D01*
G01X4574540Y-441960D01*
G01X4580890Y-441960D01*
G01X4586986Y-438912D01*
G01X4590034Y-429514D01*
G01X4590034Y-417068D01*
G01X7519320Y1104234D02*
G01X7519320Y1039210D01*
G01X7519320Y1039210D02*
G01X7556404Y1039210D01*
G01X7586630Y1104234D02*
G01X7586630Y1039210D01*
G01X7586630Y1104234D02*
G01X7626762Y1104234D01*
G01X7586630Y1073246D02*
G01X7611268Y1073246D01*
G01X7586630Y1039210D02*
G01X7626762Y1039210D01*
G01X7656988Y1104234D02*
G01X7656988Y1039210D01*
G01X7656988Y1104234D02*
G01X7678578Y1104234D01*
G01X7687722Y1101186D01*
G01X7694072Y1095090D01*
G01X7697120Y1088740D01*
G01X7700168Y1079596D01*
G01X7700168Y1064102D01*
G01X7697120Y1054704D01*
G01X7694072Y1048608D01*
G01X7687722Y1042258D01*
G01X7678578Y1039210D01*
G01X7656988Y1039210D01*
G01X7773574Y1104234D02*
G01X7742586Y1039210D01*
G01X7730394Y1104234D02*
G01X7773574Y1104234D01*
G01X7834534Y1104234D02*
G01X7803800Y1061054D01*
G01X7850028Y1061054D01*
G01X7834534Y1104234D02*
G01X7834534Y1039210D01*
G01X7119320Y1104234D02*
G01X7119320Y1039210D01*
G01X7119320Y1039210D02*
G01X7156404Y1039210D01*
G01X7186630Y1104234D02*
G01X7186630Y1039210D01*
G01X7186630Y1104234D02*
G01X7226762Y1104234D01*
G01X7186630Y1073246D02*
G01X7211268Y1073246D01*
G01X7186630Y1039210D02*
G01X7226762Y1039210D01*
G01X7256988Y1104234D02*
G01X7256988Y1039210D01*
G01X7256988Y1104234D02*
G01X7278578Y1104234D01*
G01X7287722Y1101186D01*
G01X7294072Y1095090D01*
G01X7297120Y1088740D01*
G01X7300168Y1079596D01*
G01X7300168Y1064102D01*
G01X7297120Y1054704D01*
G01X7294072Y1048608D01*
G01X7287722Y1042258D01*
G01X7278578Y1039210D01*
G01X7256988Y1039210D01*
G01X7373574Y1104234D02*
G01X7342586Y1039210D01*
G01X7330394Y1104234D02*
G01X7373574Y1104234D01*
G01X7409896Y1104234D02*
G01X7443932Y1104234D01*
G01X7425390Y1079596D01*
G01X7434534Y1079596D01*
G01X7440884Y1076548D01*
G01X7443932Y1073246D01*
G01X7446980Y1064102D01*
G01X7446980Y1057752D01*
G01X7443932Y1048608D01*
G01X7437836Y1042258D01*
G01X7428438Y1039210D01*
G01X7419040Y1039210D01*
G01X7409896Y1042258D01*
G01X7406848Y1045560D01*
G01X7403800Y1051656D01*
G01X6719320Y1104234D02*
G01X6719320Y1039210D01*
G01X6719320Y1039210D02*
G01X6756404Y1039210D01*
G01X6786630Y1104234D02*
G01X6786630Y1039210D01*
G01X6786630Y1104234D02*
G01X6826762Y1104234D01*
G01X6786630Y1073246D02*
G01X6811268Y1073246D01*
G01X6786630Y1039210D02*
G01X6826762Y1039210D01*
G01X6856988Y1104234D02*
G01X6856988Y1039210D01*
G01X6856988Y1104234D02*
G01X6878578Y1104234D01*
G01X6887722Y1101186D01*
G01X6894072Y1095090D01*
G01X6897120Y1088740D01*
G01X6900168Y1079596D01*
G01X6900168Y1064102D01*
G01X6897120Y1054704D01*
G01X6894072Y1048608D01*
G01X6887722Y1042258D01*
G01X6878578Y1039210D01*
G01X6856988Y1039210D01*
G01X6973574Y1104234D02*
G01X6942586Y1039210D01*
G01X6930394Y1104234D02*
G01X6973574Y1104234D01*
G01X7006848Y1088740D02*
G01X7006848Y1091788D01*
G01X7009896Y1098138D01*
G01X7012944Y1101186D01*
G01X7019040Y1104234D01*
G01X7031486Y1104234D01*
G01X7037836Y1101186D01*
G01X7040884Y1098138D01*
G01X7043932Y1091788D01*
G01X7043932Y1085692D01*
G01X7040884Y1079596D01*
G01X7034534Y1070198D01*
G01X7003800Y1039210D01*
G01X7046980Y1039210D01*
G01X6319320Y1104234D02*
G01X6319320Y1039210D01*
G01X6319320Y1039210D02*
G01X6356404Y1039210D01*
G01X6386630Y1104234D02*
G01X6386630Y1039210D01*
G01X6386630Y1104234D02*
G01X6426762Y1104234D01*
G01X6386630Y1073246D02*
G01X6411268Y1073246D01*
G01X6386630Y1039210D02*
G01X6426762Y1039210D01*
G01X6456988Y1104234D02*
G01X6456988Y1039210D01*
G01X6456988Y1104234D02*
G01X6478578Y1104234D01*
G01X6487722Y1101186D01*
G01X6494072Y1095090D01*
G01X6497120Y1088740D01*
G01X6500168Y1079596D01*
G01X6500168Y1064102D01*
G01X6497120Y1054704D01*
G01X6494072Y1048608D01*
G01X6487722Y1042258D01*
G01X6478578Y1039210D01*
G01X6456988Y1039210D01*
G01X6573574Y1104234D02*
G01X6542586Y1039210D01*
G01X6530394Y1104234D02*
G01X6573574Y1104234D01*
G01X6603800Y1091788D02*
G01X6609896Y1095090D01*
G01X6619040Y1104234D01*
G01X6619040Y1039210D01*
G01X5919320Y1104234D02*
G01X5919320Y1039210D01*
G01X5919320Y1039210D02*
G01X5956404Y1039210D01*
G01X5986630Y1104234D02*
G01X5986630Y1039210D01*
G01X5986630Y1104234D02*
G01X6026762Y1104234D01*
G01X5986630Y1073246D02*
G01X6011268Y1073246D01*
G01X5986630Y1039210D02*
G01X6026762Y1039210D01*
G01X6056988Y1104234D02*
G01X6056988Y1039210D01*
G01X6056988Y1104234D02*
G01X6078578Y1104234D01*
G01X6087722Y1101186D01*
G01X6094072Y1095090D01*
G01X6097120Y1088740D01*
G01X6100168Y1079596D01*
G01X6100168Y1064102D01*
G01X6097120Y1054704D01*
G01X6094072Y1048608D01*
G01X6087722Y1042258D01*
G01X6078578Y1039210D01*
G01X6056988Y1039210D01*
G01X6173574Y1104234D02*
G01X6142586Y1039210D01*
G01X6130394Y1104234D02*
G01X6173574Y1104234D01*
G01X6222342Y1104234D02*
G01X6212944Y1101186D01*
G01X6206848Y1091788D01*
G01X6203800Y1076548D01*
G01X6203800Y1067150D01*
G01X6206848Y1051656D01*
G01X6212944Y1042258D01*
G01X6222342Y1039210D01*
G01X6228438Y1039210D01*
G01X6237836Y1042258D01*
G01X6243932Y1051656D01*
G01X6246980Y1067150D01*
G01X6246980Y1076548D01*
G01X6243932Y1091788D01*
G01X6237836Y1101186D01*
G01X6228438Y1104234D01*
G01X6222342Y1104234D01*
G01X5519320Y1104234D02*
G01X5519320Y1039210D01*
G01X5519320Y1039210D02*
G01X5556404Y1039210D01*
G01X5586630Y1104234D02*
G01X5586630Y1039210D01*
G01X5586630Y1104234D02*
G01X5626762Y1104234D01*
G01X5586630Y1073246D02*
G01X5611268Y1073246D01*
G01X5586630Y1039210D02*
G01X5626762Y1039210D01*
G01X5656988Y1104234D02*
G01X5656988Y1039210D01*
G01X5656988Y1104234D02*
G01X5678578Y1104234D01*
G01X5687722Y1101186D01*
G01X5694072Y1095090D01*
G01X5697120Y1088740D01*
G01X5700168Y1079596D01*
G01X5700168Y1064102D01*
G01X5697120Y1054704D01*
G01X5694072Y1048608D01*
G01X5687722Y1042258D01*
G01X5678578Y1039210D01*
G01X5656988Y1039210D01*
G01X5767478Y1095090D02*
G01X5764430Y1101186D01*
G01X5755032Y1104234D01*
G01X5748936Y1104234D01*
G01X5739538Y1101186D01*
G01X5733442Y1091788D01*
G01X5730394Y1076548D01*
G01X5730394Y1061054D01*
G01X5733442Y1048608D01*
G01X5739538Y1042258D01*
G01X5748936Y1039210D01*
G01X5751984Y1039210D01*
G01X5761128Y1042258D01*
G01X5767478Y1048608D01*
G01X5770526Y1057752D01*
G01X5770526Y1061054D01*
G01X5767478Y1070198D01*
G01X5761128Y1076548D01*
G01X5751984Y1079596D01*
G01X5748936Y1079596D01*
G01X5739538Y1076548D01*
G01X5733442Y1070198D01*
G01X5730394Y1061054D01*
G01X5840884Y1082644D02*
G01X5837836Y1073246D01*
G01X5831486Y1067150D01*
G01X5822342Y1064102D01*
G01X5819294Y1064102D01*
G01X5809896Y1067150D01*
G01X5803800Y1073246D01*
G01X5800752Y1082644D01*
G01X5800752Y1085692D01*
G01X5803800Y1095090D01*
G01X5809896Y1101186D01*
G01X5819294Y1104234D01*
G01X5822342Y1104234D01*
G01X5831486Y1101186D01*
G01X5837836Y1095090D01*
G01X5840884Y1082644D01*
G01X5840884Y1067150D01*
G01X5837836Y1051656D01*
G01X5831486Y1042258D01*
G01X5822342Y1039210D01*
G01X5815992Y1039210D01*
G01X5806848Y1042258D01*
G01X5803800Y1048608D01*
G01X5119320Y1104234D02*
G01X5119320Y1039210D01*
G01X5119320Y1039210D02*
G01X5156404Y1039210D01*
G01X5186630Y1104234D02*
G01X5186630Y1039210D01*
G01X5186630Y1104234D02*
G01X5226762Y1104234D01*
G01X5186630Y1073246D02*
G01X5211268Y1073246D01*
G01X5186630Y1039210D02*
G01X5226762Y1039210D01*
G01X5256988Y1104234D02*
G01X5256988Y1039210D01*
G01X5256988Y1104234D02*
G01X5278578Y1104234D01*
G01X5287722Y1101186D01*
G01X5294072Y1095090D01*
G01X5297120Y1088740D01*
G01X5300168Y1079596D01*
G01X5300168Y1064102D01*
G01X5297120Y1054704D01*
G01X5294072Y1048608D01*
G01X5287722Y1042258D01*
G01X5278578Y1039210D01*
G01X5256988Y1039210D01*
G01X5367478Y1095090D02*
G01X5364430Y1101186D01*
G01X5355032Y1104234D01*
G01X5348936Y1104234D01*
G01X5339538Y1101186D01*
G01X5333442Y1091788D01*
G01X5330394Y1076548D01*
G01X5330394Y1061054D01*
G01X5333442Y1048608D01*
G01X5339538Y1042258D01*
G01X5348936Y1039210D01*
G01X5351984Y1039210D01*
G01X5361128Y1042258D01*
G01X5367478Y1048608D01*
G01X5370526Y1057752D01*
G01X5370526Y1061054D01*
G01X5367478Y1070198D01*
G01X5361128Y1076548D01*
G01X5351984Y1079596D01*
G01X5348936Y1079596D01*
G01X5339538Y1076548D01*
G01X5333442Y1070198D01*
G01X5330394Y1061054D01*
G01X5415992Y1104234D02*
G01X5406848Y1101186D01*
G01X5403800Y1095090D01*
G01X5403800Y1088740D01*
G01X5406848Y1082644D01*
G01X5412944Y1079596D01*
G01X5425390Y1076548D01*
G01X5434788Y1073246D01*
G01X5440884Y1067150D01*
G01X5443932Y1061054D01*
G01X5443932Y1051656D01*
G01X5440884Y1045560D01*
G01X5437836Y1042258D01*
G01X5428438Y1039210D01*
G01X5415992Y1039210D01*
G01X5406848Y1042258D01*
G01X5403800Y1045560D01*
G01X5400752Y1051656D01*
G01X5400752Y1061054D01*
G01X5403800Y1067150D01*
G01X5409896Y1073246D01*
G01X5419294Y1076548D01*
G01X5431486Y1079596D01*
G01X5437836Y1082644D01*
G01X5440884Y1088740D01*
G01X5440884Y1095090D01*
G01X5437836Y1101186D01*
G01X5428438Y1104234D01*
G01X5415992Y1104234D01*
G01X4719320Y1104234D02*
G01X4719320Y1039210D01*
G01X4719320Y1039210D02*
G01X4756404Y1039210D01*
G01X4786630Y1104234D02*
G01X4786630Y1039210D01*
G01X4786630Y1104234D02*
G01X4826762Y1104234D01*
G01X4786630Y1073246D02*
G01X4811268Y1073246D01*
G01X4786630Y1039210D02*
G01X4826762Y1039210D01*
G01X4856988Y1104234D02*
G01X4856988Y1039210D01*
G01X4856988Y1104234D02*
G01X4878578Y1104234D01*
G01X4887722Y1101186D01*
G01X4894072Y1095090D01*
G01X4897120Y1088740D01*
G01X4900168Y1079596D01*
G01X4900168Y1064102D01*
G01X4897120Y1054704D01*
G01X4894072Y1048608D01*
G01X4887722Y1042258D01*
G01X4878578Y1039210D01*
G01X4856988Y1039210D01*
G01X4967478Y1095090D02*
G01X4964430Y1101186D01*
G01X4955032Y1104234D01*
G01X4948936Y1104234D01*
G01X4939538Y1101186D01*
G01X4933442Y1091788D01*
G01X4930394Y1076548D01*
G01X4930394Y1061054D01*
G01X4933442Y1048608D01*
G01X4939538Y1042258D01*
G01X4948936Y1039210D01*
G01X4951984Y1039210D01*
G01X4961128Y1042258D01*
G01X4967478Y1048608D01*
G01X4970526Y1057752D01*
G01X4970526Y1061054D01*
G01X4967478Y1070198D01*
G01X4961128Y1076548D01*
G01X4951984Y1079596D01*
G01X4948936Y1079596D01*
G01X4939538Y1076548D01*
G01X4933442Y1070198D01*
G01X4930394Y1061054D01*
G01X5043932Y1104234D02*
G01X5012944Y1039210D01*
G01X5000752Y1104234D02*
G01X5043932Y1104234D01*
G01X7519320Y1504234D02*
G01X7519320Y1439210D01*
G01X7519320Y1439210D02*
G01X7556404Y1439210D01*
G01X7586630Y1504234D02*
G01X7586630Y1439210D01*
G01X7586630Y1504234D02*
G01X7626762Y1504234D01*
G01X7586630Y1473246D02*
G01X7611268Y1473246D01*
G01X7586630Y1439210D02*
G01X7626762Y1439210D01*
G01X7656988Y1504234D02*
G01X7656988Y1439210D01*
G01X7656988Y1504234D02*
G01X7678578Y1504234D01*
G01X7687722Y1501186D01*
G01X7694072Y1495090D01*
G01X7697120Y1488740D01*
G01X7700168Y1479596D01*
G01X7700168Y1464102D01*
G01X7697120Y1454704D01*
G01X7694072Y1448608D01*
G01X7687722Y1442258D01*
G01X7678578Y1439210D01*
G01X7656988Y1439210D01*
G01X7767478Y1495090D02*
G01X7764430Y1501186D01*
G01X7755032Y1504234D01*
G01X7748936Y1504234D01*
G01X7739538Y1501186D01*
G01X7733442Y1491788D01*
G01X7730394Y1476548D01*
G01X7730394Y1461054D01*
G01X7733442Y1448608D01*
G01X7739538Y1442258D01*
G01X7748936Y1439210D01*
G01X7751984Y1439210D01*
G01X7761128Y1442258D01*
G01X7767478Y1448608D01*
G01X7770526Y1457752D01*
G01X7770526Y1461054D01*
G01X7767478Y1470198D01*
G01X7761128Y1476548D01*
G01X7751984Y1479596D01*
G01X7748936Y1479596D01*
G01X7739538Y1476548D01*
G01X7733442Y1470198D01*
G01X7730394Y1461054D01*
G01X7837836Y1495090D02*
G01X7834788Y1501186D01*
G01X7825390Y1504234D01*
G01X7819294Y1504234D01*
G01X7809896Y1501186D01*
G01X7803800Y1491788D01*
G01X7800752Y1476548D01*
G01X7800752Y1461054D01*
G01X7803800Y1448608D01*
G01X7809896Y1442258D01*
G01X7819294Y1439210D01*
G01X7822342Y1439210D01*
G01X7831486Y1442258D01*
G01X7837836Y1448608D01*
G01X7840884Y1457752D01*
G01X7840884Y1461054D01*
G01X7837836Y1470198D01*
G01X7831486Y1476548D01*
G01X7822342Y1479596D01*
G01X7819294Y1479596D01*
G01X7809896Y1476548D01*
G01X7803800Y1470198D01*
G01X7800752Y1461054D01*
G01X7119320Y1504234D02*
G01X7119320Y1439210D01*
G01X7119320Y1439210D02*
G01X7156404Y1439210D01*
G01X7186630Y1504234D02*
G01X7186630Y1439210D01*
G01X7186630Y1504234D02*
G01X7226762Y1504234D01*
G01X7186630Y1473246D02*
G01X7211268Y1473246D01*
G01X7186630Y1439210D02*
G01X7226762Y1439210D01*
G01X7256988Y1504234D02*
G01X7256988Y1439210D01*
G01X7256988Y1504234D02*
G01X7278578Y1504234D01*
G01X7287722Y1501186D01*
G01X7294072Y1495090D01*
G01X7297120Y1488740D01*
G01X7300168Y1479596D01*
G01X7300168Y1464102D01*
G01X7297120Y1454704D01*
G01X7294072Y1448608D01*
G01X7287722Y1442258D01*
G01X7278578Y1439210D01*
G01X7256988Y1439210D01*
G01X7367478Y1495090D02*
G01X7364430Y1501186D01*
G01X7355032Y1504234D01*
G01X7348936Y1504234D01*
G01X7339538Y1501186D01*
G01X7333442Y1491788D01*
G01X7330394Y1476548D01*
G01X7330394Y1461054D01*
G01X7333442Y1448608D01*
G01X7339538Y1442258D01*
G01X7348936Y1439210D01*
G01X7351984Y1439210D01*
G01X7361128Y1442258D01*
G01X7367478Y1448608D01*
G01X7370526Y1457752D01*
G01X7370526Y1461054D01*
G01X7367478Y1470198D01*
G01X7361128Y1476548D01*
G01X7351984Y1479596D01*
G01X7348936Y1479596D01*
G01X7339538Y1476548D01*
G01X7333442Y1470198D01*
G01X7330394Y1461054D01*
G01X7437836Y1504234D02*
G01X7406848Y1504234D01*
G01X7403800Y1476548D01*
G01X7406848Y1479596D01*
G01X7415992Y1482644D01*
G01X7425390Y1482644D01*
G01X7434788Y1479596D01*
G01X7440884Y1473246D01*
G01X7443932Y1464102D01*
G01X7443932Y1457752D01*
G01X7440884Y1448608D01*
G01X7434788Y1442258D01*
G01X7425390Y1439210D01*
G01X7415992Y1439210D01*
G01X7406848Y1442258D01*
G01X7403800Y1445560D01*
G01X7400752Y1451656D01*
G01X6719320Y1504234D02*
G01X6719320Y1439210D01*
G01X6719320Y1439210D02*
G01X6756404Y1439210D01*
G01X6786630Y1504234D02*
G01X6786630Y1439210D01*
G01X6786630Y1504234D02*
G01X6826762Y1504234D01*
G01X6786630Y1473246D02*
G01X6811268Y1473246D01*
G01X6786630Y1439210D02*
G01X6826762Y1439210D01*
G01X6856988Y1504234D02*
G01X6856988Y1439210D01*
G01X6856988Y1504234D02*
G01X6878578Y1504234D01*
G01X6887722Y1501186D01*
G01X6894072Y1495090D01*
G01X6897120Y1488740D01*
G01X6900168Y1479596D01*
G01X6900168Y1464102D01*
G01X6897120Y1454704D01*
G01X6894072Y1448608D01*
G01X6887722Y1442258D01*
G01X6878578Y1439210D01*
G01X6856988Y1439210D01*
G01X6967478Y1495090D02*
G01X6964430Y1501186D01*
G01X6955032Y1504234D01*
G01X6948936Y1504234D01*
G01X6939538Y1501186D01*
G01X6933442Y1491788D01*
G01X6930394Y1476548D01*
G01X6930394Y1461054D01*
G01X6933442Y1448608D01*
G01X6939538Y1442258D01*
G01X6948936Y1439210D01*
G01X6951984Y1439210D01*
G01X6961128Y1442258D01*
G01X6967478Y1448608D01*
G01X6970526Y1457752D01*
G01X6970526Y1461054D01*
G01X6967478Y1470198D01*
G01X6961128Y1476548D01*
G01X6951984Y1479596D01*
G01X6948936Y1479596D01*
G01X6939538Y1476548D01*
G01X6933442Y1470198D01*
G01X6930394Y1461054D01*
G01X7031486Y1504234D02*
G01X7000752Y1461054D01*
G01X7046980Y1461054D01*
G01X7031486Y1504234D02*
G01X7031486Y1439210D01*
G01X6319320Y1504234D02*
G01X6319320Y1439210D01*
G01X6319320Y1439210D02*
G01X6356404Y1439210D01*
G01X6386630Y1504234D02*
G01X6386630Y1439210D01*
G01X6386630Y1504234D02*
G01X6426762Y1504234D01*
G01X6386630Y1473246D02*
G01X6411268Y1473246D01*
G01X6386630Y1439210D02*
G01X6426762Y1439210D01*
G01X6456988Y1504234D02*
G01X6456988Y1439210D01*
G01X6456988Y1504234D02*
G01X6478578Y1504234D01*
G01X6487722Y1501186D01*
G01X6494072Y1495090D01*
G01X6497120Y1488740D01*
G01X6500168Y1479596D01*
G01X6500168Y1464102D01*
G01X6497120Y1454704D01*
G01X6494072Y1448608D01*
G01X6487722Y1442258D01*
G01X6478578Y1439210D01*
G01X6456988Y1439210D01*
G01X6567478Y1495090D02*
G01X6564430Y1501186D01*
G01X6555032Y1504234D01*
G01X6548936Y1504234D01*
G01X6539538Y1501186D01*
G01X6533442Y1491788D01*
G01X6530394Y1476548D01*
G01X6530394Y1461054D01*
G01X6533442Y1448608D01*
G01X6539538Y1442258D01*
G01X6548936Y1439210D01*
G01X6551984Y1439210D01*
G01X6561128Y1442258D01*
G01X6567478Y1448608D01*
G01X6570526Y1457752D01*
G01X6570526Y1461054D01*
G01X6567478Y1470198D01*
G01X6561128Y1476548D01*
G01X6551984Y1479596D01*
G01X6548936Y1479596D01*
G01X6539538Y1476548D01*
G01X6533442Y1470198D01*
G01X6530394Y1461054D01*
G01X6606848Y1504234D02*
G01X6640884Y1504234D01*
G01X6622342Y1479596D01*
G01X6631486Y1479596D01*
G01X6637836Y1476548D01*
G01X6640884Y1473246D01*
G01X6643932Y1464102D01*
G01X6643932Y1457752D01*
G01X6640884Y1448608D01*
G01X6634788Y1442258D01*
G01X6625390Y1439210D01*
G01X6615992Y1439210D01*
G01X6606848Y1442258D01*
G01X6603800Y1445560D01*
G01X6600752Y1451656D01*
G01X5919320Y1504234D02*
G01X5919320Y1439210D01*
G01X5919320Y1439210D02*
G01X5956404Y1439210D01*
G01X5986630Y1504234D02*
G01X5986630Y1439210D01*
G01X5986630Y1504234D02*
G01X6026762Y1504234D01*
G01X5986630Y1473246D02*
G01X6011268Y1473246D01*
G01X5986630Y1439210D02*
G01X6026762Y1439210D01*
G01X6056988Y1504234D02*
G01X6056988Y1439210D01*
G01X6056988Y1504234D02*
G01X6078578Y1504234D01*
G01X6087722Y1501186D01*
G01X6094072Y1495090D01*
G01X6097120Y1488740D01*
G01X6100168Y1479596D01*
G01X6100168Y1464102D01*
G01X6097120Y1454704D01*
G01X6094072Y1448608D01*
G01X6087722Y1442258D01*
G01X6078578Y1439210D01*
G01X6056988Y1439210D01*
G01X6167478Y1495090D02*
G01X6164430Y1501186D01*
G01X6155032Y1504234D01*
G01X6148936Y1504234D01*
G01X6139538Y1501186D01*
G01X6133442Y1491788D01*
G01X6130394Y1476548D01*
G01X6130394Y1461054D01*
G01X6133442Y1448608D01*
G01X6139538Y1442258D01*
G01X6148936Y1439210D01*
G01X6151984Y1439210D01*
G01X6161128Y1442258D01*
G01X6167478Y1448608D01*
G01X6170526Y1457752D01*
G01X6170526Y1461054D01*
G01X6167478Y1470198D01*
G01X6161128Y1476548D01*
G01X6151984Y1479596D01*
G01X6148936Y1479596D01*
G01X6139538Y1476548D01*
G01X6133442Y1470198D01*
G01X6130394Y1461054D01*
G01X6203800Y1488740D02*
G01X6203800Y1491788D01*
G01X6206848Y1498138D01*
G01X6209896Y1501186D01*
G01X6215992Y1504234D01*
G01X6228438Y1504234D01*
G01X6234788Y1501186D01*
G01X6237836Y1498138D01*
G01X6240884Y1491788D01*
G01X6240884Y1485692D01*
G01X6237836Y1479596D01*
G01X6231486Y1470198D01*
G01X6200752Y1439210D01*
G01X6243932Y1439210D01*
G01X5519320Y1504234D02*
G01X5519320Y1439210D01*
G01X5519320Y1439210D02*
G01X5556404Y1439210D01*
G01X5586630Y1504234D02*
G01X5586630Y1439210D01*
G01X5586630Y1504234D02*
G01X5626762Y1504234D01*
G01X5586630Y1473246D02*
G01X5611268Y1473246D01*
G01X5586630Y1439210D02*
G01X5626762Y1439210D01*
G01X5656988Y1504234D02*
G01X5656988Y1439210D01*
G01X5656988Y1504234D02*
G01X5678578Y1504234D01*
G01X5687722Y1501186D01*
G01X5694072Y1495090D01*
G01X5697120Y1488740D01*
G01X5700168Y1479596D01*
G01X5700168Y1464102D01*
G01X5697120Y1454704D01*
G01X5694072Y1448608D01*
G01X5687722Y1442258D01*
G01X5678578Y1439210D01*
G01X5656988Y1439210D01*
G01X5767478Y1495090D02*
G01X5764430Y1501186D01*
G01X5755032Y1504234D01*
G01X5748936Y1504234D01*
G01X5739538Y1501186D01*
G01X5733442Y1491788D01*
G01X5730394Y1476548D01*
G01X5730394Y1461054D01*
G01X5733442Y1448608D01*
G01X5739538Y1442258D01*
G01X5748936Y1439210D01*
G01X5751984Y1439210D01*
G01X5761128Y1442258D01*
G01X5767478Y1448608D01*
G01X5770526Y1457752D01*
G01X5770526Y1461054D01*
G01X5767478Y1470198D01*
G01X5761128Y1476548D01*
G01X5751984Y1479596D01*
G01X5748936Y1479596D01*
G01X5739538Y1476548D01*
G01X5733442Y1470198D01*
G01X5730394Y1461054D01*
G01X5800752Y1491788D02*
G01X5806848Y1495090D01*
G01X5815992Y1504234D01*
G01X5815992Y1439210D01*
G01X5119320Y1504234D02*
G01X5119320Y1439210D01*
G01X5119320Y1439210D02*
G01X5156404Y1439210D01*
G01X5186630Y1504234D02*
G01X5186630Y1439210D01*
G01X5186630Y1504234D02*
G01X5226762Y1504234D01*
G01X5186630Y1473246D02*
G01X5211268Y1473246D01*
G01X5186630Y1439210D02*
G01X5226762Y1439210D01*
G01X5256988Y1504234D02*
G01X5256988Y1439210D01*
G01X5256988Y1504234D02*
G01X5278578Y1504234D01*
G01X5287722Y1501186D01*
G01X5294072Y1495090D01*
G01X5297120Y1488740D01*
G01X5300168Y1479596D01*
G01X5300168Y1464102D01*
G01X5297120Y1454704D01*
G01X5294072Y1448608D01*
G01X5287722Y1442258D01*
G01X5278578Y1439210D01*
G01X5256988Y1439210D01*
G01X5367478Y1495090D02*
G01X5364430Y1501186D01*
G01X5355032Y1504234D01*
G01X5348936Y1504234D01*
G01X5339538Y1501186D01*
G01X5333442Y1491788D01*
G01X5330394Y1476548D01*
G01X5330394Y1461054D01*
G01X5333442Y1448608D01*
G01X5339538Y1442258D01*
G01X5348936Y1439210D01*
G01X5351984Y1439210D01*
G01X5361128Y1442258D01*
G01X5367478Y1448608D01*
G01X5370526Y1457752D01*
G01X5370526Y1461054D01*
G01X5367478Y1470198D01*
G01X5361128Y1476548D01*
G01X5351984Y1479596D01*
G01X5348936Y1479596D01*
G01X5339538Y1476548D01*
G01X5333442Y1470198D01*
G01X5330394Y1461054D01*
G01X5419294Y1504234D02*
G01X5409896Y1501186D01*
G01X5403800Y1491788D01*
G01X5400752Y1476548D01*
G01X5400752Y1467150D01*
G01X5403800Y1451656D01*
G01X5409896Y1442258D01*
G01X5419294Y1439210D01*
G01X5425390Y1439210D01*
G01X5434788Y1442258D01*
G01X5440884Y1451656D01*
G01X5443932Y1467150D01*
G01X5443932Y1476548D01*
G01X5440884Y1491788D01*
G01X5434788Y1501186D01*
G01X5425390Y1504234D01*
G01X5419294Y1504234D01*
G01X4719320Y1504234D02*
G01X4719320Y1439210D01*
G01X4719320Y1439210D02*
G01X4756404Y1439210D01*
G01X4786630Y1504234D02*
G01X4786630Y1439210D01*
G01X4786630Y1504234D02*
G01X4826762Y1504234D01*
G01X4786630Y1473246D02*
G01X4811268Y1473246D01*
G01X4786630Y1439210D02*
G01X4826762Y1439210D01*
G01X4856988Y1504234D02*
G01X4856988Y1439210D01*
G01X4856988Y1504234D02*
G01X4878578Y1504234D01*
G01X4887722Y1501186D01*
G01X4894072Y1495090D01*
G01X4897120Y1488740D01*
G01X4900168Y1479596D01*
G01X4900168Y1464102D01*
G01X4897120Y1454704D01*
G01X4894072Y1448608D01*
G01X4887722Y1442258D01*
G01X4878578Y1439210D01*
G01X4856988Y1439210D01*
G01X4967478Y1504234D02*
G01X4936490Y1504234D01*
G01X4933442Y1476548D01*
G01X4936490Y1479596D01*
G01X4945634Y1482644D01*
G01X4955032Y1482644D01*
G01X4964430Y1479596D01*
G01X4970526Y1473246D01*
G01X4973574Y1464102D01*
G01X4973574Y1457752D01*
G01X4970526Y1448608D01*
G01X4964430Y1442258D01*
G01X4955032Y1439210D01*
G01X4945634Y1439210D01*
G01X4936490Y1442258D01*
G01X4933442Y1445560D01*
G01X4930394Y1451656D01*
G01X5043932Y1482644D02*
G01X5040884Y1473246D01*
G01X5034534Y1467150D01*
G01X5025390Y1464102D01*
G01X5022342Y1464102D01*
G01X5012944Y1467150D01*
G01X5006848Y1473246D01*
G01X5003800Y1482644D01*
G01X5003800Y1485692D01*
G01X5006848Y1495090D01*
G01X5012944Y1501186D01*
G01X5022342Y1504234D01*
G01X5025390Y1504234D01*
G01X5034534Y1501186D01*
G01X5040884Y1495090D01*
G01X5043932Y1482644D01*
G01X5043932Y1467150D01*
G01X5040884Y1451656D01*
G01X5034534Y1442258D01*
G01X5025390Y1439210D01*
G01X5019040Y1439210D01*
G01X5009896Y1442258D01*
G01X5006848Y1448608D01*
G01X7519320Y1904234D02*
G01X7519320Y1839210D01*
G01X7519320Y1839210D02*
G01X7556404Y1839210D01*
G01X7586630Y1904234D02*
G01X7586630Y1839210D01*
G01X7586630Y1904234D02*
G01X7626762Y1904234D01*
G01X7586630Y1873246D02*
G01X7611268Y1873246D01*
G01X7586630Y1839210D02*
G01X7626762Y1839210D01*
G01X7656988Y1904234D02*
G01X7656988Y1839210D01*
G01X7656988Y1904234D02*
G01X7678578Y1904234D01*
G01X7687722Y1901186D01*
G01X7694072Y1895090D01*
G01X7697120Y1888740D01*
G01X7700168Y1879596D01*
G01X7700168Y1864102D01*
G01X7697120Y1854704D01*
G01X7694072Y1848608D01*
G01X7687722Y1842258D01*
G01X7678578Y1839210D01*
G01X7656988Y1839210D01*
G01X7767478Y1904234D02*
G01X7736490Y1904234D01*
G01X7733442Y1876548D01*
G01X7736490Y1879596D01*
G01X7745634Y1882644D01*
G01X7755032Y1882644D01*
G01X7764430Y1879596D01*
G01X7770526Y1873246D01*
G01X7773574Y1864102D01*
G01X7773574Y1857752D01*
G01X7770526Y1848608D01*
G01X7764430Y1842258D01*
G01X7755032Y1839210D01*
G01X7745634Y1839210D01*
G01X7736490Y1842258D01*
G01X7733442Y1845560D01*
G01X7730394Y1851656D01*
G01X7819040Y1904234D02*
G01X7809896Y1901186D01*
G01X7806848Y1895090D01*
G01X7806848Y1888740D01*
G01X7809896Y1882644D01*
G01X7815992Y1879596D01*
G01X7828438Y1876548D01*
G01X7837836Y1873246D01*
G01X7843932Y1867150D01*
G01X7846980Y1861054D01*
G01X7846980Y1851656D01*
G01X7843932Y1845560D01*
G01X7840884Y1842258D01*
G01X7831486Y1839210D01*
G01X7819040Y1839210D01*
G01X7809896Y1842258D01*
G01X7806848Y1845560D01*
G01X7803800Y1851656D01*
G01X7803800Y1861054D01*
G01X7806848Y1867150D01*
G01X7812944Y1873246D01*
G01X7822342Y1876548D01*
G01X7834534Y1879596D01*
G01X7840884Y1882644D01*
G01X7843932Y1888740D01*
G01X7843932Y1895090D01*
G01X7840884Y1901186D01*
G01X7831486Y1904234D01*
G01X7819040Y1904234D01*
G01X7119320Y1904234D02*
G01X7119320Y1839210D01*
G01X7119320Y1839210D02*
G01X7156404Y1839210D01*
G01X7186630Y1904234D02*
G01X7186630Y1839210D01*
G01X7186630Y1904234D02*
G01X7226762Y1904234D01*
G01X7186630Y1873246D02*
G01X7211268Y1873246D01*
G01X7186630Y1839210D02*
G01X7226762Y1839210D01*
G01X7256988Y1904234D02*
G01X7256988Y1839210D01*
G01X7256988Y1904234D02*
G01X7278578Y1904234D01*
G01X7287722Y1901186D01*
G01X7294072Y1895090D01*
G01X7297120Y1888740D01*
G01X7300168Y1879596D01*
G01X7300168Y1864102D01*
G01X7297120Y1854704D01*
G01X7294072Y1848608D01*
G01X7287722Y1842258D01*
G01X7278578Y1839210D01*
G01X7256988Y1839210D01*
G01X7367478Y1904234D02*
G01X7336490Y1904234D01*
G01X7333442Y1876548D01*
G01X7336490Y1879596D01*
G01X7345634Y1882644D01*
G01X7355032Y1882644D01*
G01X7364430Y1879596D01*
G01X7370526Y1873246D01*
G01X7373574Y1864102D01*
G01X7373574Y1857752D01*
G01X7370526Y1848608D01*
G01X7364430Y1842258D01*
G01X7355032Y1839210D01*
G01X7345634Y1839210D01*
G01X7336490Y1842258D01*
G01X7333442Y1845560D01*
G01X7330394Y1851656D01*
G01X7446980Y1904234D02*
G01X7415992Y1839210D01*
G01X7403800Y1904234D02*
G01X7446980Y1904234D01*
G01X6719320Y1904234D02*
G01X6719320Y1839210D01*
G01X6719320Y1839210D02*
G01X6756404Y1839210D01*
G01X6786630Y1904234D02*
G01X6786630Y1839210D01*
G01X6786630Y1904234D02*
G01X6826762Y1904234D01*
G01X6786630Y1873246D02*
G01X6811268Y1873246D01*
G01X6786630Y1839210D02*
G01X6826762Y1839210D01*
G01X6856988Y1904234D02*
G01X6856988Y1839210D01*
G01X6856988Y1904234D02*
G01X6878578Y1904234D01*
G01X6887722Y1901186D01*
G01X6894072Y1895090D01*
G01X6897120Y1888740D01*
G01X6900168Y1879596D01*
G01X6900168Y1864102D01*
G01X6897120Y1854704D01*
G01X6894072Y1848608D01*
G01X6887722Y1842258D01*
G01X6878578Y1839210D01*
G01X6856988Y1839210D01*
G01X6967478Y1904234D02*
G01X6936490Y1904234D01*
G01X6933442Y1876548D01*
G01X6936490Y1879596D01*
G01X6945634Y1882644D01*
G01X6955032Y1882644D01*
G01X6964430Y1879596D01*
G01X6970526Y1873246D01*
G01X6973574Y1864102D01*
G01X6973574Y1857752D01*
G01X6970526Y1848608D01*
G01X6964430Y1842258D01*
G01X6955032Y1839210D01*
G01X6945634Y1839210D01*
G01X6936490Y1842258D01*
G01X6933442Y1845560D01*
G01X6930394Y1851656D01*
G01X7040884Y1895090D02*
G01X7037836Y1901186D01*
G01X7028438Y1904234D01*
G01X7022342Y1904234D01*
G01X7012944Y1901186D01*
G01X7006848Y1891788D01*
G01X7003800Y1876548D01*
G01X7003800Y1861054D01*
G01X7006848Y1848608D01*
G01X7012944Y1842258D01*
G01X7022342Y1839210D01*
G01X7025390Y1839210D01*
G01X7034534Y1842258D01*
G01X7040884Y1848608D01*
G01X7043932Y1857752D01*
G01X7043932Y1861054D01*
G01X7040884Y1870198D01*
G01X7034534Y1876548D01*
G01X7025390Y1879596D01*
G01X7022342Y1879596D01*
G01X7012944Y1876548D01*
G01X7006848Y1870198D01*
G01X7003800Y1861054D01*
G01X6319320Y1904234D02*
G01X6319320Y1839210D01*
G01X6319320Y1839210D02*
G01X6356404Y1839210D01*
G01X6386630Y1904234D02*
G01X6386630Y1839210D01*
G01X6386630Y1904234D02*
G01X6426762Y1904234D01*
G01X6386630Y1873246D02*
G01X6411268Y1873246D01*
G01X6386630Y1839210D02*
G01X6426762Y1839210D01*
G01X6456988Y1904234D02*
G01X6456988Y1839210D01*
G01X6456988Y1904234D02*
G01X6478578Y1904234D01*
G01X6487722Y1901186D01*
G01X6494072Y1895090D01*
G01X6497120Y1888740D01*
G01X6500168Y1879596D01*
G01X6500168Y1864102D01*
G01X6497120Y1854704D01*
G01X6494072Y1848608D01*
G01X6487722Y1842258D01*
G01X6478578Y1839210D01*
G01X6456988Y1839210D01*
G01X6567478Y1904234D02*
G01X6536490Y1904234D01*
G01X6533442Y1876548D01*
G01X6536490Y1879596D01*
G01X6545634Y1882644D01*
G01X6555032Y1882644D01*
G01X6564430Y1879596D01*
G01X6570526Y1873246D01*
G01X6573574Y1864102D01*
G01X6573574Y1857752D01*
G01X6570526Y1848608D01*
G01X6564430Y1842258D01*
G01X6555032Y1839210D01*
G01X6545634Y1839210D01*
G01X6536490Y1842258D01*
G01X6533442Y1845560D01*
G01X6530394Y1851656D01*
G01X6640884Y1904234D02*
G01X6609896Y1904234D01*
G01X6606848Y1876548D01*
G01X6609896Y1879596D01*
G01X6619040Y1882644D01*
G01X6628438Y1882644D01*
G01X6637836Y1879596D01*
G01X6643932Y1873246D01*
G01X6646980Y1864102D01*
G01X6646980Y1857752D01*
G01X6643932Y1848608D01*
G01X6637836Y1842258D01*
G01X6628438Y1839210D01*
G01X6619040Y1839210D01*
G01X6609896Y1842258D01*
G01X6606848Y1845560D01*
G01X6603800Y1851656D01*
G01X5919320Y1904234D02*
G01X5919320Y1839210D01*
G01X5919320Y1839210D02*
G01X5956404Y1839210D01*
G01X5986630Y1904234D02*
G01X5986630Y1839210D01*
G01X5986630Y1904234D02*
G01X6026762Y1904234D01*
G01X5986630Y1873246D02*
G01X6011268Y1873246D01*
G01X5986630Y1839210D02*
G01X6026762Y1839210D01*
G01X6056988Y1904234D02*
G01X6056988Y1839210D01*
G01X6056988Y1904234D02*
G01X6078578Y1904234D01*
G01X6087722Y1901186D01*
G01X6094072Y1895090D01*
G01X6097120Y1888740D01*
G01X6100168Y1879596D01*
G01X6100168Y1864102D01*
G01X6097120Y1854704D01*
G01X6094072Y1848608D01*
G01X6087722Y1842258D01*
G01X6078578Y1839210D01*
G01X6056988Y1839210D01*
G01X6167478Y1904234D02*
G01X6136490Y1904234D01*
G01X6133442Y1876548D01*
G01X6136490Y1879596D01*
G01X6145634Y1882644D01*
G01X6155032Y1882644D01*
G01X6164430Y1879596D01*
G01X6170526Y1873246D01*
G01X6173574Y1864102D01*
G01X6173574Y1857752D01*
G01X6170526Y1848608D01*
G01X6164430Y1842258D01*
G01X6155032Y1839210D01*
G01X6145634Y1839210D01*
G01X6136490Y1842258D01*
G01X6133442Y1845560D01*
G01X6130394Y1851656D01*
G01X6234534Y1904234D02*
G01X6203800Y1861054D01*
G01X6250028Y1861054D01*
G01X6234534Y1904234D02*
G01X6234534Y1839210D01*
G01X5519320Y1904234D02*
G01X5519320Y1839210D01*
G01X5519320Y1839210D02*
G01X5556404Y1839210D01*
G01X5586630Y1904234D02*
G01X5586630Y1839210D01*
G01X5586630Y1904234D02*
G01X5626762Y1904234D01*
G01X5586630Y1873246D02*
G01X5611268Y1873246D01*
G01X5586630Y1839210D02*
G01X5626762Y1839210D01*
G01X5656988Y1904234D02*
G01X5656988Y1839210D01*
G01X5656988Y1904234D02*
G01X5678578Y1904234D01*
G01X5687722Y1901186D01*
G01X5694072Y1895090D01*
G01X5697120Y1888740D01*
G01X5700168Y1879596D01*
G01X5700168Y1864102D01*
G01X5697120Y1854704D01*
G01X5694072Y1848608D01*
G01X5687722Y1842258D01*
G01X5678578Y1839210D01*
G01X5656988Y1839210D01*
G01X5767478Y1904234D02*
G01X5736490Y1904234D01*
G01X5733442Y1876548D01*
G01X5736490Y1879596D01*
G01X5745634Y1882644D01*
G01X5755032Y1882644D01*
G01X5764430Y1879596D01*
G01X5770526Y1873246D01*
G01X5773574Y1864102D01*
G01X5773574Y1857752D01*
G01X5770526Y1848608D01*
G01X5764430Y1842258D01*
G01X5755032Y1839210D01*
G01X5745634Y1839210D01*
G01X5736490Y1842258D01*
G01X5733442Y1845560D01*
G01X5730394Y1851656D01*
G01X5809896Y1904234D02*
G01X5843932Y1904234D01*
G01X5825390Y1879596D01*
G01X5834534Y1879596D01*
G01X5840884Y1876548D01*
G01X5843932Y1873246D01*
G01X5846980Y1864102D01*
G01X5846980Y1857752D01*
G01X5843932Y1848608D01*
G01X5837836Y1842258D01*
G01X5828438Y1839210D01*
G01X5819040Y1839210D01*
G01X5809896Y1842258D01*
G01X5806848Y1845560D01*
G01X5803800Y1851656D01*
G01X5119320Y1904234D02*
G01X5119320Y1839210D01*
G01X5119320Y1839210D02*
G01X5156404Y1839210D01*
G01X5186630Y1904234D02*
G01X5186630Y1839210D01*
G01X5186630Y1904234D02*
G01X5226762Y1904234D01*
G01X5186630Y1873246D02*
G01X5211268Y1873246D01*
G01X5186630Y1839210D02*
G01X5226762Y1839210D01*
G01X5256988Y1904234D02*
G01X5256988Y1839210D01*
G01X5256988Y1904234D02*
G01X5278578Y1904234D01*
G01X5287722Y1901186D01*
G01X5294072Y1895090D01*
G01X5297120Y1888740D01*
G01X5300168Y1879596D01*
G01X5300168Y1864102D01*
G01X5297120Y1854704D01*
G01X5294072Y1848608D01*
G01X5287722Y1842258D01*
G01X5278578Y1839210D01*
G01X5256988Y1839210D01*
G01X5367478Y1904234D02*
G01X5336490Y1904234D01*
G01X5333442Y1876548D01*
G01X5336490Y1879596D01*
G01X5345634Y1882644D01*
G01X5355032Y1882644D01*
G01X5364430Y1879596D01*
G01X5370526Y1873246D01*
G01X5373574Y1864102D01*
G01X5373574Y1857752D01*
G01X5370526Y1848608D01*
G01X5364430Y1842258D01*
G01X5355032Y1839210D01*
G01X5345634Y1839210D01*
G01X5336490Y1842258D01*
G01X5333442Y1845560D01*
G01X5330394Y1851656D01*
G01X5406848Y1888740D02*
G01X5406848Y1891788D01*
G01X5409896Y1898138D01*
G01X5412944Y1901186D01*
G01X5419040Y1904234D01*
G01X5431486Y1904234D01*
G01X5437836Y1901186D01*
G01X5440884Y1898138D01*
G01X5443932Y1891788D01*
G01X5443932Y1885692D01*
G01X5440884Y1879596D01*
G01X5434534Y1870198D01*
G01X5403800Y1839210D01*
G01X5446980Y1839210D01*
G01X4719320Y1904234D02*
G01X4719320Y1839210D01*
G01X4719320Y1839210D02*
G01X4756404Y1839210D01*
G01X4786630Y1904234D02*
G01X4786630Y1839210D01*
G01X4786630Y1904234D02*
G01X4826762Y1904234D01*
G01X4786630Y1873246D02*
G01X4811268Y1873246D01*
G01X4786630Y1839210D02*
G01X4826762Y1839210D01*
G01X4856988Y1904234D02*
G01X4856988Y1839210D01*
G01X4856988Y1904234D02*
G01X4878578Y1904234D01*
G01X4887722Y1901186D01*
G01X4894072Y1895090D01*
G01X4897120Y1888740D01*
G01X4900168Y1879596D01*
G01X4900168Y1864102D01*
G01X4897120Y1854704D01*
G01X4894072Y1848608D01*
G01X4887722Y1842258D01*
G01X4878578Y1839210D01*
G01X4856988Y1839210D01*
G01X4967478Y1904234D02*
G01X4936490Y1904234D01*
G01X4933442Y1876548D01*
G01X4936490Y1879596D01*
G01X4945634Y1882644D01*
G01X4955032Y1882644D01*
G01X4964430Y1879596D01*
G01X4970526Y1873246D01*
G01X4973574Y1864102D01*
G01X4973574Y1857752D01*
G01X4970526Y1848608D01*
G01X4964430Y1842258D01*
G01X4955032Y1839210D01*
G01X4945634Y1839210D01*
G01X4936490Y1842258D01*
G01X4933442Y1845560D01*
G01X4930394Y1851656D01*
G01X5003800Y1891788D02*
G01X5009896Y1895090D01*
G01X5019040Y1904234D01*
G01X5019040Y1839210D01*
G01X7519320Y2304234D02*
G01X7519320Y2239210D01*
G01X7519320Y2239210D02*
G01X7556404Y2239210D01*
G01X7586630Y2304234D02*
G01X7586630Y2239210D01*
G01X7586630Y2304234D02*
G01X7626762Y2304234D01*
G01X7586630Y2273246D02*
G01X7611268Y2273246D01*
G01X7586630Y2239210D02*
G01X7626762Y2239210D01*
G01X7656988Y2304234D02*
G01X7656988Y2239210D01*
G01X7656988Y2304234D02*
G01X7678578Y2304234D01*
G01X7687722Y2301186D01*
G01X7694072Y2295090D01*
G01X7697120Y2288740D01*
G01X7700168Y2279596D01*
G01X7700168Y2264102D01*
G01X7697120Y2254704D01*
G01X7694072Y2248608D01*
G01X7687722Y2242258D01*
G01X7678578Y2239210D01*
G01X7656988Y2239210D01*
G01X7767478Y2304234D02*
G01X7736490Y2304234D01*
G01X7733442Y2276548D01*
G01X7736490Y2279596D01*
G01X7745634Y2282644D01*
G01X7755032Y2282644D01*
G01X7764430Y2279596D01*
G01X7770526Y2273246D01*
G01X7773574Y2264102D01*
G01X7773574Y2257752D01*
G01X7770526Y2248608D01*
G01X7764430Y2242258D01*
G01X7755032Y2239210D01*
G01X7745634Y2239210D01*
G01X7736490Y2242258D01*
G01X7733442Y2245560D01*
G01X7730394Y2251656D01*
G01X7822342Y2304234D02*
G01X7812944Y2301186D01*
G01X7806848Y2291788D01*
G01X7803800Y2276548D01*
G01X7803800Y2267150D01*
G01X7806848Y2251656D01*
G01X7812944Y2242258D01*
G01X7822342Y2239210D01*
G01X7828438Y2239210D01*
G01X7837836Y2242258D01*
G01X7843932Y2251656D01*
G01X7846980Y2267150D01*
G01X7846980Y2276548D01*
G01X7843932Y2291788D01*
G01X7837836Y2301186D01*
G01X7828438Y2304234D01*
G01X7822342Y2304234D01*
G01X7119320Y2304234D02*
G01X7119320Y2239210D01*
G01X7119320Y2239210D02*
G01X7156404Y2239210D01*
G01X7186630Y2304234D02*
G01X7186630Y2239210D01*
G01X7186630Y2304234D02*
G01X7226762Y2304234D01*
G01X7186630Y2273246D02*
G01X7211268Y2273246D01*
G01X7186630Y2239210D02*
G01X7226762Y2239210D01*
G01X7256988Y2304234D02*
G01X7256988Y2239210D01*
G01X7256988Y2304234D02*
G01X7278578Y2304234D01*
G01X7287722Y2301186D01*
G01X7294072Y2295090D01*
G01X7297120Y2288740D01*
G01X7300168Y2279596D01*
G01X7300168Y2264102D01*
G01X7297120Y2254704D01*
G01X7294072Y2248608D01*
G01X7287722Y2242258D01*
G01X7278578Y2239210D01*
G01X7256988Y2239210D01*
G01X7361128Y2304234D02*
G01X7330394Y2261054D01*
G01X7376622Y2261054D01*
G01X7361128Y2304234D02*
G01X7361128Y2239210D01*
G01X7446980Y2282644D02*
G01X7443932Y2273246D01*
G01X7437582Y2267150D01*
G01X7428438Y2264102D01*
G01X7425390Y2264102D01*
G01X7415992Y2267150D01*
G01X7409896Y2273246D01*
G01X7406848Y2282644D01*
G01X7406848Y2285692D01*
G01X7409896Y2295090D01*
G01X7415992Y2301186D01*
G01X7425390Y2304234D01*
G01X7428438Y2304234D01*
G01X7437582Y2301186D01*
G01X7443932Y2295090D01*
G01X7446980Y2282644D01*
G01X7446980Y2267150D01*
G01X7443932Y2251656D01*
G01X7437582Y2242258D01*
G01X7428438Y2239210D01*
G01X7422088Y2239210D01*
G01X7412944Y2242258D01*
G01X7409896Y2248608D01*
G01X6719320Y2304234D02*
G01X6719320Y2239210D01*
G01X6719320Y2239210D02*
G01X6756404Y2239210D01*
G01X6786630Y2304234D02*
G01X6786630Y2239210D01*
G01X6786630Y2304234D02*
G01X6826762Y2304234D01*
G01X6786630Y2273246D02*
G01X6811268Y2273246D01*
G01X6786630Y2239210D02*
G01X6826762Y2239210D01*
G01X6856988Y2304234D02*
G01X6856988Y2239210D01*
G01X6856988Y2304234D02*
G01X6878578Y2304234D01*
G01X6887722Y2301186D01*
G01X6894072Y2295090D01*
G01X6897120Y2288740D01*
G01X6900168Y2279596D01*
G01X6900168Y2264102D01*
G01X6897120Y2254704D01*
G01X6894072Y2248608D01*
G01X6887722Y2242258D01*
G01X6878578Y2239210D01*
G01X6856988Y2239210D01*
G01X6961128Y2304234D02*
G01X6930394Y2261054D01*
G01X6976622Y2261054D01*
G01X6961128Y2304234D02*
G01X6961128Y2239210D01*
G01X7022088Y2304234D02*
G01X7012944Y2301186D01*
G01X7009896Y2295090D01*
G01X7009896Y2288740D01*
G01X7012944Y2282644D01*
G01X7019040Y2279596D01*
G01X7031486Y2276548D01*
G01X7040884Y2273246D01*
G01X7046980Y2267150D01*
G01X7050028Y2261054D01*
G01X7050028Y2251656D01*
G01X7046980Y2245560D01*
G01X7043932Y2242258D01*
G01X7034534Y2239210D01*
G01X7022088Y2239210D01*
G01X7012944Y2242258D01*
G01X7009896Y2245560D01*
G01X7006848Y2251656D01*
G01X7006848Y2261054D01*
G01X7009896Y2267150D01*
G01X7015992Y2273246D01*
G01X7025390Y2276548D01*
G01X7037582Y2279596D01*
G01X7043932Y2282644D01*
G01X7046980Y2288740D01*
G01X7046980Y2295090D01*
G01X7043932Y2301186D01*
G01X7034534Y2304234D01*
G01X7022088Y2304234D01*
G01X6319320Y2304234D02*
G01X6319320Y2239210D01*
G01X6319320Y2239210D02*
G01X6356404Y2239210D01*
G01X6386630Y2304234D02*
G01X6386630Y2239210D01*
G01X6386630Y2304234D02*
G01X6426762Y2304234D01*
G01X6386630Y2273246D02*
G01X6411268Y2273246D01*
G01X6386630Y2239210D02*
G01X6426762Y2239210D01*
G01X6456988Y2304234D02*
G01X6456988Y2239210D01*
G01X6456988Y2304234D02*
G01X6478578Y2304234D01*
G01X6487722Y2301186D01*
G01X6494072Y2295090D01*
G01X6497120Y2288740D01*
G01X6500168Y2279596D01*
G01X6500168Y2264102D01*
G01X6497120Y2254704D01*
G01X6494072Y2248608D01*
G01X6487722Y2242258D01*
G01X6478578Y2239210D01*
G01X6456988Y2239210D01*
G01X6561128Y2304234D02*
G01X6530394Y2261054D01*
G01X6576622Y2261054D01*
G01X6561128Y2304234D02*
G01X6561128Y2239210D01*
G01X6650028Y2304234D02*
G01X6619040Y2239210D01*
G01X6606848Y2304234D02*
G01X6650028Y2304234D01*
G01X5919320Y2304234D02*
G01X5919320Y2239210D01*
G01X5919320Y2239210D02*
G01X5956404Y2239210D01*
G01X5986630Y2304234D02*
G01X5986630Y2239210D01*
G01X5986630Y2304234D02*
G01X6026762Y2304234D01*
G01X5986630Y2273246D02*
G01X6011268Y2273246D01*
G01X5986630Y2239210D02*
G01X6026762Y2239210D01*
G01X6056988Y2304234D02*
G01X6056988Y2239210D01*
G01X6056988Y2304234D02*
G01X6078578Y2304234D01*
G01X6087722Y2301186D01*
G01X6094072Y2295090D01*
G01X6097120Y2288740D01*
G01X6100168Y2279596D01*
G01X6100168Y2264102D01*
G01X6097120Y2254704D01*
G01X6094072Y2248608D01*
G01X6087722Y2242258D01*
G01X6078578Y2239210D01*
G01X6056988Y2239210D01*
G01X6161128Y2304234D02*
G01X6130394Y2261054D01*
G01X6176622Y2261054D01*
G01X6161128Y2304234D02*
G01X6161128Y2239210D01*
G01X6243932Y2295090D02*
G01X6240884Y2301186D01*
G01X6231486Y2304234D01*
G01X6225390Y2304234D01*
G01X6215992Y2301186D01*
G01X6209896Y2291788D01*
G01X6206848Y2276548D01*
G01X6206848Y2261054D01*
G01X6209896Y2248608D01*
G01X6215992Y2242258D01*
G01X6225390Y2239210D01*
G01X6228438Y2239210D01*
G01X6237582Y2242258D01*
G01X6243932Y2248608D01*
G01X6246980Y2257752D01*
G01X6246980Y2261054D01*
G01X6243932Y2270198D01*
G01X6237582Y2276548D01*
G01X6228438Y2279596D01*
G01X6225390Y2279596D01*
G01X6215992Y2276548D01*
G01X6209896Y2270198D01*
G01X6206848Y2261054D01*
G01X5519320Y2304234D02*
G01X5519320Y2239210D01*
G01X5519320Y2239210D02*
G01X5556404Y2239210D01*
G01X5586630Y2304234D02*
G01X5586630Y2239210D01*
G01X5586630Y2304234D02*
G01X5626762Y2304234D01*
G01X5586630Y2273246D02*
G01X5611268Y2273246D01*
G01X5586630Y2239210D02*
G01X5626762Y2239210D01*
G01X5656988Y2304234D02*
G01X5656988Y2239210D01*
G01X5656988Y2304234D02*
G01X5678578Y2304234D01*
G01X5687722Y2301186D01*
G01X5694072Y2295090D01*
G01X5697120Y2288740D01*
G01X5700168Y2279596D01*
G01X5700168Y2264102D01*
G01X5697120Y2254704D01*
G01X5694072Y2248608D01*
G01X5687722Y2242258D01*
G01X5678578Y2239210D01*
G01X5656988Y2239210D01*
G01X5761128Y2304234D02*
G01X5730394Y2261054D01*
G01X5776622Y2261054D01*
G01X5761128Y2304234D02*
G01X5761128Y2239210D01*
G01X5843932Y2304234D02*
G01X5812944Y2304234D01*
G01X5809896Y2276548D01*
G01X5812944Y2279596D01*
G01X5822088Y2282644D01*
G01X5831486Y2282644D01*
G01X5840884Y2279596D01*
G01X5846980Y2273246D01*
G01X5850028Y2264102D01*
G01X5850028Y2257752D01*
G01X5846980Y2248608D01*
G01X5840884Y2242258D01*
G01X5831486Y2239210D01*
G01X5822088Y2239210D01*
G01X5812944Y2242258D01*
G01X5809896Y2245560D01*
G01X5806848Y2251656D01*
G01X5119320Y2304234D02*
G01X5119320Y2239210D01*
G01X5119320Y2239210D02*
G01X5156404Y2239210D01*
G01X5186630Y2304234D02*
G01X5186630Y2239210D01*
G01X5186630Y2304234D02*
G01X5226762Y2304234D01*
G01X5186630Y2273246D02*
G01X5211268Y2273246D01*
G01X5186630Y2239210D02*
G01X5226762Y2239210D01*
G01X5256988Y2304234D02*
G01X5256988Y2239210D01*
G01X5256988Y2304234D02*
G01X5278578Y2304234D01*
G01X5287722Y2301186D01*
G01X5294072Y2295090D01*
G01X5297120Y2288740D01*
G01X5300168Y2279596D01*
G01X5300168Y2264102D01*
G01X5297120Y2254704D01*
G01X5294072Y2248608D01*
G01X5287722Y2242258D01*
G01X5278578Y2239210D01*
G01X5256988Y2239210D01*
G01X5361128Y2304234D02*
G01X5330394Y2261054D01*
G01X5376622Y2261054D01*
G01X5361128Y2304234D02*
G01X5361128Y2239210D01*
G01X5437582Y2304234D02*
G01X5406848Y2261054D01*
G01X5453076Y2261054D01*
G01X5437582Y2304234D02*
G01X5437582Y2239210D01*
G01X4719320Y2304234D02*
G01X4719320Y2239210D01*
G01X4719320Y2239210D02*
G01X4756404Y2239210D01*
G01X4786630Y2304234D02*
G01X4786630Y2239210D01*
G01X4786630Y2304234D02*
G01X4826762Y2304234D01*
G01X4786630Y2273246D02*
G01X4811268Y2273246D01*
G01X4786630Y2239210D02*
G01X4826762Y2239210D01*
G01X4856988Y2304234D02*
G01X4856988Y2239210D01*
G01X4856988Y2304234D02*
G01X4878578Y2304234D01*
G01X4887722Y2301186D01*
G01X4894072Y2295090D01*
G01X4897120Y2288740D01*
G01X4900168Y2279596D01*
G01X4900168Y2264102D01*
G01X4897120Y2254704D01*
G01X4894072Y2248608D01*
G01X4887722Y2242258D01*
G01X4878578Y2239210D01*
G01X4856988Y2239210D01*
G01X4961128Y2304234D02*
G01X4930394Y2261054D01*
G01X4976622Y2261054D01*
G01X4961128Y2304234D02*
G01X4961128Y2239210D01*
G01X5012944Y2304234D02*
G01X5046980Y2304234D01*
G01X5028438Y2279596D01*
G01X5037582Y2279596D01*
G01X5043932Y2276548D01*
G01X5046980Y2273246D01*
G01X5050028Y2264102D01*
G01X5050028Y2257752D01*
G01X5046980Y2248608D01*
G01X5040884Y2242258D01*
G01X5031486Y2239210D01*
G01X5022088Y2239210D01*
G01X5012944Y2242258D01*
G01X5009896Y2245560D01*
G01X5006848Y2251656D01*
G01X7519320Y2704234D02*
G01X7519320Y2639210D01*
G01X7519320Y2639210D02*
G01X7556404Y2639210D01*
G01X7586630Y2704234D02*
G01X7586630Y2639210D01*
G01X7586630Y2704234D02*
G01X7626762Y2704234D01*
G01X7586630Y2673246D02*
G01X7611268Y2673246D01*
G01X7586630Y2639210D02*
G01X7626762Y2639210D01*
G01X7656988Y2704234D02*
G01X7656988Y2639210D01*
G01X7656988Y2704234D02*
G01X7678578Y2704234D01*
G01X7687722Y2701186D01*
G01X7694072Y2695090D01*
G01X7697120Y2688740D01*
G01X7700168Y2679596D01*
G01X7700168Y2664102D01*
G01X7697120Y2654704D01*
G01X7694072Y2648608D01*
G01X7687722Y2642258D01*
G01X7678578Y2639210D01*
G01X7656988Y2639210D01*
G01X7761128Y2704234D02*
G01X7730394Y2661054D01*
G01X7776622Y2661054D01*
G01X7761128Y2704234D02*
G01X7761128Y2639210D01*
G01X7809896Y2688740D02*
G01X7809896Y2691788D01*
G01X7812944Y2698138D01*
G01X7815992Y2701186D01*
G01X7822088Y2704234D01*
G01X7834534Y2704234D01*
G01X7840884Y2701186D01*
G01X7843932Y2698138D01*
G01X7846980Y2691788D01*
G01X7846980Y2685692D01*
G01X7843932Y2679596D01*
G01X7837582Y2670198D01*
G01X7806848Y2639210D01*
G01X7850028Y2639210D01*
G01X7119320Y2704234D02*
G01X7119320Y2639210D01*
G01X7119320Y2639210D02*
G01X7156404Y2639210D01*
G01X7186630Y2704234D02*
G01X7186630Y2639210D01*
G01X7186630Y2704234D02*
G01X7226762Y2704234D01*
G01X7186630Y2673246D02*
G01X7211268Y2673246D01*
G01X7186630Y2639210D02*
G01X7226762Y2639210D01*
G01X7256988Y2704234D02*
G01X7256988Y2639210D01*
G01X7256988Y2704234D02*
G01X7278578Y2704234D01*
G01X7287722Y2701186D01*
G01X7294072Y2695090D01*
G01X7297120Y2688740D01*
G01X7300168Y2679596D01*
G01X7300168Y2664102D01*
G01X7297120Y2654704D01*
G01X7294072Y2648608D01*
G01X7287722Y2642258D01*
G01X7278578Y2639210D01*
G01X7256988Y2639210D01*
G01X7361128Y2704234D02*
G01X7330394Y2661054D01*
G01X7376622Y2661054D01*
G01X7361128Y2704234D02*
G01X7361128Y2639210D01*
G01X7406848Y2691788D02*
G01X7412944Y2695090D01*
G01X7422088Y2704234D01*
G01X7422088Y2639210D01*
G01X6719320Y2704234D02*
G01X6719320Y2639210D01*
G01X6719320Y2639210D02*
G01X6756404Y2639210D01*
G01X6786630Y2704234D02*
G01X6786630Y2639210D01*
G01X6786630Y2704234D02*
G01X6826762Y2704234D01*
G01X6786630Y2673246D02*
G01X6811268Y2673246D01*
G01X6786630Y2639210D02*
G01X6826762Y2639210D01*
G01X6856988Y2704234D02*
G01X6856988Y2639210D01*
G01X6856988Y2704234D02*
G01X6878578Y2704234D01*
G01X6887722Y2701186D01*
G01X6894072Y2695090D01*
G01X6897120Y2688740D01*
G01X6900168Y2679596D01*
G01X6900168Y2664102D01*
G01X6897120Y2654704D01*
G01X6894072Y2648608D01*
G01X6887722Y2642258D01*
G01X6878578Y2639210D01*
G01X6856988Y2639210D01*
G01X6961128Y2704234D02*
G01X6930394Y2661054D01*
G01X6976622Y2661054D01*
G01X6961128Y2704234D02*
G01X6961128Y2639210D01*
G01X7025390Y2704234D02*
G01X7015992Y2701186D01*
G01X7009896Y2691788D01*
G01X7006848Y2676548D01*
G01X7006848Y2667150D01*
G01X7009896Y2651656D01*
G01X7015992Y2642258D01*
G01X7025390Y2639210D01*
G01X7031486Y2639210D01*
G01X7040884Y2642258D01*
G01X7046980Y2651656D01*
G01X7050028Y2667150D01*
G01X7050028Y2676548D01*
G01X7046980Y2691788D01*
G01X7040884Y2701186D01*
G01X7031486Y2704234D01*
G01X7025390Y2704234D01*
G01X6319320Y2704234D02*
G01X6319320Y2639210D01*
G01X6319320Y2639210D02*
G01X6356404Y2639210D01*
G01X6386630Y2704234D02*
G01X6386630Y2639210D01*
G01X6386630Y2704234D02*
G01X6426762Y2704234D01*
G01X6386630Y2673246D02*
G01X6411268Y2673246D01*
G01X6386630Y2639210D02*
G01X6426762Y2639210D01*
G01X6456988Y2704234D02*
G01X6456988Y2639210D01*
G01X6456988Y2704234D02*
G01X6478578Y2704234D01*
G01X6487722Y2701186D01*
G01X6494072Y2695090D01*
G01X6497120Y2688740D01*
G01X6500168Y2679596D01*
G01X6500168Y2664102D01*
G01X6497120Y2654704D01*
G01X6494072Y2648608D01*
G01X6487722Y2642258D01*
G01X6478578Y2639210D01*
G01X6456988Y2639210D01*
G01X6536490Y2704234D02*
G01X6570526Y2704234D01*
G01X6551984Y2679596D01*
G01X6561128Y2679596D01*
G01X6567478Y2676548D01*
G01X6570526Y2673246D01*
G01X6573574Y2664102D01*
G01X6573574Y2657752D01*
G01X6570526Y2648608D01*
G01X6564430Y2642258D01*
G01X6555032Y2639210D01*
G01X6545634Y2639210D01*
G01X6536490Y2642258D01*
G01X6533442Y2645560D01*
G01X6530394Y2651656D01*
G01X6643932Y2682644D02*
G01X6640884Y2673246D01*
G01X6634534Y2667150D01*
G01X6625390Y2664102D01*
G01X6622342Y2664102D01*
G01X6612944Y2667150D01*
G01X6606848Y2673246D01*
G01X6603800Y2682644D01*
G01X6603800Y2685692D01*
G01X6606848Y2695090D01*
G01X6612944Y2701186D01*
G01X6622342Y2704234D01*
G01X6625390Y2704234D01*
G01X6634534Y2701186D01*
G01X6640884Y2695090D01*
G01X6643932Y2682644D01*
G01X6643932Y2667150D01*
G01X6640884Y2651656D01*
G01X6634534Y2642258D01*
G01X6625390Y2639210D01*
G01X6619040Y2639210D01*
G01X6609896Y2642258D01*
G01X6606848Y2648608D01*
G01X5919320Y2704234D02*
G01X5919320Y2639210D01*
G01X5919320Y2639210D02*
G01X5956404Y2639210D01*
G01X5986630Y2704234D02*
G01X5986630Y2639210D01*
G01X5986630Y2704234D02*
G01X6026762Y2704234D01*
G01X5986630Y2673246D02*
G01X6011268Y2673246D01*
G01X5986630Y2639210D02*
G01X6026762Y2639210D01*
G01X6056988Y2704234D02*
G01X6056988Y2639210D01*
G01X6056988Y2704234D02*
G01X6078578Y2704234D01*
G01X6087722Y2701186D01*
G01X6094072Y2695090D01*
G01X6097120Y2688740D01*
G01X6100168Y2679596D01*
G01X6100168Y2664102D01*
G01X6097120Y2654704D01*
G01X6094072Y2648608D01*
G01X6087722Y2642258D01*
G01X6078578Y2639210D01*
G01X6056988Y2639210D01*
G01X6136490Y2704234D02*
G01X6170526Y2704234D01*
G01X6151984Y2679596D01*
G01X6161128Y2679596D01*
G01X6167478Y2676548D01*
G01X6170526Y2673246D01*
G01X6173574Y2664102D01*
G01X6173574Y2657752D01*
G01X6170526Y2648608D01*
G01X6164430Y2642258D01*
G01X6155032Y2639210D01*
G01X6145634Y2639210D01*
G01X6136490Y2642258D01*
G01X6133442Y2645560D01*
G01X6130394Y2651656D01*
G01X6219040Y2704234D02*
G01X6209896Y2701186D01*
G01X6206848Y2695090D01*
G01X6206848Y2688740D01*
G01X6209896Y2682644D01*
G01X6215992Y2679596D01*
G01X6228438Y2676548D01*
G01X6237836Y2673246D01*
G01X6243932Y2667150D01*
G01X6246980Y2661054D01*
G01X6246980Y2651656D01*
G01X6243932Y2645560D01*
G01X6240884Y2642258D01*
G01X6231486Y2639210D01*
G01X6219040Y2639210D01*
G01X6209896Y2642258D01*
G01X6206848Y2645560D01*
G01X6203800Y2651656D01*
G01X6203800Y2661054D01*
G01X6206848Y2667150D01*
G01X6212944Y2673246D01*
G01X6222342Y2676548D01*
G01X6234534Y2679596D01*
G01X6240884Y2682644D01*
G01X6243932Y2688740D01*
G01X6243932Y2695090D01*
G01X6240884Y2701186D01*
G01X6231486Y2704234D01*
G01X6219040Y2704234D01*
G01X5519320Y2704234D02*
G01X5519320Y2639210D01*
G01X5519320Y2639210D02*
G01X5556404Y2639210D01*
G01X5586630Y2704234D02*
G01X5586630Y2639210D01*
G01X5586630Y2704234D02*
G01X5626762Y2704234D01*
G01X5586630Y2673246D02*
G01X5611268Y2673246D01*
G01X5586630Y2639210D02*
G01X5626762Y2639210D01*
G01X5656988Y2704234D02*
G01X5656988Y2639210D01*
G01X5656988Y2704234D02*
G01X5678578Y2704234D01*
G01X5687722Y2701186D01*
G01X5694072Y2695090D01*
G01X5697120Y2688740D01*
G01X5700168Y2679596D01*
G01X5700168Y2664102D01*
G01X5697120Y2654704D01*
G01X5694072Y2648608D01*
G01X5687722Y2642258D01*
G01X5678578Y2639210D01*
G01X5656988Y2639210D01*
G01X5736490Y2704234D02*
G01X5770526Y2704234D01*
G01X5751984Y2679596D01*
G01X5761128Y2679596D01*
G01X5767478Y2676548D01*
G01X5770526Y2673246D01*
G01X5773574Y2664102D01*
G01X5773574Y2657752D01*
G01X5770526Y2648608D01*
G01X5764430Y2642258D01*
G01X5755032Y2639210D01*
G01X5745634Y2639210D01*
G01X5736490Y2642258D01*
G01X5733442Y2645560D01*
G01X5730394Y2651656D01*
G01X5846980Y2704234D02*
G01X5815992Y2639210D01*
G01X5803800Y2704234D02*
G01X5846980Y2704234D01*
G01X5119320Y2704234D02*
G01X5119320Y2639210D01*
G01X5119320Y2639210D02*
G01X5156404Y2639210D01*
G01X5186630Y2704234D02*
G01X5186630Y2639210D01*
G01X5186630Y2704234D02*
G01X5226762Y2704234D01*
G01X5186630Y2673246D02*
G01X5211268Y2673246D01*
G01X5186630Y2639210D02*
G01X5226762Y2639210D01*
G01X5256988Y2704234D02*
G01X5256988Y2639210D01*
G01X5256988Y2704234D02*
G01X5278578Y2704234D01*
G01X5287722Y2701186D01*
G01X5294072Y2695090D01*
G01X5297120Y2688740D01*
G01X5300168Y2679596D01*
G01X5300168Y2664102D01*
G01X5297120Y2654704D01*
G01X5294072Y2648608D01*
G01X5287722Y2642258D01*
G01X5278578Y2639210D01*
G01X5256988Y2639210D01*
G01X5336490Y2704234D02*
G01X5370526Y2704234D01*
G01X5351984Y2679596D01*
G01X5361128Y2679596D01*
G01X5367478Y2676548D01*
G01X5370526Y2673246D01*
G01X5373574Y2664102D01*
G01X5373574Y2657752D01*
G01X5370526Y2648608D01*
G01X5364430Y2642258D01*
G01X5355032Y2639210D01*
G01X5345634Y2639210D01*
G01X5336490Y2642258D01*
G01X5333442Y2645560D01*
G01X5330394Y2651656D01*
G01X5440884Y2695090D02*
G01X5437836Y2701186D01*
G01X5428438Y2704234D01*
G01X5422342Y2704234D01*
G01X5412944Y2701186D01*
G01X5406848Y2691788D01*
G01X5403800Y2676548D01*
G01X5403800Y2661054D01*
G01X5406848Y2648608D01*
G01X5412944Y2642258D01*
G01X5422342Y2639210D01*
G01X5425390Y2639210D01*
G01X5434534Y2642258D01*
G01X5440884Y2648608D01*
G01X5443932Y2657752D01*
G01X5443932Y2661054D01*
G01X5440884Y2670198D01*
G01X5434534Y2676548D01*
G01X5425390Y2679596D01*
G01X5422342Y2679596D01*
G01X5412944Y2676548D01*
G01X5406848Y2670198D01*
G01X5403800Y2661054D01*
G01X4719320Y2704234D02*
G01X4719320Y2639210D01*
G01X4719320Y2639210D02*
G01X4756404Y2639210D01*
G01X4786630Y2704234D02*
G01X4786630Y2639210D01*
G01X4786630Y2704234D02*
G01X4826762Y2704234D01*
G01X4786630Y2673246D02*
G01X4811268Y2673246D01*
G01X4786630Y2639210D02*
G01X4826762Y2639210D01*
G01X4856988Y2704234D02*
G01X4856988Y2639210D01*
G01X4856988Y2704234D02*
G01X4878578Y2704234D01*
G01X4887722Y2701186D01*
G01X4894072Y2695090D01*
G01X4897120Y2688740D01*
G01X4900168Y2679596D01*
G01X4900168Y2664102D01*
G01X4897120Y2654704D01*
G01X4894072Y2648608D01*
G01X4887722Y2642258D01*
G01X4878578Y2639210D01*
G01X4856988Y2639210D01*
G01X4936490Y2704234D02*
G01X4970526Y2704234D01*
G01X4951984Y2679596D01*
G01X4961128Y2679596D01*
G01X4967478Y2676548D01*
G01X4970526Y2673246D01*
G01X4973574Y2664102D01*
G01X4973574Y2657752D01*
G01X4970526Y2648608D01*
G01X4964430Y2642258D01*
G01X4955032Y2639210D01*
G01X4945634Y2639210D01*
G01X4936490Y2642258D01*
G01X4933442Y2645560D01*
G01X4930394Y2651656D01*
G01X5040884Y2704234D02*
G01X5009896Y2704234D01*
G01X5006848Y2676548D01*
G01X5009896Y2679596D01*
G01X5019040Y2682644D01*
G01X5028438Y2682644D01*
G01X5037836Y2679596D01*
G01X5043932Y2673246D01*
G01X5046980Y2664102D01*
G01X5046980Y2657752D01*
G01X5043932Y2648608D01*
G01X5037836Y2642258D01*
G01X5028438Y2639210D01*
G01X5019040Y2639210D01*
G01X5009896Y2642258D01*
G01X5006848Y2645560D01*
G01X5003800Y2651656D01*
G01X7519320Y3104234D02*
G01X7519320Y3039210D01*
G01X7519320Y3039210D02*
G01X7556404Y3039210D01*
G01X7586630Y3104234D02*
G01X7586630Y3039210D01*
G01X7586630Y3104234D02*
G01X7626762Y3104234D01*
G01X7586630Y3073246D02*
G01X7611268Y3073246D01*
G01X7586630Y3039210D02*
G01X7626762Y3039210D01*
G01X7656988Y3104234D02*
G01X7656988Y3039210D01*
G01X7656988Y3104234D02*
G01X7678578Y3104234D01*
G01X7687722Y3101186D01*
G01X7694072Y3095090D01*
G01X7697120Y3088740D01*
G01X7700168Y3079596D01*
G01X7700168Y3064102D01*
G01X7697120Y3054704D01*
G01X7694072Y3048608D01*
G01X7687722Y3042258D01*
G01X7678578Y3039210D01*
G01X7656988Y3039210D01*
G01X7736490Y3104234D02*
G01X7770526Y3104234D01*
G01X7751984Y3079596D01*
G01X7761128Y3079596D01*
G01X7767478Y3076548D01*
G01X7770526Y3073246D01*
G01X7773574Y3064102D01*
G01X7773574Y3057752D01*
G01X7770526Y3048608D01*
G01X7764430Y3042258D01*
G01X7755032Y3039210D01*
G01X7745634Y3039210D01*
G01X7736490Y3042258D01*
G01X7733442Y3045560D01*
G01X7730394Y3051656D01*
G01X7834534Y3104234D02*
G01X7803800Y3061054D01*
G01X7850028Y3061054D01*
G01X7834534Y3104234D02*
G01X7834534Y3039210D01*
G01X7119320Y3104234D02*
G01X7119320Y3039210D01*
G01X7119320Y3039210D02*
G01X7156404Y3039210D01*
G01X7186630Y3104234D02*
G01X7186630Y3039210D01*
G01X7186630Y3104234D02*
G01X7226762Y3104234D01*
G01X7186630Y3073246D02*
G01X7211268Y3073246D01*
G01X7186630Y3039210D02*
G01X7226762Y3039210D01*
G01X7256988Y3104234D02*
G01X7256988Y3039210D01*
G01X7256988Y3104234D02*
G01X7278578Y3104234D01*
G01X7287722Y3101186D01*
G01X7294072Y3095090D01*
G01X7297120Y3088740D01*
G01X7300168Y3079596D01*
G01X7300168Y3064102D01*
G01X7297120Y3054704D01*
G01X7294072Y3048608D01*
G01X7287722Y3042258D01*
G01X7278578Y3039210D01*
G01X7256988Y3039210D01*
G01X7336490Y3104234D02*
G01X7370526Y3104234D01*
G01X7351984Y3079596D01*
G01X7361128Y3079596D01*
G01X7367478Y3076548D01*
G01X7370526Y3073246D01*
G01X7373574Y3064102D01*
G01X7373574Y3057752D01*
G01X7370526Y3048608D01*
G01X7364430Y3042258D01*
G01X7355032Y3039210D01*
G01X7345634Y3039210D01*
G01X7336490Y3042258D01*
G01X7333442Y3045560D01*
G01X7330394Y3051656D01*
G01X7409896Y3104234D02*
G01X7443932Y3104234D01*
G01X7425390Y3079596D01*
G01X7434534Y3079596D01*
G01X7440884Y3076548D01*
G01X7443932Y3073246D01*
G01X7446980Y3064102D01*
G01X7446980Y3057752D01*
G01X7443932Y3048608D01*
G01X7437836Y3042258D01*
G01X7428438Y3039210D01*
G01X7419040Y3039210D01*
G01X7409896Y3042258D01*
G01X7406848Y3045560D01*
G01X7403800Y3051656D01*
G01X6719320Y3104234D02*
G01X6719320Y3039210D01*
G01X6719320Y3039210D02*
G01X6756404Y3039210D01*
G01X6786630Y3104234D02*
G01X6786630Y3039210D01*
G01X6786630Y3104234D02*
G01X6826762Y3104234D01*
G01X6786630Y3073246D02*
G01X6811268Y3073246D01*
G01X6786630Y3039210D02*
G01X6826762Y3039210D01*
G01X6856988Y3104234D02*
G01X6856988Y3039210D01*
G01X6856988Y3104234D02*
G01X6878578Y3104234D01*
G01X6887722Y3101186D01*
G01X6894072Y3095090D01*
G01X6897120Y3088740D01*
G01X6900168Y3079596D01*
G01X6900168Y3064102D01*
G01X6897120Y3054704D01*
G01X6894072Y3048608D01*
G01X6887722Y3042258D01*
G01X6878578Y3039210D01*
G01X6856988Y3039210D01*
G01X6936490Y3104234D02*
G01X6970526Y3104234D01*
G01X6951984Y3079596D01*
G01X6961128Y3079596D01*
G01X6967478Y3076548D01*
G01X6970526Y3073246D01*
G01X6973574Y3064102D01*
G01X6973574Y3057752D01*
G01X6970526Y3048608D01*
G01X6964430Y3042258D01*
G01X6955032Y3039210D01*
G01X6945634Y3039210D01*
G01X6936490Y3042258D01*
G01X6933442Y3045560D01*
G01X6930394Y3051656D01*
G01X7006848Y3088740D02*
G01X7006848Y3091788D01*
G01X7009896Y3098138D01*
G01X7012944Y3101186D01*
G01X7019040Y3104234D01*
G01X7031486Y3104234D01*
G01X7037836Y3101186D01*
G01X7040884Y3098138D01*
G01X7043932Y3091788D01*
G01X7043932Y3085692D01*
G01X7040884Y3079596D01*
G01X7034534Y3070198D01*
G01X7003800Y3039210D01*
G01X7046980Y3039210D01*
G01X6319320Y3104234D02*
G01X6319320Y3039210D01*
G01X6319320Y3039210D02*
G01X6356404Y3039210D01*
G01X6386630Y3104234D02*
G01X6386630Y3039210D01*
G01X6386630Y3104234D02*
G01X6426762Y3104234D01*
G01X6386630Y3073246D02*
G01X6411268Y3073246D01*
G01X6386630Y3039210D02*
G01X6426762Y3039210D01*
G01X6456988Y3104234D02*
G01X6456988Y3039210D01*
G01X6456988Y3104234D02*
G01X6478578Y3104234D01*
G01X6487722Y3101186D01*
G01X6494072Y3095090D01*
G01X6497120Y3088740D01*
G01X6500168Y3079596D01*
G01X6500168Y3064102D01*
G01X6497120Y3054704D01*
G01X6494072Y3048608D01*
G01X6487722Y3042258D01*
G01X6478578Y3039210D01*
G01X6456988Y3039210D01*
G01X6536490Y3104234D02*
G01X6570526Y3104234D01*
G01X6551984Y3079596D01*
G01X6561128Y3079596D01*
G01X6567478Y3076548D01*
G01X6570526Y3073246D01*
G01X6573574Y3064102D01*
G01X6573574Y3057752D01*
G01X6570526Y3048608D01*
G01X6564430Y3042258D01*
G01X6555032Y3039210D01*
G01X6545634Y3039210D01*
G01X6536490Y3042258D01*
G01X6533442Y3045560D01*
G01X6530394Y3051656D01*
G01X6603800Y3091788D02*
G01X6609896Y3095090D01*
G01X6619040Y3104234D01*
G01X6619040Y3039210D01*
G01X5919320Y3104234D02*
G01X5919320Y3039210D01*
G01X5919320Y3039210D02*
G01X5956404Y3039210D01*
G01X5986630Y3104234D02*
G01X5986630Y3039210D01*
G01X5986630Y3104234D02*
G01X6026762Y3104234D01*
G01X5986630Y3073246D02*
G01X6011268Y3073246D01*
G01X5986630Y3039210D02*
G01X6026762Y3039210D01*
G01X6056988Y3104234D02*
G01X6056988Y3039210D01*
G01X6056988Y3104234D02*
G01X6078578Y3104234D01*
G01X6087722Y3101186D01*
G01X6094072Y3095090D01*
G01X6097120Y3088740D01*
G01X6100168Y3079596D01*
G01X6100168Y3064102D01*
G01X6097120Y3054704D01*
G01X6094072Y3048608D01*
G01X6087722Y3042258D01*
G01X6078578Y3039210D01*
G01X6056988Y3039210D01*
G01X6136490Y3104234D02*
G01X6170526Y3104234D01*
G01X6151984Y3079596D01*
G01X6161128Y3079596D01*
G01X6167478Y3076548D01*
G01X6170526Y3073246D01*
G01X6173574Y3064102D01*
G01X6173574Y3057752D01*
G01X6170526Y3048608D01*
G01X6164430Y3042258D01*
G01X6155032Y3039210D01*
G01X6145634Y3039210D01*
G01X6136490Y3042258D01*
G01X6133442Y3045560D01*
G01X6130394Y3051656D01*
G01X6222342Y3104234D02*
G01X6212944Y3101186D01*
G01X6206848Y3091788D01*
G01X6203800Y3076548D01*
G01X6203800Y3067150D01*
G01X6206848Y3051656D01*
G01X6212944Y3042258D01*
G01X6222342Y3039210D01*
G01X6228438Y3039210D01*
G01X6237836Y3042258D01*
G01X6243932Y3051656D01*
G01X6246980Y3067150D01*
G01X6246980Y3076548D01*
G01X6243932Y3091788D01*
G01X6237836Y3101186D01*
G01X6228438Y3104234D01*
G01X6222342Y3104234D01*
G01X5519320Y3104234D02*
G01X5519320Y3039210D01*
G01X5519320Y3039210D02*
G01X5556404Y3039210D01*
G01X5586630Y3104234D02*
G01X5586630Y3039210D01*
G01X5586630Y3104234D02*
G01X5626762Y3104234D01*
G01X5586630Y3073246D02*
G01X5611268Y3073246D01*
G01X5586630Y3039210D02*
G01X5626762Y3039210D01*
G01X5656988Y3104234D02*
G01X5656988Y3039210D01*
G01X5656988Y3104234D02*
G01X5678578Y3104234D01*
G01X5687722Y3101186D01*
G01X5694072Y3095090D01*
G01X5697120Y3088740D01*
G01X5700168Y3079596D01*
G01X5700168Y3064102D01*
G01X5697120Y3054704D01*
G01X5694072Y3048608D01*
G01X5687722Y3042258D01*
G01X5678578Y3039210D01*
G01X5656988Y3039210D01*
G01X5733442Y3088740D02*
G01X5733442Y3091788D01*
G01X5736490Y3098138D01*
G01X5739538Y3101186D01*
G01X5745634Y3104234D01*
G01X5758080Y3104234D01*
G01X5764430Y3101186D01*
G01X5767478Y3098138D01*
G01X5770526Y3091788D01*
G01X5770526Y3085692D01*
G01X5767478Y3079596D01*
G01X5761128Y3070198D01*
G01X5730394Y3039210D01*
G01X5773574Y3039210D01*
G01X5843932Y3082644D02*
G01X5840884Y3073246D01*
G01X5834534Y3067150D01*
G01X5825390Y3064102D01*
G01X5822342Y3064102D01*
G01X5812944Y3067150D01*
G01X5806848Y3073246D01*
G01X5803800Y3082644D01*
G01X5803800Y3085692D01*
G01X5806848Y3095090D01*
G01X5812944Y3101186D01*
G01X5822342Y3104234D01*
G01X5825390Y3104234D01*
G01X5834534Y3101186D01*
G01X5840884Y3095090D01*
G01X5843932Y3082644D01*
G01X5843932Y3067150D01*
G01X5840884Y3051656D01*
G01X5834534Y3042258D01*
G01X5825390Y3039210D01*
G01X5819040Y3039210D01*
G01X5809896Y3042258D01*
G01X5806848Y3048608D01*
G01X5119320Y3104234D02*
G01X5119320Y3039210D01*
G01X5119320Y3039210D02*
G01X5156404Y3039210D01*
G01X5186630Y3104234D02*
G01X5186630Y3039210D01*
G01X5186630Y3104234D02*
G01X5226762Y3104234D01*
G01X5186630Y3073246D02*
G01X5211268Y3073246D01*
G01X5186630Y3039210D02*
G01X5226762Y3039210D01*
G01X5256988Y3104234D02*
G01X5256988Y3039210D01*
G01X5256988Y3104234D02*
G01X5278578Y3104234D01*
G01X5287722Y3101186D01*
G01X5294072Y3095090D01*
G01X5297120Y3088740D01*
G01X5300168Y3079596D01*
G01X5300168Y3064102D01*
G01X5297120Y3054704D01*
G01X5294072Y3048608D01*
G01X5287722Y3042258D01*
G01X5278578Y3039210D01*
G01X5256988Y3039210D01*
G01X5333442Y3088740D02*
G01X5333442Y3091788D01*
G01X5336490Y3098138D01*
G01X5339538Y3101186D01*
G01X5345634Y3104234D01*
G01X5358080Y3104234D01*
G01X5364430Y3101186D01*
G01X5367478Y3098138D01*
G01X5370526Y3091788D01*
G01X5370526Y3085692D01*
G01X5367478Y3079596D01*
G01X5361128Y3070198D01*
G01X5330394Y3039210D01*
G01X5373574Y3039210D01*
G01X5419040Y3104234D02*
G01X5409896Y3101186D01*
G01X5406848Y3095090D01*
G01X5406848Y3088740D01*
G01X5409896Y3082644D01*
G01X5415992Y3079596D01*
G01X5428438Y3076548D01*
G01X5437836Y3073246D01*
G01X5443932Y3067150D01*
G01X5446980Y3061054D01*
G01X5446980Y3051656D01*
G01X5443932Y3045560D01*
G01X5440884Y3042258D01*
G01X5431486Y3039210D01*
G01X5419040Y3039210D01*
G01X5409896Y3042258D01*
G01X5406848Y3045560D01*
G01X5403800Y3051656D01*
G01X5403800Y3061054D01*
G01X5406848Y3067150D01*
G01X5412944Y3073246D01*
G01X5422342Y3076548D01*
G01X5434534Y3079596D01*
G01X5440884Y3082644D01*
G01X5443932Y3088740D01*
G01X5443932Y3095090D01*
G01X5440884Y3101186D01*
G01X5431486Y3104234D01*
G01X5419040Y3104234D01*
G01X4719320Y3104234D02*
G01X4719320Y3039210D01*
G01X4719320Y3039210D02*
G01X4756404Y3039210D01*
G01X4786630Y3104234D02*
G01X4786630Y3039210D01*
G01X4786630Y3104234D02*
G01X4826762Y3104234D01*
G01X4786630Y3073246D02*
G01X4811268Y3073246D01*
G01X4786630Y3039210D02*
G01X4826762Y3039210D01*
G01X4856988Y3104234D02*
G01X4856988Y3039210D01*
G01X4856988Y3104234D02*
G01X4878578Y3104234D01*
G01X4887722Y3101186D01*
G01X4894072Y3095090D01*
G01X4897120Y3088740D01*
G01X4900168Y3079596D01*
G01X4900168Y3064102D01*
G01X4897120Y3054704D01*
G01X4894072Y3048608D01*
G01X4887722Y3042258D01*
G01X4878578Y3039210D01*
G01X4856988Y3039210D01*
G01X4933442Y3088740D02*
G01X4933442Y3091788D01*
G01X4936490Y3098138D01*
G01X4939538Y3101186D01*
G01X4945634Y3104234D01*
G01X4958080Y3104234D01*
G01X4964430Y3101186D01*
G01X4967478Y3098138D01*
G01X4970526Y3091788D01*
G01X4970526Y3085692D01*
G01X4967478Y3079596D01*
G01X4961128Y3070198D01*
G01X4930394Y3039210D01*
G01X4973574Y3039210D01*
G01X5046980Y3104234D02*
G01X5015992Y3039210D01*
G01X5003800Y3104234D02*
G01X5046980Y3104234D01*
G01X7519320Y3504234D02*
G01X7519320Y3439210D01*
G01X7519320Y3439210D02*
G01X7556404Y3439210D01*
G01X7586630Y3504234D02*
G01X7586630Y3439210D01*
G01X7586630Y3504234D02*
G01X7626762Y3504234D01*
G01X7586630Y3473246D02*
G01X7611268Y3473246D01*
G01X7586630Y3439210D02*
G01X7626762Y3439210D01*
G01X7656988Y3504234D02*
G01X7656988Y3439210D01*
G01X7656988Y3504234D02*
G01X7678578Y3504234D01*
G01X7687722Y3501186D01*
G01X7694072Y3495090D01*
G01X7697120Y3488740D01*
G01X7700168Y3479596D01*
G01X7700168Y3464102D01*
G01X7697120Y3454704D01*
G01X7694072Y3448608D01*
G01X7687722Y3442258D01*
G01X7678578Y3439210D01*
G01X7656988Y3439210D01*
G01X7733442Y3488740D02*
G01X7733442Y3491788D01*
G01X7736490Y3498138D01*
G01X7739538Y3501186D01*
G01X7745634Y3504234D01*
G01X7758080Y3504234D01*
G01X7764430Y3501186D01*
G01X7767478Y3498138D01*
G01X7770526Y3491788D01*
G01X7770526Y3485692D01*
G01X7767478Y3479596D01*
G01X7761128Y3470198D01*
G01X7730394Y3439210D01*
G01X7773574Y3439210D01*
G01X7840884Y3495090D02*
G01X7837836Y3501186D01*
G01X7828438Y3504234D01*
G01X7822342Y3504234D01*
G01X7812944Y3501186D01*
G01X7806848Y3491788D01*
G01X7803800Y3476548D01*
G01X7803800Y3461054D01*
G01X7806848Y3448608D01*
G01X7812944Y3442258D01*
G01X7822342Y3439210D01*
G01X7825390Y3439210D01*
G01X7834534Y3442258D01*
G01X7840884Y3448608D01*
G01X7843932Y3457752D01*
G01X7843932Y3461054D01*
G01X7840884Y3470198D01*
G01X7834534Y3476548D01*
G01X7825390Y3479596D01*
G01X7822342Y3479596D01*
G01X7812944Y3476548D01*
G01X7806848Y3470198D01*
G01X7803800Y3461054D01*
G01X7119320Y3504234D02*
G01X7119320Y3439210D01*
G01X7119320Y3439210D02*
G01X7156404Y3439210D01*
G01X7186630Y3504234D02*
G01X7186630Y3439210D01*
G01X7186630Y3504234D02*
G01X7226762Y3504234D01*
G01X7186630Y3473246D02*
G01X7211268Y3473246D01*
G01X7186630Y3439210D02*
G01X7226762Y3439210D01*
G01X7256988Y3504234D02*
G01X7256988Y3439210D01*
G01X7256988Y3504234D02*
G01X7278578Y3504234D01*
G01X7287722Y3501186D01*
G01X7294072Y3495090D01*
G01X7297120Y3488740D01*
G01X7300168Y3479596D01*
G01X7300168Y3464102D01*
G01X7297120Y3454704D01*
G01X7294072Y3448608D01*
G01X7287722Y3442258D01*
G01X7278578Y3439210D01*
G01X7256988Y3439210D01*
G01X7333442Y3488740D02*
G01X7333442Y3491788D01*
G01X7336490Y3498138D01*
G01X7339538Y3501186D01*
G01X7345634Y3504234D01*
G01X7358080Y3504234D01*
G01X7364430Y3501186D01*
G01X7367478Y3498138D01*
G01X7370526Y3491788D01*
G01X7370526Y3485692D01*
G01X7367478Y3479596D01*
G01X7361128Y3470198D01*
G01X7330394Y3439210D01*
G01X7373574Y3439210D01*
G01X7440884Y3504234D02*
G01X7409896Y3504234D01*
G01X7406848Y3476548D01*
G01X7409896Y3479596D01*
G01X7419040Y3482644D01*
G01X7428438Y3482644D01*
G01X7437836Y3479596D01*
G01X7443932Y3473246D01*
G01X7446980Y3464102D01*
G01X7446980Y3457752D01*
G01X7443932Y3448608D01*
G01X7437836Y3442258D01*
G01X7428438Y3439210D01*
G01X7419040Y3439210D01*
G01X7409896Y3442258D01*
G01X7406848Y3445560D01*
G01X7403800Y3451656D01*
G01X6719320Y3504234D02*
G01X6719320Y3439210D01*
G01X6719320Y3439210D02*
G01X6756404Y3439210D01*
G01X6786630Y3504234D02*
G01X6786630Y3439210D01*
G01X6786630Y3504234D02*
G01X6826762Y3504234D01*
G01X6786630Y3473246D02*
G01X6811268Y3473246D01*
G01X6786630Y3439210D02*
G01X6826762Y3439210D01*
G01X6856988Y3504234D02*
G01X6856988Y3439210D01*
G01X6856988Y3504234D02*
G01X6878578Y3504234D01*
G01X6887722Y3501186D01*
G01X6894072Y3495090D01*
G01X6897120Y3488740D01*
G01X6900168Y3479596D01*
G01X6900168Y3464102D01*
G01X6897120Y3454704D01*
G01X6894072Y3448608D01*
G01X6887722Y3442258D01*
G01X6878578Y3439210D01*
G01X6856988Y3439210D01*
G01X6933442Y3488740D02*
G01X6933442Y3491788D01*
G01X6936490Y3498138D01*
G01X6939538Y3501186D01*
G01X6945634Y3504234D01*
G01X6958080Y3504234D01*
G01X6964430Y3501186D01*
G01X6967478Y3498138D01*
G01X6970526Y3491788D01*
G01X6970526Y3485692D01*
G01X6967478Y3479596D01*
G01X6961128Y3470198D01*
G01X6930394Y3439210D01*
G01X6973574Y3439210D01*
G01X7034534Y3504234D02*
G01X7003800Y3461054D01*
G01X7050028Y3461054D01*
G01X7034534Y3504234D02*
G01X7034534Y3439210D01*
G01X6319320Y3504234D02*
G01X6319320Y3439210D01*
G01X6319320Y3439210D02*
G01X6356404Y3439210D01*
G01X6386630Y3504234D02*
G01X6386630Y3439210D01*
G01X6386630Y3504234D02*
G01X6426762Y3504234D01*
G01X6386630Y3473246D02*
G01X6411268Y3473246D01*
G01X6386630Y3439210D02*
G01X6426762Y3439210D01*
G01X6456988Y3504234D02*
G01X6456988Y3439210D01*
G01X6456988Y3504234D02*
G01X6478578Y3504234D01*
G01X6487722Y3501186D01*
G01X6494072Y3495090D01*
G01X6497120Y3488740D01*
G01X6500168Y3479596D01*
G01X6500168Y3464102D01*
G01X6497120Y3454704D01*
G01X6494072Y3448608D01*
G01X6487722Y3442258D01*
G01X6478578Y3439210D01*
G01X6456988Y3439210D01*
G01X6533442Y3488740D02*
G01X6533442Y3491788D01*
G01X6536490Y3498138D01*
G01X6539538Y3501186D01*
G01X6545634Y3504234D01*
G01X6558080Y3504234D01*
G01X6564430Y3501186D01*
G01X6567478Y3498138D01*
G01X6570526Y3491788D01*
G01X6570526Y3485692D01*
G01X6567478Y3479596D01*
G01X6561128Y3470198D01*
G01X6530394Y3439210D01*
G01X6573574Y3439210D01*
G01X6609896Y3504234D02*
G01X6643932Y3504234D01*
G01X6625390Y3479596D01*
G01X6634534Y3479596D01*
G01X6640884Y3476548D01*
G01X6643932Y3473246D01*
G01X6646980Y3464102D01*
G01X6646980Y3457752D01*
G01X6643932Y3448608D01*
G01X6637836Y3442258D01*
G01X6628438Y3439210D01*
G01X6619040Y3439210D01*
G01X6609896Y3442258D01*
G01X6606848Y3445560D01*
G01X6603800Y3451656D01*
G01X5919320Y3504234D02*
G01X5919320Y3439210D01*
G01X5919320Y3439210D02*
G01X5956404Y3439210D01*
G01X5986630Y3504234D02*
G01X5986630Y3439210D01*
G01X5986630Y3504234D02*
G01X6026762Y3504234D01*
G01X5986630Y3473246D02*
G01X6011268Y3473246D01*
G01X5986630Y3439210D02*
G01X6026762Y3439210D01*
G01X6056988Y3504234D02*
G01X6056988Y3439210D01*
G01X6056988Y3504234D02*
G01X6078578Y3504234D01*
G01X6087722Y3501186D01*
G01X6094072Y3495090D01*
G01X6097120Y3488740D01*
G01X6100168Y3479596D01*
G01X6100168Y3464102D01*
G01X6097120Y3454704D01*
G01X6094072Y3448608D01*
G01X6087722Y3442258D01*
G01X6078578Y3439210D01*
G01X6056988Y3439210D01*
G01X6133442Y3488740D02*
G01X6133442Y3491788D01*
G01X6136490Y3498138D01*
G01X6139538Y3501186D01*
G01X6145634Y3504234D01*
G01X6158080Y3504234D01*
G01X6164430Y3501186D01*
G01X6167478Y3498138D01*
G01X6170526Y3491788D01*
G01X6170526Y3485692D01*
G01X6167478Y3479596D01*
G01X6161128Y3470198D01*
G01X6130394Y3439210D01*
G01X6173574Y3439210D01*
G01X6206848Y3488740D02*
G01X6206848Y3491788D01*
G01X6209896Y3498138D01*
G01X6212944Y3501186D01*
G01X6219040Y3504234D01*
G01X6231486Y3504234D01*
G01X6237836Y3501186D01*
G01X6240884Y3498138D01*
G01X6243932Y3491788D01*
G01X6243932Y3485692D01*
G01X6240884Y3479596D01*
G01X6234534Y3470198D01*
G01X6203800Y3439210D01*
G01X6246980Y3439210D01*
G01X5519320Y3504234D02*
G01X5519320Y3439210D01*
G01X5519320Y3439210D02*
G01X5556404Y3439210D01*
G01X5586630Y3504234D02*
G01X5586630Y3439210D01*
G01X5586630Y3504234D02*
G01X5626762Y3504234D01*
G01X5586630Y3473246D02*
G01X5611268Y3473246D01*
G01X5586630Y3439210D02*
G01X5626762Y3439210D01*
G01X5656988Y3504234D02*
G01X5656988Y3439210D01*
G01X5656988Y3504234D02*
G01X5678578Y3504234D01*
G01X5687722Y3501186D01*
G01X5694072Y3495090D01*
G01X5697120Y3488740D01*
G01X5700168Y3479596D01*
G01X5700168Y3464102D01*
G01X5697120Y3454704D01*
G01X5694072Y3448608D01*
G01X5687722Y3442258D01*
G01X5678578Y3439210D01*
G01X5656988Y3439210D01*
G01X5733442Y3488740D02*
G01X5733442Y3491788D01*
G01X5736490Y3498138D01*
G01X5739538Y3501186D01*
G01X5745634Y3504234D01*
G01X5758080Y3504234D01*
G01X5764430Y3501186D01*
G01X5767478Y3498138D01*
G01X5770526Y3491788D01*
G01X5770526Y3485692D01*
G01X5767478Y3479596D01*
G01X5761128Y3470198D01*
G01X5730394Y3439210D01*
G01X5773574Y3439210D01*
G01X5803800Y3491788D02*
G01X5809896Y3495090D01*
G01X5819040Y3504234D01*
G01X5819040Y3439210D01*
G01X5119320Y3504234D02*
G01X5119320Y3439210D01*
G01X5119320Y3439210D02*
G01X5156404Y3439210D01*
G01X5186630Y3504234D02*
G01X5186630Y3439210D01*
G01X5186630Y3504234D02*
G01X5226762Y3504234D01*
G01X5186630Y3473246D02*
G01X5211268Y3473246D01*
G01X5186630Y3439210D02*
G01X5226762Y3439210D01*
G01X5256988Y3504234D02*
G01X5256988Y3439210D01*
G01X5256988Y3504234D02*
G01X5278578Y3504234D01*
G01X5287722Y3501186D01*
G01X5294072Y3495090D01*
G01X5297120Y3488740D01*
G01X5300168Y3479596D01*
G01X5300168Y3464102D01*
G01X5297120Y3454704D01*
G01X5294072Y3448608D01*
G01X5287722Y3442258D01*
G01X5278578Y3439210D01*
G01X5256988Y3439210D01*
G01X5333442Y3488740D02*
G01X5333442Y3491788D01*
G01X5336490Y3498138D01*
G01X5339538Y3501186D01*
G01X5345634Y3504234D01*
G01X5358080Y3504234D01*
G01X5364430Y3501186D01*
G01X5367478Y3498138D01*
G01X5370526Y3491788D01*
G01X5370526Y3485692D01*
G01X5367478Y3479596D01*
G01X5361128Y3470198D01*
G01X5330394Y3439210D01*
G01X5373574Y3439210D01*
G01X5422342Y3504234D02*
G01X5412944Y3501186D01*
G01X5406848Y3491788D01*
G01X5403800Y3476548D01*
G01X5403800Y3467150D01*
G01X5406848Y3451656D01*
G01X5412944Y3442258D01*
G01X5422342Y3439210D01*
G01X5428438Y3439210D01*
G01X5437836Y3442258D01*
G01X5443932Y3451656D01*
G01X5446980Y3467150D01*
G01X5446980Y3476548D01*
G01X5443932Y3491788D01*
G01X5437836Y3501186D01*
G01X5428438Y3504234D01*
G01X5422342Y3504234D01*
G01X4719320Y3504234D02*
G01X4719320Y3439210D01*
G01X4719320Y3439210D02*
G01X4756404Y3439210D01*
G01X4786630Y3504234D02*
G01X4786630Y3439210D01*
G01X4786630Y3504234D02*
G01X4826762Y3504234D01*
G01X4786630Y3473246D02*
G01X4811268Y3473246D01*
G01X4786630Y3439210D02*
G01X4826762Y3439210D01*
G01X4856988Y3504234D02*
G01X4856988Y3439210D01*
G01X4856988Y3504234D02*
G01X4878578Y3504234D01*
G01X4887722Y3501186D01*
G01X4894072Y3495090D01*
G01X4897120Y3488740D01*
G01X4900168Y3479596D01*
G01X4900168Y3464102D01*
G01X4897120Y3454704D01*
G01X4894072Y3448608D01*
G01X4887722Y3442258D01*
G01X4878578Y3439210D01*
G01X4856988Y3439210D01*
G01X4930394Y3491788D02*
G01X4936490Y3495090D01*
G01X4945634Y3504234D01*
G01X4945634Y3439210D01*
G01X5015992Y3482644D02*
G01X5012944Y3473246D01*
G01X5006594Y3467150D01*
G01X4997450Y3464102D01*
G01X4994402Y3464102D01*
G01X4985004Y3467150D01*
G01X4978908Y3473246D01*
G01X4975860Y3482644D01*
G01X4975860Y3485692D01*
G01X4978908Y3495090D01*
G01X4985004Y3501186D01*
G01X4994402Y3504234D01*
G01X4997450Y3504234D01*
G01X5006594Y3501186D01*
G01X5012944Y3495090D01*
G01X5015992Y3482644D01*
G01X5015992Y3467150D01*
G01X5012944Y3451656D01*
G01X5006594Y3442258D01*
G01X4997450Y3439210D01*
G01X4991100Y3439210D01*
G01X4981956Y3442258D01*
G01X4978908Y3448608D01*
G01X7455820Y3789934D02*
G01X7455820Y3724910D01*
G01X7455820Y3724910D02*
G01X7492904Y3724910D01*
G01X7523130Y3789934D02*
G01X7523130Y3724910D01*
G01X7523130Y3789934D02*
G01X7563262Y3789934D01*
G01X7523130Y3758946D02*
G01X7547768Y3758946D01*
G01X7523130Y3724910D02*
G01X7563262Y3724910D01*
G01X7593488Y3789934D02*
G01X7593488Y3724910D01*
G01X7593488Y3789934D02*
G01X7615078Y3789934D01*
G01X7624222Y3786886D01*
G01X7630572Y3780790D01*
G01X7633620Y3774440D01*
G01X7636668Y3765296D01*
G01X7636668Y3749802D01*
G01X7633620Y3740404D01*
G01X7630572Y3734308D01*
G01X7624222Y3727958D01*
G01X7615078Y3724910D01*
G01X7593488Y3724910D01*
G01X7666894Y3777488D02*
G01X7672990Y3780790D01*
G01X7682134Y3789934D01*
G01X7682134Y3724910D01*
G01X7727600Y3789934D02*
G01X7718456Y3786886D01*
G01X7715408Y3780790D01*
G01X7715408Y3774440D01*
G01X7718456Y3768344D01*
G01X7724552Y3765296D01*
G01X7736998Y3762248D01*
G01X7746396Y3758946D01*
G01X7752492Y3752850D01*
G01X7755540Y3746754D01*
G01X7755540Y3737356D01*
G01X7752492Y3731260D01*
G01X7749444Y3727958D01*
G01X7740046Y3724910D01*
G01X7727600Y3724910D01*
G01X7718456Y3727958D01*
G01X7715408Y3731260D01*
G01X7712360Y3737356D01*
G01X7712360Y3746754D01*
G01X7715408Y3752850D01*
G01X7721504Y3758946D01*
G01X7730902Y3762248D01*
G01X7743094Y3765296D01*
G01X7749444Y3768344D01*
G01X7752492Y3774440D01*
G01X7752492Y3780790D01*
G01X7749444Y3786886D01*
G01X7740046Y3789934D01*
G01X7727600Y3789934D01*
G01X7055820Y3789934D02*
G01X7055820Y3724910D01*
G01X7055820Y3724910D02*
G01X7092904Y3724910D01*
G01X7123130Y3789934D02*
G01X7123130Y3724910D01*
G01X7123130Y3789934D02*
G01X7163262Y3789934D01*
G01X7123130Y3758946D02*
G01X7147768Y3758946D01*
G01X7123130Y3724910D02*
G01X7163262Y3724910D01*
G01X7193488Y3789934D02*
G01X7193488Y3724910D01*
G01X7193488Y3789934D02*
G01X7215078Y3789934D01*
G01X7224222Y3786886D01*
G01X7230572Y3780790D01*
G01X7233620Y3774440D01*
G01X7236668Y3765296D01*
G01X7236668Y3749802D01*
G01X7233620Y3740404D01*
G01X7230572Y3734308D01*
G01X7224222Y3727958D01*
G01X7215078Y3724910D01*
G01X7193488Y3724910D01*
G01X7266894Y3777488D02*
G01X7272990Y3780790D01*
G01X7282134Y3789934D01*
G01X7282134Y3724910D01*
G01X7355540Y3789934D02*
G01X7324552Y3724910D01*
G01X7312360Y3789934D02*
G01X7355540Y3789934D01*
G01X6655820Y3789934D02*
G01X6655820Y3724910D01*
G01X6655820Y3724910D02*
G01X6692904Y3724910D01*
G01X6723130Y3789934D02*
G01X6723130Y3724910D01*
G01X6723130Y3789934D02*
G01X6763262Y3789934D01*
G01X6723130Y3758946D02*
G01X6747768Y3758946D01*
G01X6723130Y3724910D02*
G01X6763262Y3724910D01*
G01X6793488Y3789934D02*
G01X6793488Y3724910D01*
G01X6793488Y3789934D02*
G01X6815078Y3789934D01*
G01X6824222Y3786886D01*
G01X6830572Y3780790D01*
G01X6833620Y3774440D01*
G01X6836668Y3765296D01*
G01X6836668Y3749802D01*
G01X6833620Y3740404D01*
G01X6830572Y3734308D01*
G01X6824222Y3727958D01*
G01X6815078Y3724910D01*
G01X6793488Y3724910D01*
G01X6866894Y3777488D02*
G01X6872990Y3780790D01*
G01X6882134Y3789934D01*
G01X6882134Y3724910D01*
G01X6949444Y3780790D02*
G01X6946396Y3786886D01*
G01X6936998Y3789934D01*
G01X6930902Y3789934D01*
G01X6921504Y3786886D01*
G01X6915408Y3777488D01*
G01X6912360Y3762248D01*
G01X6912360Y3746754D01*
G01X6915408Y3734308D01*
G01X6921504Y3727958D01*
G01X6930902Y3724910D01*
G01X6933950Y3724910D01*
G01X6943094Y3727958D01*
G01X6949444Y3734308D01*
G01X6952492Y3743452D01*
G01X6952492Y3746754D01*
G01X6949444Y3755898D01*
G01X6943094Y3762248D01*
G01X6933950Y3765296D01*
G01X6930902Y3765296D01*
G01X6921504Y3762248D01*
G01X6915408Y3755898D01*
G01X6912360Y3746754D01*
G01X6255820Y3789934D02*
G01X6255820Y3724910D01*
G01X6255820Y3724910D02*
G01X6292904Y3724910D01*
G01X6323130Y3789934D02*
G01X6323130Y3724910D01*
G01X6323130Y3789934D02*
G01X6363262Y3789934D01*
G01X6323130Y3758946D02*
G01X6347768Y3758946D01*
G01X6323130Y3724910D02*
G01X6363262Y3724910D01*
G01X6393488Y3789934D02*
G01X6393488Y3724910D01*
G01X6393488Y3789934D02*
G01X6415078Y3789934D01*
G01X6424222Y3786886D01*
G01X6430572Y3780790D01*
G01X6433620Y3774440D01*
G01X6436668Y3765296D01*
G01X6436668Y3749802D01*
G01X6433620Y3740404D01*
G01X6430572Y3734308D01*
G01X6424222Y3727958D01*
G01X6415078Y3724910D01*
G01X6393488Y3724910D01*
G01X6466894Y3777488D02*
G01X6472990Y3780790D01*
G01X6482134Y3789934D01*
G01X6482134Y3724910D01*
G01X6549444Y3789934D02*
G01X6518456Y3789934D01*
G01X6515408Y3762248D01*
G01X6518456Y3765296D01*
G01X6527600Y3768344D01*
G01X6536998Y3768344D01*
G01X6546396Y3765296D01*
G01X6552492Y3758946D01*
G01X6555540Y3749802D01*
G01X6555540Y3743452D01*
G01X6552492Y3734308D01*
G01X6546396Y3727958D01*
G01X6536998Y3724910D01*
G01X6527600Y3724910D01*
G01X6518456Y3727958D01*
G01X6515408Y3731260D01*
G01X6512360Y3737356D01*
G01X5824220Y3828034D02*
G01X5824220Y3763010D01*
G01X5824220Y3763010D02*
G01X5861304Y3763010D01*
G01X5891530Y3828034D02*
G01X5891530Y3763010D01*
G01X5891530Y3828034D02*
G01X5931662Y3828034D01*
G01X5891530Y3797046D02*
G01X5916168Y3797046D01*
G01X5891530Y3763010D02*
G01X5931662Y3763010D01*
G01X5961888Y3828034D02*
G01X5961888Y3763010D01*
G01X5961888Y3828034D02*
G01X5983478Y3828034D01*
G01X5992622Y3824986D01*
G01X5998972Y3818890D01*
G01X6002020Y3812540D01*
G01X6005068Y3803396D01*
G01X6005068Y3787902D01*
G01X6002020Y3778504D01*
G01X5998972Y3772408D01*
G01X5992622Y3766058D01*
G01X5983478Y3763010D01*
G01X5961888Y3763010D01*
G01X6035294Y3815588D02*
G01X6041390Y3818890D01*
G01X6050534Y3828034D01*
G01X6050534Y3763010D01*
G01X6111494Y3828034D02*
G01X6080760Y3784854D01*
G01X6126988Y3784854D01*
G01X6111494Y3828034D02*
G01X6111494Y3763010D01*
G01X5443220Y3815334D02*
G01X5443220Y3750310D01*
G01X5443220Y3750310D02*
G01X5480304Y3750310D01*
G01X5510530Y3815334D02*
G01X5510530Y3750310D01*
G01X5510530Y3815334D02*
G01X5550662Y3815334D01*
G01X5510530Y3784346D02*
G01X5535168Y3784346D01*
G01X5510530Y3750310D02*
G01X5550662Y3750310D01*
G01X5580888Y3815334D02*
G01X5580888Y3750310D01*
G01X5580888Y3815334D02*
G01X5602478Y3815334D01*
G01X5611622Y3812286D01*
G01X5617972Y3806190D01*
G01X5621020Y3799840D01*
G01X5624068Y3790696D01*
G01X5624068Y3775202D01*
G01X5621020Y3765804D01*
G01X5617972Y3759708D01*
G01X5611622Y3753358D01*
G01X5602478Y3750310D01*
G01X5580888Y3750310D01*
G01X5654294Y3802888D02*
G01X5660390Y3806190D01*
G01X5669534Y3815334D01*
G01X5669534Y3750310D01*
G01X5705856Y3815334D02*
G01X5739892Y3815334D01*
G01X5721350Y3790696D01*
G01X5730494Y3790696D01*
G01X5736844Y3787648D01*
G01X5739892Y3784346D01*
G01X5742940Y3775202D01*
G01X5742940Y3768852D01*
G01X5739892Y3759708D01*
G01X5733796Y3753358D01*
G01X5724398Y3750310D01*
G01X5715000Y3750310D01*
G01X5705856Y3753358D01*
G01X5702808Y3756660D01*
G01X5699760Y3762756D01*
G01X5036820Y3789934D02*
G01X5036820Y3724910D01*
G01X5036820Y3724910D02*
G01X5073904Y3724910D01*
G01X5104130Y3789934D02*
G01X5104130Y3724910D01*
G01X5104130Y3789934D02*
G01X5144262Y3789934D01*
G01X5104130Y3758946D02*
G01X5128768Y3758946D01*
G01X5104130Y3724910D02*
G01X5144262Y3724910D01*
G01X5174488Y3789934D02*
G01X5174488Y3724910D01*
G01X5174488Y3789934D02*
G01X5196078Y3789934D01*
G01X5205222Y3786886D01*
G01X5211572Y3780790D01*
G01X5214620Y3774440D01*
G01X5217668Y3765296D01*
G01X5217668Y3749802D01*
G01X5214620Y3740404D01*
G01X5211572Y3734308D01*
G01X5205222Y3727958D01*
G01X5196078Y3724910D01*
G01X5174488Y3724910D01*
G01X5247894Y3777488D02*
G01X5253990Y3780790D01*
G01X5263134Y3789934D01*
G01X5263134Y3724910D01*
G01X5296408Y3774440D02*
G01X5296408Y3777488D01*
G01X5299456Y3783838D01*
G01X5302504Y3786886D01*
G01X5308600Y3789934D01*
G01X5321046Y3789934D01*
G01X5327396Y3786886D01*
G01X5330444Y3783838D01*
G01X5333492Y3777488D01*
G01X5333492Y3771392D01*
G01X5330444Y3765296D01*
G01X5324094Y3755898D01*
G01X5293360Y3724910D01*
G01X5336540Y3724910D01*
G01X4655820Y3802634D02*
G01X4655820Y3737610D01*
G01X4655820Y3737610D02*
G01X4692904Y3737610D01*
G01X4723130Y3802634D02*
G01X4723130Y3737610D01*
G01X4723130Y3802634D02*
G01X4763262Y3802634D01*
G01X4723130Y3771646D02*
G01X4747768Y3771646D01*
G01X4723130Y3737610D02*
G01X4763262Y3737610D01*
G01X4793488Y3802634D02*
G01X4793488Y3737610D01*
G01X4793488Y3802634D02*
G01X4815078Y3802634D01*
G01X4824222Y3799586D01*
G01X4830572Y3793490D01*
G01X4833620Y3787140D01*
G01X4836668Y3777996D01*
G01X4836668Y3762502D01*
G01X4833620Y3753104D01*
G01X4830572Y3747008D01*
G01X4824222Y3740658D01*
G01X4815078Y3737610D01*
G01X4793488Y3737610D01*
G01X4866894Y3790188D02*
G01X4872990Y3793490D01*
G01X4882134Y3802634D01*
G01X4882134Y3737610D01*
G01X4912360Y3790188D02*
G01X4918456Y3793490D01*
G01X4927600Y3802634D01*
G01X4927600Y3737610D01*
G04 Text End*

G04 PolygonModel Start*
G54D11*
G01X6664881Y4208943D02*
G01X6584884Y4208943D01*
G01X6720926Y4208897D02*
G01X6800924Y4208897D01*
G01X6664881Y4350911D02*
G01X6584884Y4350911D01*
G01X6720926Y4350863D02*
G01X6800924Y4350863D01*
G01X6553909Y4239925D02*
G01X6553909Y4319930D01*
G01X6831902Y4319877D02*
G01X6831902Y4239875D01*
G01X6800919Y4350863D02*
G02X6831902Y4319877I0J-30983D01*
G01X6831902Y4239880D02*
G02X6800919Y4208897I-30983J0D01*
G01X6584889Y4208943D02*
G02X6553909Y4239925I3J30983D01*
G01X6553909Y4319923D02*
G02X6584889Y4350911I30983J5D01*
G01X7604681Y3904143D02*
G01X7524684Y3904143D01*
G01X7660726Y3904097D02*
G01X7740724Y3904097D01*
G01X7604681Y4046111D02*
G01X7524684Y4046111D01*
G01X7660726Y4046063D02*
G01X7740724Y4046063D01*
G01X7493709Y3935125D02*
G01X7493709Y4015130D01*
G01X7771702Y4015077D02*
G01X7771702Y3935075D01*
G01X7740719Y4046063D02*
G02X7771702Y4015077I0J-30983D01*
G01X7771702Y3935080D02*
G02X7740719Y3904097I-30983J0D01*
G01X7524689Y3904143D02*
G02X7493709Y3935125I3J30983D01*
G01X7493709Y4015123D02*
G02X7524689Y4046111I30983J5D01*
G01X6372781Y3904143D02*
G01X6292784Y3904143D01*
G01X6428826Y3904097D02*
G01X6508824Y3904097D01*
G01X6372781Y4046111D02*
G01X6292784Y4046111D01*
G01X6428826Y4046063D02*
G01X6508824Y4046063D01*
G01X6261809Y3935125D02*
G01X6261809Y4015130D01*
G01X6539802Y4015077D02*
G01X6539802Y3935075D01*
G01X6508819Y4046063D02*
G02X6539802Y4015077I0J-30983D01*
G01X6539802Y3935080D02*
G02X6508819Y3904097I-30983J0D01*
G01X6292789Y3904143D02*
G02X6261809Y3935125I3J30983D01*
G01X6261809Y4015123D02*
G02X6292789Y4046111I30983J5D01*
G01X3030057Y2981881D02*
G01X3030057Y2901884D01*
G01X3030103Y3037926D02*
G01X3030103Y3117924D01*
G01X2888089Y2981881D02*
G01X2888089Y2901884D01*
G01X2888137Y3037926D02*
G01X2888137Y3117924D01*
G01X2999075Y2870909D02*
G01X2919070Y2870909D01*
G01X2919123Y3148902D02*
G01X2999125Y3148902D01*
G01X2888137Y3117919D02*
G02X2919123Y3148902I30983J0D01*
G01X2999120Y3148902D02*
G02X3030103Y3117919I0J-30983D01*
G01X3030057Y2901889D02*
G02X2999075Y2870909I-30983J3D01*
G01X2919077Y2870909D02*
G02X2888089Y2901889I-5J30983D01*
G01X6672781Y3904143D02*
G01X6592784Y3904143D01*
G01X6728826Y3904097D02*
G01X6808824Y3904097D01*
G01X6672781Y4046111D02*
G01X6592784Y4046111D01*
G01X6728826Y4046063D02*
G01X6808824Y4046063D01*
G01X6561809Y3935125D02*
G01X6561809Y4015130D01*
G01X6839802Y4015077D02*
G01X6839802Y3935075D01*
G01X6808819Y4046063D02*
G02X6839802Y4015077I0J-30983D01*
G01X6839802Y3935080D02*
G02X6808819Y3904097I-30983J0D01*
G01X6592789Y3904143D02*
G02X6561809Y3935125I3J30983D01*
G01X6561809Y4015123D02*
G02X6592789Y4046111I30983J5D01*
G01X7272781Y3904143D02*
G01X7192784Y3904143D01*
G01X7328826Y3904097D02*
G01X7408824Y3904097D01*
G01X7272781Y4046111D02*
G01X7192784Y4046111D01*
G01X7328826Y4046063D02*
G01X7408824Y4046063D01*
G01X7161809Y3935125D02*
G01X7161809Y4015130D01*
G01X7439802Y4015077D02*
G01X7439802Y3935075D01*
G01X7408819Y4046063D02*
G02X7439802Y4015077I0J-30983D01*
G01X7439802Y3935080D02*
G02X7408819Y3904097I-30983J0D01*
G01X7192789Y3904143D02*
G02X7161809Y3935125I3J30983D01*
G01X7161809Y4015123D02*
G02X7192789Y4046111I30983J5D01*
G01X8287857Y4086781D02*
G01X8287857Y4006784D01*
G01X8287903Y4142826D02*
G01X8287903Y4222824D01*
G01X8145889Y4086781D02*
G01X8145889Y4006784D01*
G01X8145937Y4142826D02*
G01X8145937Y4222824D01*
G01X8256875Y3975809D02*
G01X8176870Y3975809D01*
G01X8176923Y4253802D02*
G01X8256925Y4253802D01*
G01X8145937Y4222819D02*
G02X8176923Y4253802I30983J0D01*
G01X8256920Y4253802D02*
G02X8287903Y4222819I0J-30983D01*
G01X8287857Y4006789D02*
G02X8256875Y3975809I-30983J3D01*
G01X8176877Y3975809D02*
G02X8145889Y4006789I-5J30983D01*
G01X4691543Y-289481D02*
G01X4691543Y-209484D01*
G01X4691497Y-345526D02*
G01X4691497Y-425524D01*
G01X4833511Y-289481D02*
G01X4833511Y-209484D01*
G01X4833463Y-345526D02*
G01X4833463Y-425524D01*
G01X4722525Y-178509D02*
G01X4802530Y-178509D01*
G01X4802477Y-456501D02*
G01X4722475Y-456501D01*
G01X4833463Y-425519D02*
G02X4802477Y-456501I-30983J0D01*
G01X4722480Y-456501D02*
G02X4691497Y-425519I0J30983D01*
G01X4691543Y-209489D02*
G02X4722525Y-178509I30983J-3D01*
G01X4802523Y-178509D02*
G02X4833511Y-209489I5J-30983D01*
G54D10*
G01X3507473Y2864838D02*
G01X3243834Y2862834D01*
G01X3243834Y3398520D01*
G01X3383280Y3537966D01*
G01X3512820Y3536630D01*
G01X3652169Y2863451D02*
G01X3919017Y2862783D01*
G01X3919017Y3398403D01*
G01X3779403Y3538017D01*
G01X3649980Y3538017D01*
G36*
G01X3495599Y3480900D02*
G01X3363600Y3480900D01*
G01X3363600Y3461101D01*
G01X3495599Y3461101D01*
G01X3495599Y3480900D01*
G37*
G36*
G01X3439500Y3510600D02*
G01X3419701Y3510600D01*
G01X3419701Y3431400D01*
G01X3439500Y3431400D01*
G01X3439500Y3510600D01*
G37*
G36*
G01X3439500Y2890200D02*
G01X3419701Y2890200D01*
G01X3419701Y2969400D01*
G01X3439500Y2969400D01*
G01X3439500Y2890200D01*
G37*
G54D11*
G01X9079799Y2905587D02*
G01X9079799Y3673000D01*
G01X8316981Y3673000D02*
G01X8316981Y3427420D01*
G01X8530872Y3673000D02*
G01X8316981Y3673000D01*
G01X9078981Y3673000D02*
G01X8957102Y3673000D01*
G01X8316981Y2905587D02*
G01X8316981Y3151177D01*
G01X8530872Y2905587D02*
G01X8316981Y2905587D01*
G01X9079799Y2905587D02*
G01X8957102Y2905587D01*
G01X8316981Y3301190D02*
G01X8316981Y3277410D01*
G01X8928100Y3136900D02*
G01X8928100Y3436899D01*
G01X9078112Y3436899D01*
G01X9078112Y3136900D01*
G01X8928100Y3136900D01*
G54D10*
G01X6061680Y203421D02*
G01X6231920Y203421D01*
G01X6061680Y-101821D02*
G01X6231920Y-101821D01*
G01X6231920Y3160D02*
G01X6231920Y98440D01*
G01X6436340Y5062779D02*
G01X6436340Y4966891D01*
G01X6568460Y4966891D01*
G01X6568460Y5062779D01*
G01X6436340Y5148021D02*
G01X6436340Y5243909D01*
G01X6568460Y5243909D01*
G01X6568460Y5148021D01*
G01X5814040Y5062779D02*
G01X5814040Y4966891D01*
G01X5946160Y4966891D01*
G01X5946160Y5062779D01*
G01X5814040Y5148021D02*
G01X5814040Y5243909D01*
G01X5946160Y5243909D01*
G01X5946160Y5148021D01*
G01X6624879Y4638060D02*
G01X6528991Y4638060D01*
G01X6528991Y4505940D01*
G01X6624879Y4505940D01*
G01X6710121Y4638060D02*
G01X6806009Y4638060D01*
G01X6806009Y4505940D01*
G01X6710121Y4505940D01*
G01X8366740Y4110279D02*
G01X8366740Y4014391D01*
G01X8498860Y4014391D01*
G01X8498860Y4110279D01*
G01X8366740Y4195521D02*
G01X8366740Y4291409D01*
G01X8498860Y4291409D01*
G01X8498860Y4195521D01*
G01X5120660Y-280452D02*
G01X5120660Y-184564D01*
G01X4988540Y-184564D01*
G01X4988540Y-280452D01*
G01X5120660Y-365694D02*
G01X5120660Y-461582D01*
G01X4988540Y-461582D01*
G01X4988540Y-365694D01*
G01X5541721Y-461582D02*
G01X5637609Y-461582D01*
G01X5637609Y-329461D01*
G01X5541721Y-329461D01*
G01X5456479Y-461582D02*
G01X5360591Y-461582D01*
G01X5360591Y-329461D01*
G01X5456479Y-329461D01*
G01X6118840Y4630979D02*
G01X6118840Y4535091D01*
G01X6250960Y4535091D01*
G01X6250960Y4630979D01*
G01X6118840Y4716221D02*
G01X6118840Y4812109D01*
G01X6250960Y4812109D01*
G01X6250960Y4716221D01*
G01X5996960Y4551121D02*
G01X5996960Y4647009D01*
G01X5864840Y4647009D01*
G01X5864840Y4551121D01*
G01X5996960Y4465879D02*
G01X5996960Y4369991D01*
G01X5864840Y4369991D01*
G01X5864840Y4465879D01*
G01X4417040Y3373679D02*
G01X4417040Y3277791D01*
G01X4549160Y3277791D01*
G01X4549160Y3373679D01*
G01X4417040Y3458921D02*
G01X4417040Y3554809D01*
G01X4549160Y3554809D01*
G01X4549160Y3458921D01*
G01X8379440Y4465879D02*
G01X8379440Y4369991D01*
G01X8511560Y4369991D01*
G01X8511560Y4465879D01*
G01X8379440Y4551121D02*
G01X8379440Y4647009D01*
G01X8511560Y4647009D01*
G01X8511560Y4551121D01*
G01X8049240Y4491279D02*
G01X8049240Y4395391D01*
G01X8181360Y4395391D01*
G01X8181360Y4491279D01*
G01X8049240Y4576521D02*
G01X8049240Y4672409D01*
G01X8181360Y4672409D01*
G01X8181360Y4576521D01*
G54D11*
G01X2699111Y1656011D02*
G01X3099110Y1656011D01*
G01X2699111Y1806014D02*
G01X2699111Y1656011D01*
G01X3099110Y1806014D02*
G01X2699111Y1806014D01*
G01X3449109Y2067898D02*
G01X3449109Y1157900D01*
G01X3099110Y1157900D02*
G01X3449109Y1157900D01*
G01X3099110Y2067898D02*
G01X3449109Y2067898D01*
G01X3099110Y2067898D02*
G01X3099110Y1157900D01*
G01X7850886Y11176D02*
G01X7850886Y-178816D01*
G01X7760716Y-268986D01*
G01X7580884Y-268986D01*
G01X7480808Y-168910D01*
G01X7480808Y1016D01*
G01X7570978Y91186D01*
G01X7770876Y91186D01*
G01X7850886Y11176D01*
G01X7925816Y-216408D02*
G01X7836309Y-305915D01*
G01X7787640Y-343916D02*
G01X7553960Y-343916D01*
G01X7505291Y-305915D02*
G01X7415784Y-216408D01*
G01X7787640Y166116D02*
G01X7553960Y166116D01*
G01X7505291Y128115D02*
G01X7415784Y38608D01*
G01X7925816Y38608D02*
G01X7836309Y128115D01*
G01X7415784Y38608D02*
G01X7415784Y-216408D01*
G01X7925816Y38608D02*
G01X7925816Y-216408D01*
G01X7034276Y-192786D02*
G01X6844284Y-192786D01*
G01X6754114Y-102616D01*
G01X6754114Y77216D01*
G01X6854190Y177292D01*
G01X7024116Y177292D01*
G01X7114286Y87122D01*
G01X7114286Y-112776D01*
G01X7034276Y-192786D01*
G01X6806692Y-267716D02*
G01X6717185Y-178209D01*
G01X6679184Y-129540D02*
G01X6679184Y104140D01*
G01X6717185Y152809D02*
G01X6806692Y242316D01*
G01X7189216Y-129540D02*
G01X7189216Y104140D01*
G01X7151215Y152809D02*
G01X7061708Y242316D01*
G01X7061708Y-267716D02*
G01X7151215Y-178209D01*
G01X7061708Y242316D02*
G01X6806692Y242316D01*
G01X7061708Y-267716D02*
G01X6806692Y-267716D01*
G01X7583703Y5169891D02*
G01X7583703Y4659884D01*
G01X7583703Y4659909D02*
G01X7173697Y4659909D01*
G01X7173697Y4659909D02*
G01X7173697Y5169916D01*
G01X7458710Y5169891D02*
G01X7583703Y5169891D01*
G01X7298690Y5169891D02*
G01X7173697Y5169891D01*
G01X7458710Y5164887D02*
G02X7298690Y5164887I-80010J37529D01*
G01X9359501Y1027501D02*
G01X9359504Y2687505D01*
G01X9359504Y2147499D02*
G01X8039496Y2147499D01*
G01X8039496Y2687503D02*
G01X9359504Y2687503D01*
G01X8039499Y1027501D02*
G01X8039496Y2687503D01*
G01X8039499Y1027501D02*
G01X9359501Y1027501D01*
G54D12*
G01X6118207Y-470601D02*
G01X6056203Y-470601D01*
G01X6056203Y-459603D01*
G01X6226200Y-240599D02*
G01X6288204Y-240599D01*
G01X6288204Y-251597D01*
G01X6118205Y-240607D02*
G01X6056203Y-240607D01*
G01X6056203Y-251605D01*
G01X6226200Y-470598D02*
G01X6288199Y-470598D01*
G01X6288199Y-459600D01*
G54D10*
G01X4095481Y3117520D02*
G01X4235719Y3117520D01*
G01X4095481Y2902280D02*
G01X4235719Y2902280D01*
G01X4235719Y3045661D02*
G01X4235719Y2974139D01*
G54D11*
G01X4269329Y4866498D02*
G01X4455620Y4866498D01*
G01X3897490Y3972499D02*
G01X3897490Y4866498D01*
G01X4045621Y4866498D01*
G01X4269293Y3972499D02*
G01X4455655Y3972499D01*
G01X3897490Y3972499D02*
G01X4045656Y3972499D01*
G54D12*
G01X5107100Y3091400D02*
G01X5047100Y3091400D01*
G01X5047100Y3091400D02*
G01X5047100Y3141400D01*
G01X5167100Y3091400D02*
G01X5227100Y3091400D01*
G01X5227100Y3091400D02*
G01X5227100Y3141400D01*
G01X5107100Y3271400D02*
G01X5047100Y3271400D01*
G01X5047100Y3271400D02*
G01X5047100Y3221400D01*
G01X5167100Y3271400D02*
G01X5227100Y3271400D01*
G01X5227100Y3271400D02*
G01X5227100Y3221400D01*
G36*
G01X5147100Y3251400D02*
G01X5127100Y3251400D01*
G01X5127100Y3221400D01*
G01X5137100Y3211400D01*
G01X5127100Y3201400D01*
G01X5127100Y3111400D01*
G01X5147100Y3111400D01*
G01X5147100Y3251400D01*
G37*
G01X4707100Y3091400D02*
G01X4647100Y3091400D01*
G01X4647100Y3091400D02*
G01X4647100Y3141400D01*
G01X4767100Y3091400D02*
G01X4827100Y3091400D01*
G01X4827100Y3091400D02*
G01X4827100Y3141400D01*
G01X4707100Y3271400D02*
G01X4647100Y3271400D01*
G01X4647100Y3271400D02*
G01X4647100Y3221400D01*
G01X4767100Y3271400D02*
G01X4827100Y3271400D01*
G01X4827100Y3271400D02*
G01X4827100Y3221400D01*
G36*
G01X4747100Y3251400D02*
G01X4727100Y3251400D01*
G01X4727100Y3221400D01*
G01X4737100Y3211400D01*
G01X4727100Y3201400D01*
G01X4727100Y3111400D01*
G01X4747100Y3111400D01*
G01X4747100Y3251400D01*
G37*
G01X7507100Y3491400D02*
G01X7447100Y3491400D01*
G01X7447100Y3491400D02*
G01X7447100Y3541400D01*
G01X7567100Y3491400D02*
G01X7627100Y3491400D01*
G01X7627100Y3491400D02*
G01X7627100Y3541400D01*
G01X7507100Y3671400D02*
G01X7447100Y3671400D01*
G01X7447100Y3671400D02*
G01X7447100Y3621400D01*
G01X7567100Y3671400D02*
G01X7627100Y3671400D01*
G01X7627100Y3671400D02*
G01X7627100Y3621400D01*
G36*
G01X7547100Y3651400D02*
G01X7527100Y3651400D01*
G01X7527100Y3621400D01*
G01X7537100Y3611400D01*
G01X7527100Y3601400D01*
G01X7527100Y3511400D01*
G01X7547100Y3511400D01*
G01X7547100Y3651400D01*
G37*
G01X7107100Y3491400D02*
G01X7047100Y3491400D01*
G01X7047100Y3491400D02*
G01X7047100Y3541400D01*
G01X7167100Y3491400D02*
G01X7227100Y3491400D01*
G01X7227100Y3491400D02*
G01X7227100Y3541400D01*
G01X7107100Y3671400D02*
G01X7047100Y3671400D01*
G01X7047100Y3671400D02*
G01X7047100Y3621400D01*
G01X7167100Y3671400D02*
G01X7227100Y3671400D01*
G01X7227100Y3671400D02*
G01X7227100Y3621400D01*
G36*
G01X7147100Y3651400D02*
G01X7127100Y3651400D01*
G01X7127100Y3621400D01*
G01X7137100Y3611400D01*
G01X7127100Y3601400D01*
G01X7127100Y3511400D01*
G01X7147100Y3511400D01*
G01X7147100Y3651400D01*
G37*
G01X6707100Y3491400D02*
G01X6647100Y3491400D01*
G01X6647100Y3491400D02*
G01X6647100Y3541400D01*
G01X6767100Y3491400D02*
G01X6827100Y3491400D01*
G01X6827100Y3491400D02*
G01X6827100Y3541400D01*
G01X6707100Y3671400D02*
G01X6647100Y3671400D01*
G01X6647100Y3671400D02*
G01X6647100Y3621400D01*
G01X6767100Y3671400D02*
G01X6827100Y3671400D01*
G01X6827100Y3671400D02*
G01X6827100Y3621400D01*
G36*
G01X6747100Y3651400D02*
G01X6727100Y3651400D01*
G01X6727100Y3621400D01*
G01X6737100Y3611400D01*
G01X6727100Y3601400D01*
G01X6727100Y3511400D01*
G01X6747100Y3511400D01*
G01X6747100Y3651400D01*
G37*
G01X6307100Y3491400D02*
G01X6247100Y3491400D01*
G01X6247100Y3491400D02*
G01X6247100Y3541400D01*
G01X6367100Y3491400D02*
G01X6427100Y3491400D01*
G01X6427100Y3491400D02*
G01X6427100Y3541400D01*
G01X6307100Y3671400D02*
G01X6247100Y3671400D01*
G01X6247100Y3671400D02*
G01X6247100Y3621400D01*
G01X6367100Y3671400D02*
G01X6427100Y3671400D01*
G01X6427100Y3671400D02*
G01X6427100Y3621400D01*
G36*
G01X6347100Y3651400D02*
G01X6327100Y3651400D01*
G01X6327100Y3621400D01*
G01X6337100Y3611400D01*
G01X6327100Y3601400D01*
G01X6327100Y3511400D01*
G01X6347100Y3511400D01*
G01X6347100Y3651400D01*
G37*
G01X5907100Y3491400D02*
G01X5847100Y3491400D01*
G01X5847100Y3491400D02*
G01X5847100Y3541400D01*
G01X5967100Y3491400D02*
G01X6027100Y3491400D01*
G01X6027100Y3491400D02*
G01X6027100Y3541400D01*
G01X5907100Y3671400D02*
G01X5847100Y3671400D01*
G01X5847100Y3671400D02*
G01X5847100Y3621400D01*
G01X5967100Y3671400D02*
G01X6027100Y3671400D01*
G01X6027100Y3671400D02*
G01X6027100Y3621400D01*
G36*
G01X5947100Y3651400D02*
G01X5927100Y3651400D01*
G01X5927100Y3621400D01*
G01X5937100Y3611400D01*
G01X5927100Y3601400D01*
G01X5927100Y3511400D01*
G01X5947100Y3511400D01*
G01X5947100Y3651400D01*
G37*
G01X5507100Y3491400D02*
G01X5447100Y3491400D01*
G01X5447100Y3491400D02*
G01X5447100Y3541400D01*
G01X5567100Y3491400D02*
G01X5627100Y3491400D01*
G01X5627100Y3491400D02*
G01X5627100Y3541400D01*
G01X5507100Y3671400D02*
G01X5447100Y3671400D01*
G01X5447100Y3671400D02*
G01X5447100Y3621400D01*
G01X5567100Y3671400D02*
G01X5627100Y3671400D01*
G01X5627100Y3671400D02*
G01X5627100Y3621400D01*
G36*
G01X5547100Y3651400D02*
G01X5527100Y3651400D01*
G01X5527100Y3621400D01*
G01X5537100Y3611400D01*
G01X5527100Y3601400D01*
G01X5527100Y3511400D01*
G01X5547100Y3511400D01*
G01X5547100Y3651400D01*
G37*
G01X5107100Y3491400D02*
G01X5047100Y3491400D01*
G01X5047100Y3491400D02*
G01X5047100Y3541400D01*
G01X5167100Y3491400D02*
G01X5227100Y3491400D01*
G01X5227100Y3491400D02*
G01X5227100Y3541400D01*
G01X5107100Y3671400D02*
G01X5047100Y3671400D01*
G01X5047100Y3671400D02*
G01X5047100Y3621400D01*
G01X5167100Y3671400D02*
G01X5227100Y3671400D01*
G01X5227100Y3671400D02*
G01X5227100Y3621400D01*
G36*
G01X5147100Y3651400D02*
G01X5127100Y3651400D01*
G01X5127100Y3621400D01*
G01X5137100Y3611400D01*
G01X5127100Y3601400D01*
G01X5127100Y3511400D01*
G01X5147100Y3511400D01*
G01X5147100Y3651400D01*
G37*
G01X4707100Y3491400D02*
G01X4647100Y3491400D01*
G01X4647100Y3491400D02*
G01X4647100Y3541400D01*
G01X4767100Y3491400D02*
G01X4827100Y3491400D01*
G01X4827100Y3491400D02*
G01X4827100Y3541400D01*
G01X4707100Y3671400D02*
G01X4647100Y3671400D01*
G01X4647100Y3671400D02*
G01X4647100Y3621400D01*
G01X4767100Y3671400D02*
G01X4827100Y3671400D01*
G01X4827100Y3671400D02*
G01X4827100Y3621400D01*
G36*
G01X4747100Y3651400D02*
G01X4727100Y3651400D01*
G01X4727100Y3621400D01*
G01X4737100Y3611400D01*
G01X4727100Y3601400D01*
G01X4727100Y3511400D01*
G01X4747100Y3511400D01*
G01X4747100Y3651400D01*
G37*
G01X5507100Y3091400D02*
G01X5447100Y3091400D01*
G01X5447100Y3091400D02*
G01X5447100Y3141400D01*
G01X5567100Y3091400D02*
G01X5627100Y3091400D01*
G01X5627100Y3091400D02*
G01X5627100Y3141400D01*
G01X5507100Y3271400D02*
G01X5447100Y3271400D01*
G01X5447100Y3271400D02*
G01X5447100Y3221400D01*
G01X5567100Y3271400D02*
G01X5627100Y3271400D01*
G01X5627100Y3271400D02*
G01X5627100Y3221400D01*
G36*
G01X5547100Y3251400D02*
G01X5527100Y3251400D01*
G01X5527100Y3221400D01*
G01X5537100Y3211400D01*
G01X5527100Y3201400D01*
G01X5527100Y3111400D01*
G01X5547100Y3111400D01*
G01X5547100Y3251400D01*
G37*
G01X5907100Y3091400D02*
G01X5847100Y3091400D01*
G01X5847100Y3091400D02*
G01X5847100Y3141400D01*
G01X5967100Y3091400D02*
G01X6027100Y3091400D01*
G01X6027100Y3091400D02*
G01X6027100Y3141400D01*
G01X5907100Y3271400D02*
G01X5847100Y3271400D01*
G01X5847100Y3271400D02*
G01X5847100Y3221400D01*
G01X5967100Y3271400D02*
G01X6027100Y3271400D01*
G01X6027100Y3271400D02*
G01X6027100Y3221400D01*
G36*
G01X5947100Y3251400D02*
G01X5927100Y3251400D01*
G01X5927100Y3221400D01*
G01X5937100Y3211400D01*
G01X5927100Y3201400D01*
G01X5927100Y3111400D01*
G01X5947100Y3111400D01*
G01X5947100Y3251400D01*
G37*
G01X6307100Y3091400D02*
G01X6247100Y3091400D01*
G01X6247100Y3091400D02*
G01X6247100Y3141400D01*
G01X6367100Y3091400D02*
G01X6427100Y3091400D01*
G01X6427100Y3091400D02*
G01X6427100Y3141400D01*
G01X6307100Y3271400D02*
G01X6247100Y3271400D01*
G01X6247100Y3271400D02*
G01X6247100Y3221400D01*
G01X6367100Y3271400D02*
G01X6427100Y3271400D01*
G01X6427100Y3271400D02*
G01X6427100Y3221400D01*
G36*
G01X6347100Y3251400D02*
G01X6327100Y3251400D01*
G01X6327100Y3221400D01*
G01X6337100Y3211400D01*
G01X6327100Y3201400D01*
G01X6327100Y3111400D01*
G01X6347100Y3111400D01*
G01X6347100Y3251400D01*
G37*
G01X6707100Y3091400D02*
G01X6647100Y3091400D01*
G01X6647100Y3091400D02*
G01X6647100Y3141400D01*
G01X6767100Y3091400D02*
G01X6827100Y3091400D01*
G01X6827100Y3091400D02*
G01X6827100Y3141400D01*
G01X6707100Y3271400D02*
G01X6647100Y3271400D01*
G01X6647100Y3271400D02*
G01X6647100Y3221400D01*
G01X6767100Y3271400D02*
G01X6827100Y3271400D01*
G01X6827100Y3271400D02*
G01X6827100Y3221400D01*
G36*
G01X6747100Y3251400D02*
G01X6727100Y3251400D01*
G01X6727100Y3221400D01*
G01X6737100Y3211400D01*
G01X6727100Y3201400D01*
G01X6727100Y3111400D01*
G01X6747100Y3111400D01*
G01X6747100Y3251400D01*
G37*
G01X7107100Y3091400D02*
G01X7047100Y3091400D01*
G01X7047100Y3091400D02*
G01X7047100Y3141400D01*
G01X7167100Y3091400D02*
G01X7227100Y3091400D01*
G01X7227100Y3091400D02*
G01X7227100Y3141400D01*
G01X7107100Y3271400D02*
G01X7047100Y3271400D01*
G01X7047100Y3271400D02*
G01X7047100Y3221400D01*
G01X7167100Y3271400D02*
G01X7227100Y3271400D01*
G01X7227100Y3271400D02*
G01X7227100Y3221400D01*
G36*
G01X7147100Y3251400D02*
G01X7127100Y3251400D01*
G01X7127100Y3221400D01*
G01X7137100Y3211400D01*
G01X7127100Y3201400D01*
G01X7127100Y3111400D01*
G01X7147100Y3111400D01*
G01X7147100Y3251400D01*
G37*
G01X7507100Y3091400D02*
G01X7447100Y3091400D01*
G01X7447100Y3091400D02*
G01X7447100Y3141400D01*
G01X7567100Y3091400D02*
G01X7627100Y3091400D01*
G01X7627100Y3091400D02*
G01X7627100Y3141400D01*
G01X7507100Y3271400D02*
G01X7447100Y3271400D01*
G01X7447100Y3271400D02*
G01X7447100Y3221400D01*
G01X7567100Y3271400D02*
G01X7627100Y3271400D01*
G01X7627100Y3271400D02*
G01X7627100Y3221400D01*
G36*
G01X7547100Y3251400D02*
G01X7527100Y3251400D01*
G01X7527100Y3221400D01*
G01X7537100Y3211400D01*
G01X7527100Y3201400D01*
G01X7527100Y3111400D01*
G01X7547100Y3111400D01*
G01X7547100Y3251400D01*
G37*
G01X4707100Y2691400D02*
G01X4647100Y2691400D01*
G01X4647100Y2691400D02*
G01X4647100Y2741400D01*
G01X4767100Y2691400D02*
G01X4827100Y2691400D01*
G01X4827100Y2691400D02*
G01X4827100Y2741400D01*
G01X4707100Y2871400D02*
G01X4647100Y2871400D01*
G01X4647100Y2871400D02*
G01X4647100Y2821400D01*
G01X4767100Y2871400D02*
G01X4827100Y2871400D01*
G01X4827100Y2871400D02*
G01X4827100Y2821400D01*
G36*
G01X4747100Y2851400D02*
G01X4727100Y2851400D01*
G01X4727100Y2821400D01*
G01X4737100Y2811400D01*
G01X4727100Y2801400D01*
G01X4727100Y2711400D01*
G01X4747100Y2711400D01*
G01X4747100Y2851400D01*
G37*
G01X5107100Y2691400D02*
G01X5047100Y2691400D01*
G01X5047100Y2691400D02*
G01X5047100Y2741400D01*
G01X5167100Y2691400D02*
G01X5227100Y2691400D01*
G01X5227100Y2691400D02*
G01X5227100Y2741400D01*
G01X5107100Y2871400D02*
G01X5047100Y2871400D01*
G01X5047100Y2871400D02*
G01X5047100Y2821400D01*
G01X5167100Y2871400D02*
G01X5227100Y2871400D01*
G01X5227100Y2871400D02*
G01X5227100Y2821400D01*
G36*
G01X5147100Y2851400D02*
G01X5127100Y2851400D01*
G01X5127100Y2821400D01*
G01X5137100Y2811400D01*
G01X5127100Y2801400D01*
G01X5127100Y2711400D01*
G01X5147100Y2711400D01*
G01X5147100Y2851400D01*
G37*
G01X5507100Y2691400D02*
G01X5447100Y2691400D01*
G01X5447100Y2691400D02*
G01X5447100Y2741400D01*
G01X5567100Y2691400D02*
G01X5627100Y2691400D01*
G01X5627100Y2691400D02*
G01X5627100Y2741400D01*
G01X5507100Y2871400D02*
G01X5447100Y2871400D01*
G01X5447100Y2871400D02*
G01X5447100Y2821400D01*
G01X5567100Y2871400D02*
G01X5627100Y2871400D01*
G01X5627100Y2871400D02*
G01X5627100Y2821400D01*
G36*
G01X5547100Y2851400D02*
G01X5527100Y2851400D01*
G01X5527100Y2821400D01*
G01X5537100Y2811400D01*
G01X5527100Y2801400D01*
G01X5527100Y2711400D01*
G01X5547100Y2711400D01*
G01X5547100Y2851400D01*
G37*
G01X5907100Y2691400D02*
G01X5847100Y2691400D01*
G01X5847100Y2691400D02*
G01X5847100Y2741400D01*
G01X5967100Y2691400D02*
G01X6027100Y2691400D01*
G01X6027100Y2691400D02*
G01X6027100Y2741400D01*
G01X5907100Y2871400D02*
G01X5847100Y2871400D01*
G01X5847100Y2871400D02*
G01X5847100Y2821400D01*
G01X5967100Y2871400D02*
G01X6027100Y2871400D01*
G01X6027100Y2871400D02*
G01X6027100Y2821400D01*
G36*
G01X5947100Y2851400D02*
G01X5927100Y2851400D01*
G01X5927100Y2821400D01*
G01X5937100Y2811400D01*
G01X5927100Y2801400D01*
G01X5927100Y2711400D01*
G01X5947100Y2711400D01*
G01X5947100Y2851400D01*
G37*
G01X6307100Y2691400D02*
G01X6247100Y2691400D01*
G01X6247100Y2691400D02*
G01X6247100Y2741400D01*
G01X6367100Y2691400D02*
G01X6427100Y2691400D01*
G01X6427100Y2691400D02*
G01X6427100Y2741400D01*
G01X6307100Y2871400D02*
G01X6247100Y2871400D01*
G01X6247100Y2871400D02*
G01X6247100Y2821400D01*
G01X6367100Y2871400D02*
G01X6427100Y2871400D01*
G01X6427100Y2871400D02*
G01X6427100Y2821400D01*
G36*
G01X6347100Y2851400D02*
G01X6327100Y2851400D01*
G01X6327100Y2821400D01*
G01X6337100Y2811400D01*
G01X6327100Y2801400D01*
G01X6327100Y2711400D01*
G01X6347100Y2711400D01*
G01X6347100Y2851400D01*
G37*
G01X6707100Y2691400D02*
G01X6647100Y2691400D01*
G01X6647100Y2691400D02*
G01X6647100Y2741400D01*
G01X6767100Y2691400D02*
G01X6827100Y2691400D01*
G01X6827100Y2691400D02*
G01X6827100Y2741400D01*
G01X6707100Y2871400D02*
G01X6647100Y2871400D01*
G01X6647100Y2871400D02*
G01X6647100Y2821400D01*
G01X6767100Y2871400D02*
G01X6827100Y2871400D01*
G01X6827100Y2871400D02*
G01X6827100Y2821400D01*
G36*
G01X6747100Y2851400D02*
G01X6727100Y2851400D01*
G01X6727100Y2821400D01*
G01X6737100Y2811400D01*
G01X6727100Y2801400D01*
G01X6727100Y2711400D01*
G01X6747100Y2711400D01*
G01X6747100Y2851400D01*
G37*
G01X7107100Y2691400D02*
G01X7047100Y2691400D01*
G01X7047100Y2691400D02*
G01X7047100Y2741400D01*
G01X7167100Y2691400D02*
G01X7227100Y2691400D01*
G01X7227100Y2691400D02*
G01X7227100Y2741400D01*
G01X7107100Y2871400D02*
G01X7047100Y2871400D01*
G01X7047100Y2871400D02*
G01X7047100Y2821400D01*
G01X7167100Y2871400D02*
G01X7227100Y2871400D01*
G01X7227100Y2871400D02*
G01X7227100Y2821400D01*
G36*
G01X7147100Y2851400D02*
G01X7127100Y2851400D01*
G01X7127100Y2821400D01*
G01X7137100Y2811400D01*
G01X7127100Y2801400D01*
G01X7127100Y2711400D01*
G01X7147100Y2711400D01*
G01X7147100Y2851400D01*
G37*
G01X7507100Y2691400D02*
G01X7447100Y2691400D01*
G01X7447100Y2691400D02*
G01X7447100Y2741400D01*
G01X7567100Y2691400D02*
G01X7627100Y2691400D01*
G01X7627100Y2691400D02*
G01X7627100Y2741400D01*
G01X7507100Y2871400D02*
G01X7447100Y2871400D01*
G01X7447100Y2871400D02*
G01X7447100Y2821400D01*
G01X7567100Y2871400D02*
G01X7627100Y2871400D01*
G01X7627100Y2871400D02*
G01X7627100Y2821400D01*
G36*
G01X7547100Y2851400D02*
G01X7527100Y2851400D01*
G01X7527100Y2821400D01*
G01X7537100Y2811400D01*
G01X7527100Y2801400D01*
G01X7527100Y2711400D01*
G01X7547100Y2711400D01*
G01X7547100Y2851400D01*
G37*
G01X4707100Y2291400D02*
G01X4647100Y2291400D01*
G01X4647100Y2291400D02*
G01X4647100Y2341400D01*
G01X4767100Y2291400D02*
G01X4827100Y2291400D01*
G01X4827100Y2291400D02*
G01X4827100Y2341400D01*
G01X4707100Y2471400D02*
G01X4647100Y2471400D01*
G01X4647100Y2471400D02*
G01X4647100Y2421400D01*
G01X4767100Y2471400D02*
G01X4827100Y2471400D01*
G01X4827100Y2471400D02*
G01X4827100Y2421400D01*
G36*
G01X4747100Y2451400D02*
G01X4727100Y2451400D01*
G01X4727100Y2421400D01*
G01X4737100Y2411400D01*
G01X4727100Y2401400D01*
G01X4727100Y2311400D01*
G01X4747100Y2311400D01*
G01X4747100Y2451400D01*
G37*
G01X5107100Y2291400D02*
G01X5047100Y2291400D01*
G01X5047100Y2291400D02*
G01X5047100Y2341400D01*
G01X5167100Y2291400D02*
G01X5227100Y2291400D01*
G01X5227100Y2291400D02*
G01X5227100Y2341400D01*
G01X5107100Y2471400D02*
G01X5047100Y2471400D01*
G01X5047100Y2471400D02*
G01X5047100Y2421400D01*
G01X5167100Y2471400D02*
G01X5227100Y2471400D01*
G01X5227100Y2471400D02*
G01X5227100Y2421400D01*
G36*
G01X5147100Y2451400D02*
G01X5127100Y2451400D01*
G01X5127100Y2421400D01*
G01X5137100Y2411400D01*
G01X5127100Y2401400D01*
G01X5127100Y2311400D01*
G01X5147100Y2311400D01*
G01X5147100Y2451400D01*
G37*
G01X5507100Y2291400D02*
G01X5447100Y2291400D01*
G01X5447100Y2291400D02*
G01X5447100Y2341400D01*
G01X5567100Y2291400D02*
G01X5627100Y2291400D01*
G01X5627100Y2291400D02*
G01X5627100Y2341400D01*
G01X5507100Y2471400D02*
G01X5447100Y2471400D01*
G01X5447100Y2471400D02*
G01X5447100Y2421400D01*
G01X5567100Y2471400D02*
G01X5627100Y2471400D01*
G01X5627100Y2471400D02*
G01X5627100Y2421400D01*
G36*
G01X5547100Y2451400D02*
G01X5527100Y2451400D01*
G01X5527100Y2421400D01*
G01X5537100Y2411400D01*
G01X5527100Y2401400D01*
G01X5527100Y2311400D01*
G01X5547100Y2311400D01*
G01X5547100Y2451400D01*
G37*
G01X5907100Y2291400D02*
G01X5847100Y2291400D01*
G01X5847100Y2291400D02*
G01X5847100Y2341400D01*
G01X5967100Y2291400D02*
G01X6027100Y2291400D01*
G01X6027100Y2291400D02*
G01X6027100Y2341400D01*
G01X5907100Y2471400D02*
G01X5847100Y2471400D01*
G01X5847100Y2471400D02*
G01X5847100Y2421400D01*
G01X5967100Y2471400D02*
G01X6027100Y2471400D01*
G01X6027100Y2471400D02*
G01X6027100Y2421400D01*
G36*
G01X5947100Y2451400D02*
G01X5927100Y2451400D01*
G01X5927100Y2421400D01*
G01X5937100Y2411400D01*
G01X5927100Y2401400D01*
G01X5927100Y2311400D01*
G01X5947100Y2311400D01*
G01X5947100Y2451400D01*
G37*
G01X6307100Y2291400D02*
G01X6247100Y2291400D01*
G01X6247100Y2291400D02*
G01X6247100Y2341400D01*
G01X6367100Y2291400D02*
G01X6427100Y2291400D01*
G01X6427100Y2291400D02*
G01X6427100Y2341400D01*
G01X6307100Y2471400D02*
G01X6247100Y2471400D01*
G01X6247100Y2471400D02*
G01X6247100Y2421400D01*
G01X6367100Y2471400D02*
G01X6427100Y2471400D01*
G01X6427100Y2471400D02*
G01X6427100Y2421400D01*
G36*
G01X6347100Y2451400D02*
G01X6327100Y2451400D01*
G01X6327100Y2421400D01*
G01X6337100Y2411400D01*
G01X6327100Y2401400D01*
G01X6327100Y2311400D01*
G01X6347100Y2311400D01*
G01X6347100Y2451400D01*
G37*
G01X6707100Y2291400D02*
G01X6647100Y2291400D01*
G01X6647100Y2291400D02*
G01X6647100Y2341400D01*
G01X6767100Y2291400D02*
G01X6827100Y2291400D01*
G01X6827100Y2291400D02*
G01X6827100Y2341400D01*
G01X6707100Y2471400D02*
G01X6647100Y2471400D01*
G01X6647100Y2471400D02*
G01X6647100Y2421400D01*
G01X6767100Y2471400D02*
G01X6827100Y2471400D01*
G01X6827100Y2471400D02*
G01X6827100Y2421400D01*
G36*
G01X6747100Y2451400D02*
G01X6727100Y2451400D01*
G01X6727100Y2421400D01*
G01X6737100Y2411400D01*
G01X6727100Y2401400D01*
G01X6727100Y2311400D01*
G01X6747100Y2311400D01*
G01X6747100Y2451400D01*
G37*
G01X7107100Y2291400D02*
G01X7047100Y2291400D01*
G01X7047100Y2291400D02*
G01X7047100Y2341400D01*
G01X7167100Y2291400D02*
G01X7227100Y2291400D01*
G01X7227100Y2291400D02*
G01X7227100Y2341400D01*
G01X7107100Y2471400D02*
G01X7047100Y2471400D01*
G01X7047100Y2471400D02*
G01X7047100Y2421400D01*
G01X7167100Y2471400D02*
G01X7227100Y2471400D01*
G01X7227100Y2471400D02*
G01X7227100Y2421400D01*
G36*
G01X7147100Y2451400D02*
G01X7127100Y2451400D01*
G01X7127100Y2421400D01*
G01X7137100Y2411400D01*
G01X7127100Y2401400D01*
G01X7127100Y2311400D01*
G01X7147100Y2311400D01*
G01X7147100Y2451400D01*
G37*
G01X7507100Y2291400D02*
G01X7447100Y2291400D01*
G01X7447100Y2291400D02*
G01X7447100Y2341400D01*
G01X7567100Y2291400D02*
G01X7627100Y2291400D01*
G01X7627100Y2291400D02*
G01X7627100Y2341400D01*
G01X7507100Y2471400D02*
G01X7447100Y2471400D01*
G01X7447100Y2471400D02*
G01X7447100Y2421400D01*
G01X7567100Y2471400D02*
G01X7627100Y2471400D01*
G01X7627100Y2471400D02*
G01X7627100Y2421400D01*
G36*
G01X7547100Y2451400D02*
G01X7527100Y2451400D01*
G01X7527100Y2421400D01*
G01X7537100Y2411400D01*
G01X7527100Y2401400D01*
G01X7527100Y2311400D01*
G01X7547100Y2311400D01*
G01X7547100Y2451400D01*
G37*
G01X4707100Y1891400D02*
G01X4647100Y1891400D01*
G01X4647100Y1891400D02*
G01X4647100Y1941400D01*
G01X4767100Y1891400D02*
G01X4827100Y1891400D01*
G01X4827100Y1891400D02*
G01X4827100Y1941400D01*
G01X4707100Y2071400D02*
G01X4647100Y2071400D01*
G01X4647100Y2071400D02*
G01X4647100Y2021400D01*
G01X4767100Y2071400D02*
G01X4827100Y2071400D01*
G01X4827100Y2071400D02*
G01X4827100Y2021400D01*
G36*
G01X4747100Y2051400D02*
G01X4727100Y2051400D01*
G01X4727100Y2021400D01*
G01X4737100Y2011400D01*
G01X4727100Y2001400D01*
G01X4727100Y1911400D01*
G01X4747100Y1911400D01*
G01X4747100Y2051400D01*
G37*
G01X5107100Y1891400D02*
G01X5047100Y1891400D01*
G01X5047100Y1891400D02*
G01X5047100Y1941400D01*
G01X5167100Y1891400D02*
G01X5227100Y1891400D01*
G01X5227100Y1891400D02*
G01X5227100Y1941400D01*
G01X5107100Y2071400D02*
G01X5047100Y2071400D01*
G01X5047100Y2071400D02*
G01X5047100Y2021400D01*
G01X5167100Y2071400D02*
G01X5227100Y2071400D01*
G01X5227100Y2071400D02*
G01X5227100Y2021400D01*
G36*
G01X5147100Y2051400D02*
G01X5127100Y2051400D01*
G01X5127100Y2021400D01*
G01X5137100Y2011400D01*
G01X5127100Y2001400D01*
G01X5127100Y1911400D01*
G01X5147100Y1911400D01*
G01X5147100Y2051400D01*
G37*
G01X5507100Y1891400D02*
G01X5447100Y1891400D01*
G01X5447100Y1891400D02*
G01X5447100Y1941400D01*
G01X5567100Y1891400D02*
G01X5627100Y1891400D01*
G01X5627100Y1891400D02*
G01X5627100Y1941400D01*
G01X5507100Y2071400D02*
G01X5447100Y2071400D01*
G01X5447100Y2071400D02*
G01X5447100Y2021400D01*
G01X5567100Y2071400D02*
G01X5627100Y2071400D01*
G01X5627100Y2071400D02*
G01X5627100Y2021400D01*
G36*
G01X5547100Y2051400D02*
G01X5527100Y2051400D01*
G01X5527100Y2021400D01*
G01X5537100Y2011400D01*
G01X5527100Y2001400D01*
G01X5527100Y1911400D01*
G01X5547100Y1911400D01*
G01X5547100Y2051400D01*
G37*
G01X5907100Y1891400D02*
G01X5847100Y1891400D01*
G01X5847100Y1891400D02*
G01X5847100Y1941400D01*
G01X5967100Y1891400D02*
G01X6027100Y1891400D01*
G01X6027100Y1891400D02*
G01X6027100Y1941400D01*
G01X5907100Y2071400D02*
G01X5847100Y2071400D01*
G01X5847100Y2071400D02*
G01X5847100Y2021400D01*
G01X5967100Y2071400D02*
G01X6027100Y2071400D01*
G01X6027100Y2071400D02*
G01X6027100Y2021400D01*
G36*
G01X5947100Y2051400D02*
G01X5927100Y2051400D01*
G01X5927100Y2021400D01*
G01X5937100Y2011400D01*
G01X5927100Y2001400D01*
G01X5927100Y1911400D01*
G01X5947100Y1911400D01*
G01X5947100Y2051400D01*
G37*
G01X6307100Y1891400D02*
G01X6247100Y1891400D01*
G01X6247100Y1891400D02*
G01X6247100Y1941400D01*
G01X6367100Y1891400D02*
G01X6427100Y1891400D01*
G01X6427100Y1891400D02*
G01X6427100Y1941400D01*
G01X6307100Y2071400D02*
G01X6247100Y2071400D01*
G01X6247100Y2071400D02*
G01X6247100Y2021400D01*
G01X6367100Y2071400D02*
G01X6427100Y2071400D01*
G01X6427100Y2071400D02*
G01X6427100Y2021400D01*
G36*
G01X6347100Y2051400D02*
G01X6327100Y2051400D01*
G01X6327100Y2021400D01*
G01X6337100Y2011400D01*
G01X6327100Y2001400D01*
G01X6327100Y1911400D01*
G01X6347100Y1911400D01*
G01X6347100Y2051400D01*
G37*
G01X6707100Y1891400D02*
G01X6647100Y1891400D01*
G01X6647100Y1891400D02*
G01X6647100Y1941400D01*
G01X6767100Y1891400D02*
G01X6827100Y1891400D01*
G01X6827100Y1891400D02*
G01X6827100Y1941400D01*
G01X6707100Y2071400D02*
G01X6647100Y2071400D01*
G01X6647100Y2071400D02*
G01X6647100Y2021400D01*
G01X6767100Y2071400D02*
G01X6827100Y2071400D01*
G01X6827100Y2071400D02*
G01X6827100Y2021400D01*
G36*
G01X6747100Y2051400D02*
G01X6727100Y2051400D01*
G01X6727100Y2021400D01*
G01X6737100Y2011400D01*
G01X6727100Y2001400D01*
G01X6727100Y1911400D01*
G01X6747100Y1911400D01*
G01X6747100Y2051400D01*
G37*
G01X7107100Y1891400D02*
G01X7047100Y1891400D01*
G01X7047100Y1891400D02*
G01X7047100Y1941400D01*
G01X7167100Y1891400D02*
G01X7227100Y1891400D01*
G01X7227100Y1891400D02*
G01X7227100Y1941400D01*
G01X7107100Y2071400D02*
G01X7047100Y2071400D01*
G01X7047100Y2071400D02*
G01X7047100Y2021400D01*
G01X7167100Y2071400D02*
G01X7227100Y2071400D01*
G01X7227100Y2071400D02*
G01X7227100Y2021400D01*
G36*
G01X7147100Y2051400D02*
G01X7127100Y2051400D01*
G01X7127100Y2021400D01*
G01X7137100Y2011400D01*
G01X7127100Y2001400D01*
G01X7127100Y1911400D01*
G01X7147100Y1911400D01*
G01X7147100Y2051400D01*
G37*
G01X7507100Y1891400D02*
G01X7447100Y1891400D01*
G01X7447100Y1891400D02*
G01X7447100Y1941400D01*
G01X7567100Y1891400D02*
G01X7627100Y1891400D01*
G01X7627100Y1891400D02*
G01X7627100Y1941400D01*
G01X7507100Y2071400D02*
G01X7447100Y2071400D01*
G01X7447100Y2071400D02*
G01X7447100Y2021400D01*
G01X7567100Y2071400D02*
G01X7627100Y2071400D01*
G01X7627100Y2071400D02*
G01X7627100Y2021400D01*
G36*
G01X7547100Y2051400D02*
G01X7527100Y2051400D01*
G01X7527100Y2021400D01*
G01X7537100Y2011400D01*
G01X7527100Y2001400D01*
G01X7527100Y1911400D01*
G01X7547100Y1911400D01*
G01X7547100Y2051400D01*
G37*
G01X4707100Y1491400D02*
G01X4647100Y1491400D01*
G01X4647100Y1491400D02*
G01X4647100Y1541400D01*
G01X4767100Y1491400D02*
G01X4827100Y1491400D01*
G01X4827100Y1491400D02*
G01X4827100Y1541400D01*
G01X4707100Y1671400D02*
G01X4647100Y1671400D01*
G01X4647100Y1671400D02*
G01X4647100Y1621400D01*
G01X4767100Y1671400D02*
G01X4827100Y1671400D01*
G01X4827100Y1671400D02*
G01X4827100Y1621400D01*
G36*
G01X4747100Y1651400D02*
G01X4727100Y1651400D01*
G01X4727100Y1621400D01*
G01X4737100Y1611400D01*
G01X4727100Y1601400D01*
G01X4727100Y1511400D01*
G01X4747100Y1511400D01*
G01X4747100Y1651400D01*
G37*
G01X5107100Y1491400D02*
G01X5047100Y1491400D01*
G01X5047100Y1491400D02*
G01X5047100Y1541400D01*
G01X5167100Y1491400D02*
G01X5227100Y1491400D01*
G01X5227100Y1491400D02*
G01X5227100Y1541400D01*
G01X5107100Y1671400D02*
G01X5047100Y1671400D01*
G01X5047100Y1671400D02*
G01X5047100Y1621400D01*
G01X5167100Y1671400D02*
G01X5227100Y1671400D01*
G01X5227100Y1671400D02*
G01X5227100Y1621400D01*
G36*
G01X5147100Y1651400D02*
G01X5127100Y1651400D01*
G01X5127100Y1621400D01*
G01X5137100Y1611400D01*
G01X5127100Y1601400D01*
G01X5127100Y1511400D01*
G01X5147100Y1511400D01*
G01X5147100Y1651400D01*
G37*
G01X5507100Y1491400D02*
G01X5447100Y1491400D01*
G01X5447100Y1491400D02*
G01X5447100Y1541400D01*
G01X5567100Y1491400D02*
G01X5627100Y1491400D01*
G01X5627100Y1491400D02*
G01X5627100Y1541400D01*
G01X5507100Y1671400D02*
G01X5447100Y1671400D01*
G01X5447100Y1671400D02*
G01X5447100Y1621400D01*
G01X5567100Y1671400D02*
G01X5627100Y1671400D01*
G01X5627100Y1671400D02*
G01X5627100Y1621400D01*
G36*
G01X5547100Y1651400D02*
G01X5527100Y1651400D01*
G01X5527100Y1621400D01*
G01X5537100Y1611400D01*
G01X5527100Y1601400D01*
G01X5527100Y1511400D01*
G01X5547100Y1511400D01*
G01X5547100Y1651400D01*
G37*
G01X5907100Y1491400D02*
G01X5847100Y1491400D01*
G01X5847100Y1491400D02*
G01X5847100Y1541400D01*
G01X5967100Y1491400D02*
G01X6027100Y1491400D01*
G01X6027100Y1491400D02*
G01X6027100Y1541400D01*
G01X5907100Y1671400D02*
G01X5847100Y1671400D01*
G01X5847100Y1671400D02*
G01X5847100Y1621400D01*
G01X5967100Y1671400D02*
G01X6027100Y1671400D01*
G01X6027100Y1671400D02*
G01X6027100Y1621400D01*
G36*
G01X5947100Y1651400D02*
G01X5927100Y1651400D01*
G01X5927100Y1621400D01*
G01X5937100Y1611400D01*
G01X5927100Y1601400D01*
G01X5927100Y1511400D01*
G01X5947100Y1511400D01*
G01X5947100Y1651400D01*
G37*
G01X6307100Y1491400D02*
G01X6247100Y1491400D01*
G01X6247100Y1491400D02*
G01X6247100Y1541400D01*
G01X6367100Y1491400D02*
G01X6427100Y1491400D01*
G01X6427100Y1491400D02*
G01X6427100Y1541400D01*
G01X6307100Y1671400D02*
G01X6247100Y1671400D01*
G01X6247100Y1671400D02*
G01X6247100Y1621400D01*
G01X6367100Y1671400D02*
G01X6427100Y1671400D01*
G01X6427100Y1671400D02*
G01X6427100Y1621400D01*
G36*
G01X6347100Y1651400D02*
G01X6327100Y1651400D01*
G01X6327100Y1621400D01*
G01X6337100Y1611400D01*
G01X6327100Y1601400D01*
G01X6327100Y1511400D01*
G01X6347100Y1511400D01*
G01X6347100Y1651400D01*
G37*
G01X6707100Y1491400D02*
G01X6647100Y1491400D01*
G01X6647100Y1491400D02*
G01X6647100Y1541400D01*
G01X6767100Y1491400D02*
G01X6827100Y1491400D01*
G01X6827100Y1491400D02*
G01X6827100Y1541400D01*
G01X6707100Y1671400D02*
G01X6647100Y1671400D01*
G01X6647100Y1671400D02*
G01X6647100Y1621400D01*
G01X6767100Y1671400D02*
G01X6827100Y1671400D01*
G01X6827100Y1671400D02*
G01X6827100Y1621400D01*
G36*
G01X6747100Y1651400D02*
G01X6727100Y1651400D01*
G01X6727100Y1621400D01*
G01X6737100Y1611400D01*
G01X6727100Y1601400D01*
G01X6727100Y1511400D01*
G01X6747100Y1511400D01*
G01X6747100Y1651400D01*
G37*
G01X7107100Y1491400D02*
G01X7047100Y1491400D01*
G01X7047100Y1491400D02*
G01X7047100Y1541400D01*
G01X7167100Y1491400D02*
G01X7227100Y1491400D01*
G01X7227100Y1491400D02*
G01X7227100Y1541400D01*
G01X7107100Y1671400D02*
G01X7047100Y1671400D01*
G01X7047100Y1671400D02*
G01X7047100Y1621400D01*
G01X7167100Y1671400D02*
G01X7227100Y1671400D01*
G01X7227100Y1671400D02*
G01X7227100Y1621400D01*
G36*
G01X7147100Y1651400D02*
G01X7127100Y1651400D01*
G01X7127100Y1621400D01*
G01X7137100Y1611400D01*
G01X7127100Y1601400D01*
G01X7127100Y1511400D01*
G01X7147100Y1511400D01*
G01X7147100Y1651400D01*
G37*
G01X7507100Y1491400D02*
G01X7447100Y1491400D01*
G01X7447100Y1491400D02*
G01X7447100Y1541400D01*
G01X7567100Y1491400D02*
G01X7627100Y1491400D01*
G01X7627100Y1491400D02*
G01X7627100Y1541400D01*
G01X7507100Y1671400D02*
G01X7447100Y1671400D01*
G01X7447100Y1671400D02*
G01X7447100Y1621400D01*
G01X7567100Y1671400D02*
G01X7627100Y1671400D01*
G01X7627100Y1671400D02*
G01X7627100Y1621400D01*
G36*
G01X7547100Y1651400D02*
G01X7527100Y1651400D01*
G01X7527100Y1621400D01*
G01X7537100Y1611400D01*
G01X7527100Y1601400D01*
G01X7527100Y1511400D01*
G01X7547100Y1511400D01*
G01X7547100Y1651400D01*
G37*
G01X4707100Y1091400D02*
G01X4647100Y1091400D01*
G01X4647100Y1091400D02*
G01X4647100Y1141400D01*
G01X4767100Y1091400D02*
G01X4827100Y1091400D01*
G01X4827100Y1091400D02*
G01X4827100Y1141400D01*
G01X4707100Y1271400D02*
G01X4647100Y1271400D01*
G01X4647100Y1271400D02*
G01X4647100Y1221400D01*
G01X4767100Y1271400D02*
G01X4827100Y1271400D01*
G01X4827100Y1271400D02*
G01X4827100Y1221400D01*
G36*
G01X4747100Y1251400D02*
G01X4727100Y1251400D01*
G01X4727100Y1221400D01*
G01X4737100Y1211400D01*
G01X4727100Y1201400D01*
G01X4727100Y1111400D01*
G01X4747100Y1111400D01*
G01X4747100Y1251400D01*
G37*
G01X5107100Y1091400D02*
G01X5047100Y1091400D01*
G01X5047100Y1091400D02*
G01X5047100Y1141400D01*
G01X5167100Y1091400D02*
G01X5227100Y1091400D01*
G01X5227100Y1091400D02*
G01X5227100Y1141400D01*
G01X5107100Y1271400D02*
G01X5047100Y1271400D01*
G01X5047100Y1271400D02*
G01X5047100Y1221400D01*
G01X5167100Y1271400D02*
G01X5227100Y1271400D01*
G01X5227100Y1271400D02*
G01X5227100Y1221400D01*
G36*
G01X5147100Y1251400D02*
G01X5127100Y1251400D01*
G01X5127100Y1221400D01*
G01X5137100Y1211400D01*
G01X5127100Y1201400D01*
G01X5127100Y1111400D01*
G01X5147100Y1111400D01*
G01X5147100Y1251400D01*
G37*
G01X5507100Y1091400D02*
G01X5447100Y1091400D01*
G01X5447100Y1091400D02*
G01X5447100Y1141400D01*
G01X5567100Y1091400D02*
G01X5627100Y1091400D01*
G01X5627100Y1091400D02*
G01X5627100Y1141400D01*
G01X5507100Y1271400D02*
G01X5447100Y1271400D01*
G01X5447100Y1271400D02*
G01X5447100Y1221400D01*
G01X5567100Y1271400D02*
G01X5627100Y1271400D01*
G01X5627100Y1271400D02*
G01X5627100Y1221400D01*
G36*
G01X5547100Y1251400D02*
G01X5527100Y1251400D01*
G01X5527100Y1221400D01*
G01X5537100Y1211400D01*
G01X5527100Y1201400D01*
G01X5527100Y1111400D01*
G01X5547100Y1111400D01*
G01X5547100Y1251400D01*
G37*
G01X5907100Y1091400D02*
G01X5847100Y1091400D01*
G01X5847100Y1091400D02*
G01X5847100Y1141400D01*
G01X5967100Y1091400D02*
G01X6027100Y1091400D01*
G01X6027100Y1091400D02*
G01X6027100Y1141400D01*
G01X5907100Y1271400D02*
G01X5847100Y1271400D01*
G01X5847100Y1271400D02*
G01X5847100Y1221400D01*
G01X5967100Y1271400D02*
G01X6027100Y1271400D01*
G01X6027100Y1271400D02*
G01X6027100Y1221400D01*
G36*
G01X5947100Y1251400D02*
G01X5927100Y1251400D01*
G01X5927100Y1221400D01*
G01X5937100Y1211400D01*
G01X5927100Y1201400D01*
G01X5927100Y1111400D01*
G01X5947100Y1111400D01*
G01X5947100Y1251400D01*
G37*
G01X6307100Y1091400D02*
G01X6247100Y1091400D01*
G01X6247100Y1091400D02*
G01X6247100Y1141400D01*
G01X6367100Y1091400D02*
G01X6427100Y1091400D01*
G01X6427100Y1091400D02*
G01X6427100Y1141400D01*
G01X6307100Y1271400D02*
G01X6247100Y1271400D01*
G01X6247100Y1271400D02*
G01X6247100Y1221400D01*
G01X6367100Y1271400D02*
G01X6427100Y1271400D01*
G01X6427100Y1271400D02*
G01X6427100Y1221400D01*
G36*
G01X6347100Y1251400D02*
G01X6327100Y1251400D01*
G01X6327100Y1221400D01*
G01X6337100Y1211400D01*
G01X6327100Y1201400D01*
G01X6327100Y1111400D01*
G01X6347100Y1111400D01*
G01X6347100Y1251400D01*
G37*
G01X6707100Y1091400D02*
G01X6647100Y1091400D01*
G01X6647100Y1091400D02*
G01X6647100Y1141400D01*
G01X6767100Y1091400D02*
G01X6827100Y1091400D01*
G01X6827100Y1091400D02*
G01X6827100Y1141400D01*
G01X6707100Y1271400D02*
G01X6647100Y1271400D01*
G01X6647100Y1271400D02*
G01X6647100Y1221400D01*
G01X6767100Y1271400D02*
G01X6827100Y1271400D01*
G01X6827100Y1271400D02*
G01X6827100Y1221400D01*
G36*
G01X6747100Y1251400D02*
G01X6727100Y1251400D01*
G01X6727100Y1221400D01*
G01X6737100Y1211400D01*
G01X6727100Y1201400D01*
G01X6727100Y1111400D01*
G01X6747100Y1111400D01*
G01X6747100Y1251400D01*
G37*
G01X7107100Y1091400D02*
G01X7047100Y1091400D01*
G01X7047100Y1091400D02*
G01X7047100Y1141400D01*
G01X7167100Y1091400D02*
G01X7227100Y1091400D01*
G01X7227100Y1091400D02*
G01X7227100Y1141400D01*
G01X7107100Y1271400D02*
G01X7047100Y1271400D01*
G01X7047100Y1271400D02*
G01X7047100Y1221400D01*
G01X7167100Y1271400D02*
G01X7227100Y1271400D01*
G01X7227100Y1271400D02*
G01X7227100Y1221400D01*
G36*
G01X7147100Y1251400D02*
G01X7127100Y1251400D01*
G01X7127100Y1221400D01*
G01X7137100Y1211400D01*
G01X7127100Y1201400D01*
G01X7127100Y1111400D01*
G01X7147100Y1111400D01*
G01X7147100Y1251400D01*
G37*
G01X7507100Y1091400D02*
G01X7447100Y1091400D01*
G01X7447100Y1091400D02*
G01X7447100Y1141400D01*
G01X7567100Y1091400D02*
G01X7627100Y1091400D01*
G01X7627100Y1091400D02*
G01X7627100Y1141400D01*
G01X7507100Y1271400D02*
G01X7447100Y1271400D01*
G01X7447100Y1271400D02*
G01X7447100Y1221400D01*
G01X7567100Y1271400D02*
G01X7627100Y1271400D01*
G01X7627100Y1271400D02*
G01X7627100Y1221400D01*
G36*
G01X7547100Y1251400D02*
G01X7527100Y1251400D01*
G01X7527100Y1221400D01*
G01X7537100Y1211400D01*
G01X7527100Y1201400D01*
G01X7527100Y1111400D01*
G01X7547100Y1111400D01*
G01X7547100Y1251400D01*
G37*
G01X4707100Y691400D02*
G01X4647100Y691400D01*
G01X4647100Y691400D02*
G01X4647100Y741400D01*
G01X4767100Y691400D02*
G01X4827100Y691400D01*
G01X4827100Y691400D02*
G01X4827100Y741400D01*
G01X4707100Y871400D02*
G01X4647100Y871400D01*
G01X4647100Y871400D02*
G01X4647100Y821400D01*
G01X4767100Y871400D02*
G01X4827100Y871400D01*
G01X4827100Y871400D02*
G01X4827100Y821400D01*
G36*
G01X4747100Y851400D02*
G01X4727100Y851400D01*
G01X4727100Y821400D01*
G01X4737100Y811400D01*
G01X4727100Y801400D01*
G01X4727100Y711400D01*
G01X4747100Y711400D01*
G01X4747100Y851400D01*
G37*
G01X5107100Y691400D02*
G01X5047100Y691400D01*
G01X5047100Y691400D02*
G01X5047100Y741400D01*
G01X5167100Y691400D02*
G01X5227100Y691400D01*
G01X5227100Y691400D02*
G01X5227100Y741400D01*
G01X5107100Y871400D02*
G01X5047100Y871400D01*
G01X5047100Y871400D02*
G01X5047100Y821400D01*
G01X5167100Y871400D02*
G01X5227100Y871400D01*
G01X5227100Y871400D02*
G01X5227100Y821400D01*
G36*
G01X5147100Y851400D02*
G01X5127100Y851400D01*
G01X5127100Y821400D01*
G01X5137100Y811400D01*
G01X5127100Y801400D01*
G01X5127100Y711400D01*
G01X5147100Y711400D01*
G01X5147100Y851400D01*
G37*
G01X5507100Y691400D02*
G01X5447100Y691400D01*
G01X5447100Y691400D02*
G01X5447100Y741400D01*
G01X5567100Y691400D02*
G01X5627100Y691400D01*
G01X5627100Y691400D02*
G01X5627100Y741400D01*
G01X5507100Y871400D02*
G01X5447100Y871400D01*
G01X5447100Y871400D02*
G01X5447100Y821400D01*
G01X5567100Y871400D02*
G01X5627100Y871400D01*
G01X5627100Y871400D02*
G01X5627100Y821400D01*
G36*
G01X5547100Y851400D02*
G01X5527100Y851400D01*
G01X5527100Y821400D01*
G01X5537100Y811400D01*
G01X5527100Y801400D01*
G01X5527100Y711400D01*
G01X5547100Y711400D01*
G01X5547100Y851400D01*
G37*
G01X5907100Y691400D02*
G01X5847100Y691400D01*
G01X5847100Y691400D02*
G01X5847100Y741400D01*
G01X5967100Y691400D02*
G01X6027100Y691400D01*
G01X6027100Y691400D02*
G01X6027100Y741400D01*
G01X5907100Y871400D02*
G01X5847100Y871400D01*
G01X5847100Y871400D02*
G01X5847100Y821400D01*
G01X5967100Y871400D02*
G01X6027100Y871400D01*
G01X6027100Y871400D02*
G01X6027100Y821400D01*
G36*
G01X5947100Y851400D02*
G01X5927100Y851400D01*
G01X5927100Y821400D01*
G01X5937100Y811400D01*
G01X5927100Y801400D01*
G01X5927100Y711400D01*
G01X5947100Y711400D01*
G01X5947100Y851400D01*
G37*
G01X6307100Y691400D02*
G01X6247100Y691400D01*
G01X6247100Y691400D02*
G01X6247100Y741400D01*
G01X6367100Y691400D02*
G01X6427100Y691400D01*
G01X6427100Y691400D02*
G01X6427100Y741400D01*
G01X6307100Y871400D02*
G01X6247100Y871400D01*
G01X6247100Y871400D02*
G01X6247100Y821400D01*
G01X6367100Y871400D02*
G01X6427100Y871400D01*
G01X6427100Y871400D02*
G01X6427100Y821400D01*
G36*
G01X6347100Y851400D02*
G01X6327100Y851400D01*
G01X6327100Y821400D01*
G01X6337100Y811400D01*
G01X6327100Y801400D01*
G01X6327100Y711400D01*
G01X6347100Y711400D01*
G01X6347100Y851400D01*
G37*
G01X6707100Y691400D02*
G01X6647100Y691400D01*
G01X6647100Y691400D02*
G01X6647100Y741400D01*
G01X6767100Y691400D02*
G01X6827100Y691400D01*
G01X6827100Y691400D02*
G01X6827100Y741400D01*
G01X6707100Y871400D02*
G01X6647100Y871400D01*
G01X6647100Y871400D02*
G01X6647100Y821400D01*
G01X6767100Y871400D02*
G01X6827100Y871400D01*
G01X6827100Y871400D02*
G01X6827100Y821400D01*
G36*
G01X6747100Y851400D02*
G01X6727100Y851400D01*
G01X6727100Y821400D01*
G01X6737100Y811400D01*
G01X6727100Y801400D01*
G01X6727100Y711400D01*
G01X6747100Y711400D01*
G01X6747100Y851400D01*
G37*
G01X7107100Y691400D02*
G01X7047100Y691400D01*
G01X7047100Y691400D02*
G01X7047100Y741400D01*
G01X7167100Y691400D02*
G01X7227100Y691400D01*
G01X7227100Y691400D02*
G01X7227100Y741400D01*
G01X7107100Y871400D02*
G01X7047100Y871400D01*
G01X7047100Y871400D02*
G01X7047100Y821400D01*
G01X7167100Y871400D02*
G01X7227100Y871400D01*
G01X7227100Y871400D02*
G01X7227100Y821400D01*
G36*
G01X7147100Y851400D02*
G01X7127100Y851400D01*
G01X7127100Y821400D01*
G01X7137100Y811400D01*
G01X7127100Y801400D01*
G01X7127100Y711400D01*
G01X7147100Y711400D01*
G01X7147100Y851400D01*
G37*
G01X7507100Y691400D02*
G01X7447100Y691400D01*
G01X7447100Y691400D02*
G01X7447100Y741400D01*
G01X7567100Y691400D02*
G01X7627100Y691400D01*
G01X7627100Y691400D02*
G01X7627100Y741400D01*
G01X7507100Y871400D02*
G01X7447100Y871400D01*
G01X7447100Y871400D02*
G01X7447100Y821400D01*
G01X7567100Y871400D02*
G01X7627100Y871400D01*
G01X7627100Y871400D02*
G01X7627100Y821400D01*
G36*
G01X7547100Y851400D02*
G01X7527100Y851400D01*
G01X7527100Y821400D01*
G01X7537100Y811400D01*
G01X7527100Y801400D01*
G01X7527100Y711400D01*
G01X7547100Y711400D01*
G01X7547100Y851400D01*
G37*
G54D11*
G01X6972781Y3904143D02*
G01X6892784Y3904143D01*
G01X7028826Y3904097D02*
G01X7108824Y3904097D01*
G01X6972781Y4046111D02*
G01X6892784Y4046111D01*
G01X7028826Y4046063D02*
G01X7108824Y4046063D01*
G01X6861809Y3935125D02*
G01X6861809Y4015130D01*
G01X7139802Y4015077D02*
G01X7139802Y3935075D01*
G01X7108819Y4046063D02*
G02X7139802Y4015077I0J-30983D01*
G01X7139802Y3935080D02*
G02X7108819Y3904097I-30983J0D01*
G01X6892789Y3904143D02*
G02X6861809Y3935125I3J30983D01*
G01X6861809Y4015123D02*
G02X6892789Y4046111I30983J5D01*
G01X4323243Y-289481D02*
G01X4323243Y-209484D01*
G01X4323197Y-345526D02*
G01X4323197Y-425524D01*
G01X4465211Y-289481D02*
G01X4465211Y-209484D01*
G01X4465163Y-345526D02*
G01X4465163Y-425524D01*
G01X4354225Y-178509D02*
G01X4434230Y-178509D01*
G01X4434177Y-456501D02*
G01X4354175Y-456501D01*
G01X4465163Y-425519D02*
G02X4434177Y-456501I-30983J0D01*
G01X4354180Y-456501D02*
G02X4323197Y-425519I0J30983D01*
G01X4323243Y-209489D02*
G02X4354225Y-178509I30983J-3D01*
G01X4434223Y-178509D02*
G02X4465211Y-209489I5J-30983D01*

G04 Circle Start*
G01X8184210Y3121812D02*
G03X8224190Y3121812I19990J0D01*
G03X8184210Y3121812I-19990J0D01*
G54D13*
G01X6017489Y215900D02*
G03X6047511Y215900I15011J0D01*
G03X6017489Y215900I-15011J0D01*
G54D11*
G01X7543292Y-88900D02*
G03X7798308Y-88900I127508J0D01*
G03X7543292Y-88900I-127508J0D01*
G01X6806692Y-12700D02*
G03X7061708Y-12700I127508J0D01*
G03X6806692Y-12700I-127508J0D01*
G01X7111670Y5217897D02*
G03X7145706Y5217897I17018J0D01*
G03X7111670Y5217897I-17018J0D01*
G01X7989494Y1987499D02*
G03X8009509Y1987499I10008J0D01*
G03X7989494Y1987499I-10008J0D01*
G54D14*
G01X6327712Y-432610D02*
G03X6342698Y-432610I7493J0D01*
G03X6327712Y-432610I-7493J0D01*
G01X4065372Y3140151D02*
G03X4080358Y3140151I7493J0D01*
G03X4065372Y3140151I-7493J0D01*
G54D12*
G01X5042104Y3211397D02*
G03X5052112Y3211397I5004J0D01*
G03X5042104Y3211397I-5004J0D01*
G01X4642104Y3211397D02*
G03X4652112Y3211397I5004J0D01*
G03X4642104Y3211397I-5004J0D01*
G01X7442104Y3611397D02*
G03X7452112Y3611397I5004J0D01*
G03X7442104Y3611397I-5004J0D01*
G01X7042104Y3611397D02*
G03X7052112Y3611397I5004J0D01*
G03X7042104Y3611397I-5004J0D01*
G01X6642104Y3611397D02*
G03X6652112Y3611397I5004J0D01*
G03X6642104Y3611397I-5004J0D01*
G01X6242104Y3611397D02*
G03X6252112Y3611397I5004J0D01*
G03X6242104Y3611397I-5004J0D01*
G01X5842104Y3611397D02*
G03X5852112Y3611397I5004J0D01*
G03X5842104Y3611397I-5004J0D01*
G01X5442104Y3611397D02*
G03X5452112Y3611397I5004J0D01*
G03X5442104Y3611397I-5004J0D01*
G01X5042104Y3611397D02*
G03X5052112Y3611397I5004J0D01*
G03X5042104Y3611397I-5004J0D01*
G01X4642104Y3611397D02*
G03X4652112Y3611397I5004J0D01*
G03X4642104Y3611397I-5004J0D01*
G01X5442104Y3211397D02*
G03X5452112Y3211397I5004J0D01*
G03X5442104Y3211397I-5004J0D01*
G01X5842104Y3211397D02*
G03X5852112Y3211397I5004J0D01*
G03X5842104Y3211397I-5004J0D01*
G01X6242104Y3211397D02*
G03X6252112Y3211397I5004J0D01*
G03X6242104Y3211397I-5004J0D01*
G01X6642104Y3211397D02*
G03X6652112Y3211397I5004J0D01*
G03X6642104Y3211397I-5004J0D01*
G01X7042104Y3211397D02*
G03X7052112Y3211397I5004J0D01*
G03X7042104Y3211397I-5004J0D01*
G01X7442104Y3211397D02*
G03X7452112Y3211397I5004J0D01*
G03X7442104Y3211397I-5004J0D01*
G01X4642104Y2811397D02*
G03X4652112Y2811397I5004J0D01*
G03X4642104Y2811397I-5004J0D01*
G01X5042104Y2811397D02*
G03X5052112Y2811397I5004J0D01*
G03X5042104Y2811397I-5004J0D01*
G01X5442104Y2811397D02*
G03X5452112Y2811397I5004J0D01*
G03X5442104Y2811397I-5004J0D01*
G01X5842104Y2811397D02*
G03X5852112Y2811397I5004J0D01*
G03X5842104Y2811397I-5004J0D01*
G01X6242104Y2811397D02*
G03X6252112Y2811397I5004J0D01*
G03X6242104Y2811397I-5004J0D01*
G01X6642104Y2811397D02*
G03X6652112Y2811397I5004J0D01*
G03X6642104Y2811397I-5004J0D01*
G01X7042104Y2811397D02*
G03X7052112Y2811397I5004J0D01*
G03X7042104Y2811397I-5004J0D01*
G01X7442104Y2811397D02*
G03X7452112Y2811397I5004J0D01*
G03X7442104Y2811397I-5004J0D01*
G01X4642104Y2411397D02*
G03X4652112Y2411397I5004J0D01*
G03X4642104Y2411397I-5004J0D01*
G01X5042104Y2411397D02*
G03X5052112Y2411397I5004J0D01*
G03X5042104Y2411397I-5004J0D01*
G01X5442104Y2411397D02*
G03X5452112Y2411397I5004J0D01*
G03X5442104Y2411397I-5004J0D01*
G01X5842104Y2411397D02*
G03X5852112Y2411397I5004J0D01*
G03X5842104Y2411397I-5004J0D01*
G01X6242104Y2411397D02*
G03X6252112Y2411397I5004J0D01*
G03X6242104Y2411397I-5004J0D01*
G01X6642104Y2411397D02*
G03X6652112Y2411397I5004J0D01*
G03X6642104Y2411397I-5004J0D01*
G01X7042104Y2411397D02*
G03X7052112Y2411397I5004J0D01*
G03X7042104Y2411397I-5004J0D01*
G01X7442104Y2411397D02*
G03X7452112Y2411397I5004J0D01*
G03X7442104Y2411397I-5004J0D01*
G01X4642104Y2011397D02*
G03X4652112Y2011397I5004J0D01*
G03X4642104Y2011397I-5004J0D01*
G01X5042104Y2011397D02*
G03X5052112Y2011397I5004J0D01*
G03X5042104Y2011397I-5004J0D01*
G01X5442104Y2011397D02*
G03X5452112Y2011397I5004J0D01*
G03X5442104Y2011397I-5004J0D01*
G01X5842104Y2011397D02*
G03X5852112Y2011397I5004J0D01*
G03X5842104Y2011397I-5004J0D01*
G01X6242104Y2011397D02*
G03X6252112Y2011397I5004J0D01*
G03X6242104Y2011397I-5004J0D01*
G01X6642104Y2011397D02*
G03X6652112Y2011397I5004J0D01*
G03X6642104Y2011397I-5004J0D01*
G01X7042104Y2011397D02*
G03X7052112Y2011397I5004J0D01*
G03X7042104Y2011397I-5004J0D01*
G01X7442104Y2011397D02*
G03X7452112Y2011397I5004J0D01*
G03X7442104Y2011397I-5004J0D01*
G01X4642104Y1611397D02*
G03X4652112Y1611397I5004J0D01*
G03X4642104Y1611397I-5004J0D01*
G01X5042104Y1611397D02*
G03X5052112Y1611397I5004J0D01*
G03X5042104Y1611397I-5004J0D01*
G01X5442104Y1611397D02*
G03X5452112Y1611397I5004J0D01*
G03X5442104Y1611397I-5004J0D01*
G01X5842104Y1611397D02*
G03X5852112Y1611397I5004J0D01*
G03X5842104Y1611397I-5004J0D01*
G01X6242104Y1611397D02*
G03X6252112Y1611397I5004J0D01*
G03X6242104Y1611397I-5004J0D01*
G01X6642104Y1611397D02*
G03X6652112Y1611397I5004J0D01*
G03X6642104Y1611397I-5004J0D01*
G01X7042104Y1611397D02*
G03X7052112Y1611397I5004J0D01*
G03X7042104Y1611397I-5004J0D01*
G01X7442104Y1611397D02*
G03X7452112Y1611397I5004J0D01*
G03X7442104Y1611397I-5004J0D01*
G01X4642104Y1211397D02*
G03X4652112Y1211397I5004J0D01*
G03X4642104Y1211397I-5004J0D01*
G01X5042104Y1211397D02*
G03X5052112Y1211397I5004J0D01*
G03X5042104Y1211397I-5004J0D01*
G01X5442104Y1211397D02*
G03X5452112Y1211397I5004J0D01*
G03X5442104Y1211397I-5004J0D01*
G01X5842104Y1211397D02*
G03X5852112Y1211397I5004J0D01*
G03X5842104Y1211397I-5004J0D01*
G01X6242104Y1211397D02*
G03X6252112Y1211397I5004J0D01*
G03X6242104Y1211397I-5004J0D01*
G01X6642104Y1211397D02*
G03X6652112Y1211397I5004J0D01*
G03X6642104Y1211397I-5004J0D01*
G01X7042104Y1211397D02*
G03X7052112Y1211397I5004J0D01*
G03X7042104Y1211397I-5004J0D01*
G01X7442104Y1211397D02*
G03X7452112Y1211397I5004J0D01*
G03X7442104Y1211397I-5004J0D01*
G01X4642104Y811397D02*
G03X4652112Y811397I5004J0D01*
G03X4642104Y811397I-5004J0D01*
G01X5042104Y811397D02*
G03X5052112Y811397I5004J0D01*
G03X5042104Y811397I-5004J0D01*
G01X5442104Y811397D02*
G03X5452112Y811397I5004J0D01*
G03X5442104Y811397I-5004J0D01*
G01X5842104Y811397D02*
G03X5852112Y811397I5004J0D01*
G03X5842104Y811397I-5004J0D01*
G01X6242104Y811397D02*
G03X6252112Y811397I5004J0D01*
G03X6242104Y811397I-5004J0D01*
G01X6642104Y811397D02*
G03X6652112Y811397I5004J0D01*
G03X6642104Y811397I-5004J0D01*
G01X7042104Y811397D02*
G03X7052112Y811397I5004J0D01*
G03X7042104Y811397I-5004J0D01*
G01X7442104Y811397D02*
G03X7452112Y811397I5004J0D01*
G03X7442104Y811397I-5004J0D01*
G04 Circle End*

M02*

