G04 Layer: TopPasteMaskLayer*
G04 EasyEDA Pro v2.2.47.7, 2026-05-16 15:29:02*
G04 Gerber Generator version 0.3*
G04 Scale: 100 percent, Rotated: No, Reflected: No*
G04 Dimensions in millimeters*
G04 Leading zeros omitted, absolute positions, 4 integers and 5 decimals*
G04 Generated by one-click*
G04 Object Configs: Pad,Via,Track,Text,Image,Dimension,BoardOutline,BoardCutout,CopperFilled,SolidRegion,FPCStiffener,Line,PlaneZone,ComponentProperty,ComponentSilkscreen,TearDrop*
G04 Layer Configs: 1,2,3,4,5,6,7,8,9,10,11,13,14,56*
G04 Copper Areas: 0*
%FSLAX45Y45*%
%MOMM*%
%AMRect*21,1,$1,$2,0,0,$3*%
%AMPolygonMacro1*4,1,5,-0.12499,0.72499,0.72499,0.72499,0.72499,-0.72499,-0.72499,-0.72499,-0.72499,0.12499,-0.12499,0.72499,0*%
%ADD10R,0.8X0.9*%
%ADD11R,0.9X0.8*%
%ADD12R,1.2X3.49999*%
%ADD13R,2.89999X0.8*%
%ADD14R,3.79999X1.8*%
%ADD15R,1.157X0.48999*%
%ADD16R,1.175X0.48999*%
%ADD17Rect,1.2085X2.2X100.0*%
%ADD18Rect,1.2X2.2X100.0*%
%ADD19R,0.75001X1.0*%
%ADD20R,1.0X0.75001*%
%ADD21R,1.2X0.6*%
%ADD22R,2.4X3.29999*%
%ADD23R,0.28001X0.7*%
%ADD24R,0.7X0.28001*%
%ADD25R,0.7X0.35001*%
%ADD26R,0.5X0.5*%
%ADD27R,0.8X0.4*%
%ADD28R,0.4X0.8*%
%ADD29R,0.7X0.7*%
%ADD30PolygonMacro1*%
%ADD31R,1.45001X1.45001*%
%ADD32R,1.1X0.6*%
G75*


G04 PolygonModel Start*
G36*
G01X6547399Y4985898D02*
G01X6547399Y5065898D01*
G01X6542397Y5070899D01*
G01X6519601Y5070899D01*
G01X6519601Y5033899D01*
G01X6486601Y5033899D01*
G01X6486601Y5070899D01*
G01X6462398Y5070899D01*
G01X6457399Y5065898D01*
G01X6457399Y4985898D01*
G01X6462398Y4980899D01*
G01X6542397Y4980899D01*
G01X6547399Y4985898D01*
G37*
G36*
G01X6457401Y5224902D02*
G01X6457401Y5144902D01*
G01X6462403Y5139901D01*
G01X6485199Y5139901D01*
G01X6485199Y5176901D01*
G01X6518199Y5176901D01*
G01X6518199Y5139901D01*
G01X6542402Y5139901D01*
G01X6547401Y5144902D01*
G01X6547401Y5224902D01*
G01X6542402Y5229901D01*
G01X6462403Y5229901D01*
G01X6457401Y5224902D01*
G37*
G36*
G01X5925099Y4985898D02*
G01X5925099Y5065898D01*
G01X5920097Y5070899D01*
G01X5897301Y5070899D01*
G01X5897301Y5033899D01*
G01X5864301Y5033899D01*
G01X5864301Y5070899D01*
G01X5840098Y5070899D01*
G01X5835099Y5065898D01*
G01X5835099Y4985898D01*
G01X5840098Y4980899D01*
G01X5920097Y4980899D01*
G01X5925099Y4985898D01*
G37*
G36*
G01X5835101Y5224902D02*
G01X5835101Y5144902D01*
G01X5840103Y5139901D01*
G01X5862899Y5139901D01*
G01X5862899Y5176901D01*
G01X5895899Y5176901D01*
G01X5895899Y5139901D01*
G01X5920102Y5139901D01*
G01X5925101Y5144902D01*
G01X5925101Y5224902D01*
G01X5920102Y5229901D01*
G01X5840103Y5229901D01*
G01X5835101Y5224902D01*
G37*
G36*
G01X6547998Y4527001D02*
G01X6627998Y4527001D01*
G01X6632999Y4532003D01*
G01X6632999Y4554799D01*
G01X6595999Y4554799D01*
G01X6595999Y4587799D01*
G01X6632999Y4587799D01*
G01X6632999Y4612002D01*
G01X6627998Y4617001D01*
G01X6547998Y4617001D01*
G01X6542999Y4612002D01*
G01X6542999Y4532003D01*
G01X6547998Y4527001D01*
G37*
G36*
G01X6787002Y4616999D02*
G01X6707002Y4616999D01*
G01X6702001Y4611997D01*
G01X6702001Y4589201D01*
G01X6739001Y4589201D01*
G01X6739001Y4556201D01*
G01X6702001Y4556201D01*
G01X6702001Y4531998D01*
G01X6707002Y4526999D01*
G01X6787002Y4526999D01*
G01X6792001Y4531998D01*
G01X6792001Y4611997D01*
G01X6787002Y4616999D01*
G37*
G36*
G01X8477799Y4033398D02*
G01X8477799Y4113398D01*
G01X8472797Y4118399D01*
G01X8450001Y4118399D01*
G01X8450001Y4081399D01*
G01X8417001Y4081399D01*
G01X8417001Y4118399D01*
G01X8392798Y4118399D01*
G01X8387799Y4113398D01*
G01X8387799Y4033398D01*
G01X8392798Y4028399D01*
G01X8472797Y4028399D01*
G01X8477799Y4033398D01*
G37*
G36*
G01X8387801Y4272402D02*
G01X8387801Y4192402D01*
G01X8392803Y4187401D01*
G01X8415599Y4187401D01*
G01X8415599Y4224401D01*
G01X8448599Y4224401D01*
G01X8448599Y4187401D01*
G01X8472802Y4187401D01*
G01X8477801Y4192402D01*
G01X8477801Y4272402D01*
G01X8472802Y4277401D01*
G01X8392803Y4277401D01*
G01X8387801Y4272402D01*
G37*
G36*
G01X5009601Y-203571D02*
G01X5009601Y-283571D01*
G01X5014603Y-288572D01*
G01X5037399Y-288572D01*
G01X5037399Y-251572D01*
G01X5070399Y-251572D01*
G01X5070399Y-288572D01*
G01X5094602Y-288572D01*
G01X5099601Y-283571D01*
G01X5099601Y-203571D01*
G01X5094602Y-198572D01*
G01X5014603Y-198572D01*
G01X5009601Y-203571D01*
G37*
G36*
G01X5099599Y-442575D02*
G01X5099599Y-362575D01*
G01X5094597Y-357574D01*
G01X5071801Y-357574D01*
G01X5071801Y-394574D01*
G01X5038801Y-394574D01*
G01X5038801Y-357574D01*
G01X5014598Y-357574D01*
G01X5009599Y-362575D01*
G01X5009599Y-442575D01*
G01X5014598Y-447573D01*
G01X5094597Y-447573D01*
G01X5099599Y-442575D01*
G37*
G36*
G01X5618602Y-350523D02*
G01X5538602Y-350523D01*
G01X5533601Y-355524D01*
G01X5533601Y-378320D01*
G01X5570601Y-378320D01*
G01X5570601Y-411320D01*
G01X5533601Y-411320D01*
G01X5533601Y-435524D01*
G01X5538602Y-440522D01*
G01X5618602Y-440522D01*
G01X5623601Y-435524D01*
G01X5623601Y-355524D01*
G01X5618602Y-350523D01*
G37*
G36*
G01X5379598Y-440520D02*
G01X5459598Y-440520D01*
G01X5464599Y-435519D01*
G01X5464599Y-412722D01*
G01X5427599Y-412722D01*
G01X5427599Y-379722D01*
G01X5464599Y-379722D01*
G01X5464599Y-355519D01*
G01X5459598Y-350520D01*
G01X5379598Y-350520D01*
G01X5374599Y-355519D01*
G01X5374599Y-435519D01*
G01X5379598Y-440520D01*
G37*
G36*
G01X4566199Y1239398D02*
G01X4566199Y1319398D01*
G01X4561197Y1324399D01*
G01X4538401Y1324399D01*
G01X4538401Y1287399D01*
G01X4505401Y1287399D01*
G01X4505401Y1324399D01*
G01X4481198Y1324399D01*
G01X4476199Y1319398D01*
G01X4476199Y1239398D01*
G01X4481198Y1234399D01*
G01X4561197Y1234399D01*
G01X4566199Y1239398D01*
G37*
G36*
G01X4476201Y1478402D02*
G01X4476201Y1398402D01*
G01X4481203Y1393401D01*
G01X4503999Y1393401D01*
G01X4503999Y1430401D01*
G01X4536999Y1430401D01*
G01X4536999Y1393401D01*
G01X4561202Y1393401D01*
G01X4566201Y1398402D01*
G01X4566201Y1478402D01*
G01X4561202Y1483401D01*
G01X4481203Y1483401D01*
G01X4476201Y1478402D01*
G37*
G36*
G01X5885901Y4628002D02*
G01X5885901Y4548002D01*
G01X5890903Y4543001D01*
G01X5913699Y4543001D01*
G01X5913699Y4580001D01*
G01X5946699Y4580001D01*
G01X5946699Y4543001D01*
G01X5970902Y4543001D01*
G01X5975901Y4548002D01*
G01X5975901Y4628002D01*
G01X5970902Y4633001D01*
G01X5890903Y4633001D01*
G01X5885901Y4628002D01*
G37*
G36*
G01X5975899Y4388998D02*
G01X5975899Y4468998D01*
G01X5970897Y4473999D01*
G01X5948101Y4473999D01*
G01X5948101Y4436999D01*
G01X5915101Y4436999D01*
G01X5915101Y4473999D01*
G01X5890898Y4473999D01*
G01X5885899Y4468998D01*
G01X5885899Y4388998D01*
G01X5890898Y4383999D01*
G01X5970897Y4383999D01*
G01X5975899Y4388998D01*
G37*
G36*
G01X4528099Y3296798D02*
G01X4528099Y3376798D01*
G01X4523097Y3381799D01*
G01X4500301Y3381799D01*
G01X4500301Y3344799D01*
G01X4467301Y3344799D01*
G01X4467301Y3381799D01*
G01X4443098Y3381799D01*
G01X4438099Y3376798D01*
G01X4438099Y3296798D01*
G01X4443098Y3291799D01*
G01X4523097Y3291799D01*
G01X4528099Y3296798D01*
G37*
G36*
G01X4438101Y3535802D02*
G01X4438101Y3455802D01*
G01X4443103Y3450801D01*
G01X4465899Y3450801D01*
G01X4465899Y3487801D01*
G01X4498899Y3487801D01*
G01X4498899Y3450801D01*
G01X4523102Y3450801D01*
G01X4528101Y3455802D01*
G01X4528101Y3535802D01*
G01X4523102Y3540801D01*
G01X4443103Y3540801D01*
G01X4438101Y3535802D01*
G37*
G36*
G01X8490499Y4388998D02*
G01X8490499Y4468998D01*
G01X8485497Y4473999D01*
G01X8462701Y4473999D01*
G01X8462701Y4436999D01*
G01X8429701Y4436999D01*
G01X8429701Y4473999D01*
G01X8405498Y4473999D01*
G01X8400499Y4468998D01*
G01X8400499Y4388998D01*
G01X8405498Y4383999D01*
G01X8485497Y4383999D01*
G01X8490499Y4388998D01*
G37*
G36*
G01X8400501Y4628002D02*
G01X8400501Y4548002D01*
G01X8405503Y4543001D01*
G01X8428299Y4543001D01*
G01X8428299Y4580001D01*
G01X8461299Y4580001D01*
G01X8461299Y4543001D01*
G01X8485502Y4543001D01*
G01X8490501Y4548002D01*
G01X8490501Y4628002D01*
G01X8485502Y4633001D01*
G01X8405503Y4633001D01*
G01X8400501Y4628002D01*
G37*
G36*
G01X8160299Y4414398D02*
G01X8160299Y4494398D01*
G01X8155297Y4499399D01*
G01X8132501Y4499399D01*
G01X8132501Y4462399D01*
G01X8099501Y4462399D01*
G01X8099501Y4499399D01*
G01X8075298Y4499399D01*
G01X8070299Y4494398D01*
G01X8070299Y4414398D01*
G01X8075298Y4409399D01*
G01X8155297Y4409399D01*
G01X8160299Y4414398D01*
G37*
G36*
G01X8070301Y4653402D02*
G01X8070301Y4573402D01*
G01X8075303Y4568401D01*
G01X8098099Y4568401D01*
G01X8098099Y4605401D01*
G01X8131099Y4605401D01*
G01X8131099Y4568401D01*
G01X8155302Y4568401D01*
G01X8160301Y4573402D01*
G01X8160301Y4653402D01*
G01X8155302Y4658401D01*
G01X8075303Y4658401D01*
G01X8070301Y4653402D01*
G37*
G36*
G01X4205227Y4194597D02*
G01X4288788Y4095013D01*
G01X4311769Y4114297D01*
G01X4311771Y4114298D01*
G01X4334753Y4133582D01*
G01X4251192Y4233166D01*
G01X4228211Y4213882D01*
G01X4228209Y4213880D01*
G01X4205227Y4194597D01*
G37*
G36*
G01X4519321Y4458132D02*
G01X4602885Y4358545D01*
G01X4625866Y4377828D01*
G01X4542302Y4477416D01*
G01X4519321Y4458132D01*
G37*
G36*
G01X4695505Y4605968D02*
G01X4779069Y4506381D01*
G01X4802050Y4525664D01*
G01X4802040Y4525676D01*
G01X4825019Y4544958D01*
G01X4741456Y4644545D01*
G01X4718474Y4625262D01*
G01X4718484Y4625250D01*
G01X4695505Y4605968D01*
G37*
G36*
G01X4442716Y4393854D02*
G01X4526280Y4294266D01*
G01X4549262Y4313550D01*
G01X4465698Y4413137D01*
G01X4442716Y4393854D01*
G37*
G36*
G01X4327799Y4297430D02*
G01X4411362Y4197842D01*
G01X4434344Y4217126D01*
G01X4350780Y4316713D01*
G01X4327799Y4297430D01*
G37*
G36*
G01X4664157Y4409961D02*
G01X4580593Y4509549D01*
G01X4557611Y4490265D01*
G01X4641175Y4390678D01*
G01X4664157Y4409961D01*
G37*
G36*
G01X4366130Y4329593D02*
G01X4449694Y4230006D01*
G01X4472675Y4249289D01*
G01X4389111Y4348877D01*
G01X4366130Y4329593D01*
G37*
G36*
G01X4404403Y4361708D02*
G01X4487967Y4262121D01*
G01X4510948Y4281404D01*
G01X4427384Y4380992D01*
G01X4404403Y4361708D01*
G37*
G36*
G01X4595923Y4522413D02*
G01X4679487Y4422825D01*
G01X4702468Y4442109D01*
G01X4618905Y4541696D01*
G01X4595923Y4522413D01*
G37*
G36*
G01X4481007Y4425987D02*
G01X4564571Y4326399D01*
G01X4587552Y4345683D01*
G01X4503988Y4445270D01*
G01X4481007Y4425987D01*
G37*
G36*
G01X4634215Y4554553D02*
G01X4717775Y4454970D01*
G01X4740759Y4474255D01*
G01X4740757Y4474257D01*
G01X4763734Y4493537D01*
G01X4680174Y4593121D01*
G01X4657191Y4573835D01*
G01X4657192Y4573833D01*
G01X4634215Y4554553D01*
G37*
G36*
G01X4857802Y4627288D02*
G01X4860187Y4629093D01*
G01X4862479Y4631017D01*
G01X4864671Y4633052D01*
G01X4866760Y4635193D01*
G01X4868739Y4637437D01*
G01X4870604Y4639775D01*
G01X4872351Y4642206D01*
G01X4873974Y4644717D01*
G01X4875470Y4647309D01*
G01X4876835Y4649970D01*
G01X4878067Y4652698D01*
G01X4879158Y4655483D01*
G01X4880111Y4658319D01*
G01X4880922Y4661198D01*
G01X4881586Y4664116D01*
G01X4882105Y4667062D01*
G01X4882479Y4670031D01*
G01X4882702Y4673013D01*
G01X4882778Y4676005D01*
G01X4882702Y4678995D01*
G01X4882478Y4681977D01*
G01X4882105Y4684947D01*
G01X4881586Y4687893D01*
G01X4880922Y4690810D01*
G01X4880112Y4693688D01*
G01X4879157Y4696525D01*
G01X4878067Y4699310D01*
G01X4876836Y4702038D01*
G01X4875471Y4704699D01*
G01X4873974Y4707289D01*
G01X4872352Y4709804D01*
G01X4870605Y4712234D01*
G01X4868739Y4714571D01*
G01X4817317Y4775855D01*
G01X4815338Y4778098D01*
G01X4813249Y4780240D01*
G01X4811054Y4782275D01*
G01X4808763Y4784199D01*
G01X4806379Y4786005D01*
G01X4803907Y4787690D01*
G01X4801353Y4789248D01*
G01X4798726Y4790680D01*
G01X4796032Y4791978D01*
G01X4793274Y4793139D01*
G01X4790463Y4794162D01*
G01X4787603Y4795045D01*
G01X4784706Y4795783D01*
G01X4781774Y4796377D01*
G01X4778814Y4796821D01*
G01X4775839Y4797120D01*
G01X4772850Y4797268D01*
G01X4769859Y4797268D01*
G01X4766869Y4797120D01*
G01X4763893Y4796822D01*
G01X4760936Y4796375D01*
G01X4758003Y4795785D01*
G01X4755102Y4795045D01*
G01X4752245Y4794163D01*
G01X4749433Y4793139D01*
G01X4746677Y4791978D01*
G01X4743980Y4790680D01*
G01X4741354Y4789249D01*
G01X4738800Y4787689D01*
G01X4736329Y4786003D01*
G01X4733944Y4784198D01*
G01X4731652Y4782275D01*
G01X4729460Y4780240D01*
G01X4727371Y4778099D01*
G01X4725391Y4775854D01*
G01X4723526Y4773517D01*
G01X4721780Y4771086D01*
G01X4720157Y4768574D01*
G01X4718661Y4765983D01*
G01X4717296Y4763322D01*
G01X4716064Y4760594D01*
G01X4714973Y4757808D01*
G01X4714020Y4754973D01*
G01X4713209Y4752094D01*
G01X4712545Y4749176D01*
G01X4712025Y4746230D01*
G01X4711652Y4743261D01*
G01X4711429Y4740278D01*
G01X4711353Y4737287D01*
G01X4711429Y4734296D01*
G01X4711653Y4731315D01*
G01X4712026Y4728345D01*
G01X4712545Y4725399D01*
G01X4713209Y4722481D01*
G01X4714019Y4719603D01*
G01X4714974Y4716767D01*
G01X4716064Y4713981D01*
G01X4717295Y4711254D01*
G01X4718659Y4708593D01*
G01X4720156Y4706002D01*
G01X4721779Y4703488D01*
G01X4723526Y4701058D01*
G01X4725391Y4698720D01*
G01X4776814Y4637437D01*
G01X4778792Y4635194D01*
G01X4780882Y4633052D01*
G01X4783077Y4631017D01*
G01X4785368Y4629093D01*
G01X4787752Y4627287D01*
G01X4790224Y4625601D01*
G01X4792777Y4624044D01*
G01X4795405Y4622611D01*
G01X4798099Y4621314D01*
G01X4800857Y4620153D01*
G01X4803668Y4619130D01*
G01X4806528Y4618247D01*
G01X4809425Y4617508D01*
G01X4812357Y4616915D01*
G01X4815317Y4616470D01*
G01X4818292Y4616172D01*
G01X4821281Y4616024D01*
G01X4824272Y4616024D01*
G01X4827262Y4616172D01*
G01X4830237Y4616470D01*
G01X4833195Y4616916D01*
G01X4836128Y4617507D01*
G01X4839029Y4618247D01*
G01X4841886Y4619129D01*
G01X4844698Y4620152D01*
G01X4847454Y4621314D01*
G01X4850151Y4622612D01*
G01X4852776Y4624043D01*
G01X4855331Y4625602D01*
G01X4857802Y4627288D01*
G37*
G36*
G01X4195156Y4071263D02*
G01X4197541Y4073068D01*
G01X4199833Y4074991D01*
G01X4202025Y4077026D01*
G01X4204114Y4079167D01*
G01X4206094Y4081412D01*
G01X4207959Y4083749D01*
G01X4209706Y4086180D01*
G01X4211328Y4088692D01*
G01X4212824Y4091283D01*
G01X4214189Y4093944D01*
G01X4215421Y4096672D01*
G01X4216512Y4099458D01*
G01X4217465Y4102293D01*
G01X4218276Y4105172D01*
G01X4218941Y4108090D01*
G01X4219460Y4111036D01*
G01X4219833Y4114005D01*
G01X4220056Y4116987D01*
G01X4220132Y4119979D01*
G01X4220057Y4122970D01*
G01X4219833Y4125951D01*
G01X4219460Y4128921D01*
G01X4218940Y4131867D01*
G01X4218276Y4134785D01*
G01X4217466Y4137663D01*
G01X4216512Y4140499D01*
G01X4215421Y4143285D01*
G01X4214190Y4146012D01*
G01X4212826Y4148673D01*
G01X4211329Y4151264D01*
G01X4209706Y4153778D01*
G01X4207959Y4156208D01*
G01X4206094Y4158546D01*
G01X4154671Y4219829D01*
G01X4152693Y4222072D01*
G01X4150603Y4224214D01*
G01X4148409Y4226249D01*
G01X4146118Y4228173D01*
G01X4143734Y4229979D01*
G01X4141262Y4231665D01*
G01X4138708Y4233222D01*
G01X4136080Y4234655D01*
G01X4133387Y4235952D01*
G01X4130629Y4237113D01*
G01X4127817Y4238136D01*
G01X4124958Y4239019D01*
G01X4122060Y4239757D01*
G01X4119128Y4240351D01*
G01X4116169Y4240796D01*
G01X4113193Y4241094D01*
G01X4110204Y4241242D01*
G01X4107213Y4241242D01*
G01X4104224Y4241094D01*
G01X4101248Y4240796D01*
G01X4098290Y4240350D01*
G01X4095357Y4239759D01*
G01X4092457Y4239019D01*
G01X4089599Y4238137D01*
G01X4086787Y4237114D01*
G01X4084032Y4235952D01*
G01X4081335Y4234654D01*
G01X4078709Y4233223D01*
G01X4076155Y4231664D01*
G01X4073683Y4229978D01*
G01X4071299Y4228172D01*
G01X4069007Y4226249D01*
G01X4066815Y4224214D01*
G01X4064725Y4222073D01*
G01X4062746Y4219829D01*
G01X4060881Y4217491D01*
G01X4059134Y4215060D01*
G01X4057512Y4212548D01*
G01X4056016Y4209957D01*
G01X4054651Y4207296D01*
G01X4053418Y4204568D01*
G01X4052327Y4201783D01*
G01X4051374Y4198947D01*
G01X4050564Y4196068D01*
G01X4049899Y4193150D01*
G01X4049380Y4190204D01*
G01X4049007Y4187235D01*
G01X4048783Y4184253D01*
G01X4048707Y4181261D01*
G01X4048783Y4178271D01*
G01X4049007Y4175289D01*
G01X4049380Y4172319D01*
G01X4049899Y4169373D01*
G01X4050564Y4166456D01*
G01X4051374Y4163578D01*
G01X4052328Y4160741D01*
G01X4053419Y4157956D01*
G01X4054649Y4155228D01*
G01X4056014Y4152567D01*
G01X4057511Y4149977D01*
G01X4059133Y4147462D01*
G01X4060881Y4145032D01*
G01X4062746Y4142695D01*
G01X4114169Y4081411D01*
G01X4116147Y4079168D01*
G01X4118236Y4077026D01*
G01X4120431Y4074991D01*
G01X4122722Y4073067D01*
G01X4125106Y4071261D01*
G01X4127578Y4069576D01*
G01X4130132Y4068018D01*
G01X4132760Y4066586D01*
G01X4135453Y4065288D01*
G01X4138211Y4064127D01*
G01X4141022Y4063104D01*
G01X4143882Y4062221D01*
G01X4146780Y4061483D01*
G01X4149712Y4060889D01*
G01X4152671Y4060445D01*
G01X4155647Y4060146D01*
G01X4158636Y4059998D01*
G01X4161627Y4059998D01*
G01X4164616Y4060146D01*
G01X4167592Y4060444D01*
G01X4170550Y4060891D01*
G01X4173483Y4061481D01*
G01X4176383Y4062221D01*
G01X4179240Y4063103D01*
G01X4182052Y4064126D01*
G01X4184808Y4065288D01*
G01X4187505Y4066586D01*
G01X4190131Y4068017D01*
G01X4192685Y4069577D01*
G01X4195156Y4071263D01*
G37*
G36*
G01X4587372Y4958876D02*
G01X4589564Y4960911D01*
G01X4591653Y4963052D01*
G01X4593633Y4965297D01*
G01X4595498Y4967634D01*
G01X4597245Y4970065D01*
G01X4598867Y4972577D01*
G01X4600363Y4975168D01*
G01X4601728Y4977829D01*
G01X4602960Y4980557D01*
G01X4604051Y4983343D01*
G01X4605004Y4986178D01*
G01X4605815Y4989057D01*
G01X4606480Y4991975D01*
G01X4606999Y4994921D01*
G01X4607372Y4997890D01*
G01X4607595Y5000873D01*
G01X4607671Y5003864D01*
G01X4607596Y5006855D01*
G01X4607372Y5009836D01*
G01X4606999Y5012806D01*
G01X4606479Y5015752D01*
G01X4605815Y5018670D01*
G01X4605005Y5021548D01*
G01X4604051Y5024384D01*
G01X4602960Y5027170D01*
G01X4601729Y5029897D01*
G01X4600365Y5032558D01*
G01X4598868Y5035149D01*
G01X4597245Y5037663D01*
G01X4595498Y5040093D01*
G01X4593633Y5042431D01*
G01X4555066Y5088393D01*
G01X4553088Y5090636D01*
G01X4550998Y5092779D01*
G01X4548803Y5094813D01*
G01X4546512Y5096737D01*
G01X4544128Y5098543D01*
G01X4541656Y5100229D01*
G01X4539103Y5101786D01*
G01X4536475Y5103219D01*
G01X4533781Y5104516D01*
G01X4531023Y5105677D01*
G01X4528212Y5106700D01*
G01X4525352Y5107583D01*
G01X4522455Y5108322D01*
G01X4519523Y5108915D01*
G01X4516563Y5109360D01*
G01X4513588Y5109658D01*
G01X4510599Y5109806D01*
G01X4507608Y5109806D01*
G01X4504618Y5109659D01*
G01X4501643Y5109360D01*
G01X4498685Y5108914D01*
G01X4495752Y5108323D01*
G01X4492851Y5107583D01*
G01X4489994Y5106701D01*
G01X4487182Y5105678D01*
G01X4484426Y5104516D01*
G01X4481729Y5103218D01*
G01X4479103Y5101787D01*
G01X4476549Y5100228D01*
G01X4474078Y5098542D01*
G01X4471693Y5096737D01*
G01X4469401Y5094813D01*
G01X4467209Y5092778D01*
G01X4465120Y5090637D01*
G01X4463141Y5088393D01*
G01X4461276Y5086055D01*
G01X4459529Y5083625D01*
G01X4457906Y5081113D01*
G01X4456410Y5078521D01*
G01X4455045Y5075860D01*
G01X4453813Y5073132D01*
G01X4452722Y5070347D01*
G01X4451769Y5067511D01*
G01X4450958Y5064633D01*
G01X4450294Y5061714D01*
G01X4449775Y5058768D01*
G01X4449401Y5055799D01*
G01X4449178Y5052817D01*
G01X4449102Y5049825D01*
G01X4449178Y5046835D01*
G01X4449402Y5043853D01*
G01X4449775Y5040884D01*
G01X4450294Y5037937D01*
G01X4450958Y5035020D01*
G01X4451768Y5032142D01*
G01X4452723Y5029305D01*
G01X4453813Y5026520D01*
G01X4455044Y5023792D01*
G01X4456409Y5021131D01*
G01X4457906Y5018541D01*
G01X4459528Y5016026D01*
G01X4461275Y5013596D01*
G01X4463140Y5011259D01*
G01X4501708Y4965296D01*
G01X4503686Y4963053D01*
G01X4505775Y4960911D01*
G01X4507970Y4958876D01*
G01X4510261Y4956952D01*
G01X4512645Y4955146D01*
G01X4515117Y4953461D01*
G01X4517671Y4951903D01*
G01X4520299Y4950471D01*
G01X4522992Y4949173D01*
G01X4525750Y4948012D01*
G01X4528561Y4946989D01*
G01X4531421Y4946106D01*
G01X4534319Y4945368D01*
G01X4537251Y4944774D01*
G01X4540210Y4944330D01*
G01X4543186Y4944031D01*
G01X4546175Y4943883D01*
G01X4549166Y4943883D01*
G01X4552155Y4944031D01*
G01X4555131Y4944329D01*
G01X4558089Y4944776D01*
G01X4561021Y4945366D01*
G01X4563922Y4946106D01*
G01X4566779Y4946988D01*
G01X4569591Y4948011D01*
G01X4572347Y4949173D01*
G01X4575044Y4950471D01*
G01X4577670Y4951902D01*
G01X4580224Y4953462D01*
G01X4582695Y4955148D01*
G01X4585080Y4956953D01*
G01X4587372Y4958876D01*
G37*
G36*
G01X3920050Y4399122D02*
G01X3922434Y4400927D01*
G01X3924726Y4402850D01*
G01X3926918Y4404885D01*
G01X3929008Y4407026D01*
G01X3930987Y4409271D01*
G01X3932852Y4411608D01*
G01X3934599Y4414039D01*
G01X3936222Y4416551D01*
G01X3937718Y4419143D01*
G01X3939083Y4421803D01*
G01X3940315Y4424531D01*
G01X3941406Y4427317D01*
G01X3942359Y4430153D01*
G01X3943169Y4433031D01*
G01X3943834Y4435950D01*
G01X3944353Y4438895D01*
G01X3944727Y4441865D01*
G01X3944950Y4444847D01*
G01X3945026Y4447838D01*
G01X3944950Y4450829D01*
G01X3944726Y4453811D01*
G01X3944353Y4456780D01*
G01X3943834Y4459727D01*
G01X3943169Y4462644D01*
G01X3942359Y4465522D01*
G01X3941405Y4468359D01*
G01X3940314Y4471144D01*
G01X3939084Y4473871D01*
G01X3937719Y4476533D01*
G01X3936222Y4479123D01*
G01X3934600Y4481638D01*
G01X3932852Y4484067D01*
G01X3930987Y4486405D01*
G01X3892420Y4532368D01*
G01X3890442Y4534610D01*
G01X3888352Y4536753D01*
G01X3886158Y4538787D01*
G01X3883867Y4540711D01*
G01X3881483Y4542517D01*
G01X3879011Y4544203D01*
G01X3876457Y4545761D01*
G01X3873829Y4547193D01*
G01X3871136Y4548491D01*
G01X3868378Y4549651D01*
G01X3865566Y4550674D01*
G01X3862707Y4551558D01*
G01X3859809Y4552296D01*
G01X3856877Y4552890D01*
G01X3853918Y4553334D01*
G01X3850942Y4553632D01*
G01X3847953Y4553780D01*
G01X3844962Y4553781D01*
G01X3841973Y4553633D01*
G01X3838997Y4553334D01*
G01X3836039Y4552888D01*
G01X3833106Y4552297D01*
G01X3830206Y4551558D01*
G01X3827348Y4550676D01*
G01X3824536Y4549652D01*
G01X3821781Y4548491D01*
G01X3819084Y4547192D01*
G01X3816458Y4545762D01*
G01X3813904Y4544202D01*
G01X3811432Y4542516D01*
G01X3809048Y4540711D01*
G01X3806756Y4538788D01*
G01X3804564Y4536753D01*
G01X3802474Y4534612D01*
G01X3800495Y4532367D01*
G01X3798630Y4530030D01*
G01X3796883Y4527599D01*
G01X3795261Y4525087D01*
G01X3793765Y4522495D01*
G01X3792400Y4519835D01*
G01X3791168Y4517107D01*
G01X3790076Y4514321D01*
G01X3789123Y4511485D01*
G01X3788313Y4508607D01*
G01X3787648Y4505688D01*
G01X3787129Y4502743D01*
G01X3786756Y4499774D01*
G01X3786533Y4496791D01*
G01X3786456Y4493800D01*
G01X3786532Y4490809D01*
G01X3786756Y4487827D01*
G01X3787129Y4484858D01*
G01X3787648Y4481912D01*
G01X3788313Y4478994D01*
G01X3789123Y4476116D01*
G01X3790077Y4473279D01*
G01X3791168Y4470494D01*
G01X3792398Y4467767D01*
G01X3793763Y4465105D01*
G01X3795260Y4462515D01*
G01X3796882Y4460001D01*
G01X3798630Y4457571D01*
G01X3800495Y4455233D01*
G01X3839062Y4409271D01*
G01X3841040Y4407028D01*
G01X3843130Y4404885D01*
G01X3845324Y4402851D01*
G01X3847615Y4400927D01*
G01X3849999Y4399121D01*
G01X3852472Y4397435D01*
G01X3855025Y4395877D01*
G01X3857653Y4394445D01*
G01X3860347Y4393147D01*
G01X3863104Y4391987D01*
G01X3865916Y4390964D01*
G01X3868775Y4390081D01*
G01X3871673Y4389342D01*
G01X3874605Y4388748D01*
G01X3877564Y4388304D01*
G01X3880540Y4388006D01*
G01X3883529Y4387858D01*
G01X3886520Y4387857D01*
G01X3889509Y4388005D01*
G01X3892485Y4388304D01*
G01X3895443Y4388750D01*
G01X3898376Y4389341D01*
G01X3901277Y4390080D01*
G01X3904134Y4390963D01*
G01X3906946Y4391986D01*
G01X3909701Y4393147D01*
G01X3912398Y4394446D01*
G01X3915024Y4395876D01*
G01X3917578Y4397436D01*
G01X3920050Y4399122D01*
G37*
G36*
G01X4266512Y4245994D02*
G01X4350073Y4146411D01*
G01X4373054Y4165694D01*
G01X4373056Y4165696D01*
G01X4396037Y4184979D01*
G01X4312477Y4284563D01*
G01X4289496Y4265279D01*
G01X4289494Y4265278D01*
G01X4266512Y4245994D01*
G37*
G36*
G01X4565101Y475102D02*
G01X4565101Y395102D01*
G01X4570103Y390101D01*
G01X4592899Y390101D01*
G01X4592899Y427101D01*
G01X4625899Y427101D01*
G01X4625899Y390101D01*
G01X4650102Y390101D01*
G01X4655101Y395102D01*
G01X4655101Y475102D01*
G01X4650102Y480101D01*
G01X4570103Y480101D01*
G01X4565101Y475102D01*
G37*
G36*
G01X4655099Y236098D02*
G01X4655099Y316098D01*
G01X4650097Y321099D01*
G01X4627301Y321099D01*
G01X4627301Y284099D01*
G01X4594301Y284099D01*
G01X4594301Y321099D01*
G01X4570098Y321099D01*
G01X4565099Y316098D01*
G01X4565099Y236098D01*
G01X4570098Y231099D01*
G01X4650097Y231099D01*
G01X4655099Y236098D01*
G37*

G04 Pad Start*
G54D10*
G01X6762902Y4279900D03*
G01X6622898Y4279900D03*
G01X7702702Y3975100D03*
G01X7562698Y3975100D03*
G01X6470802Y3975100D03*
G01X6330798Y3975100D03*
G54D11*
G01X2959100Y3079902D03*
G01X2959100Y2939898D03*
G54D10*
G01X6770802Y3975100D03*
G01X6630798Y3975100D03*
G01X7370802Y3975100D03*
G01X7230798Y3975100D03*
G54D11*
G01X8216900Y4184802D03*
G01X8216900Y4044798D03*
G01X4762500Y-387502D03*
G01X4762500Y-247498D03*
G54D12*
G01X3581387Y2933413D03*
G01X3581387Y3467397D03*
G54D13*
G01X8273999Y3364306D03*
G01X8273999Y3214294D03*
G54D14*
G01X8744001Y2954299D03*
G01X8744001Y3624301D03*
G54D15*
G01X6031433Y145796D03*
G01X6031433Y50800D03*
G01X6031433Y-44196D03*
G54D16*
G01X6262167Y-44196D03*
G01X6262167Y145796D03*
G54D18*
G01X3245890Y2011489D03*
G01X3289300Y1765300D03*
G01X3332710Y1519111D03*
G54D19*
G01X7855788Y211099D03*
G01X7855788Y-388899D03*
G01X7485812Y211099D03*
G01X7485812Y-388899D03*
G54D20*
G01X7234199Y-197688D03*
G01X6634201Y-197688D03*
G01X7234199Y172288D03*
G01X6634201Y172288D03*
G54D21*
G01X7087870Y5105400D03*
G01X7087870Y4978400D03*
G01X7087870Y4851400D03*
G01X7087870Y4724400D03*
G01X7669530Y4724400D03*
G01X7669530Y4851400D03*
G01X7669530Y4978400D03*
G01X7669530Y5105400D03*
G54D22*
G01X7378700Y4914900D03*
G54D23*
G01X6197181Y-453108D03*
G01X6147194Y-453108D03*
G54D24*
G01X6074702Y-430604D03*
G01X6074702Y-380591D03*
G01X6074702Y-330604D03*
G01X6074702Y-280591D03*
G54D23*
G01X6147194Y-258112D03*
G01X6197181Y-258112D03*
G54D24*
G01X6269698Y-280591D03*
G01X6269698Y-330604D03*
G01X6269698Y-380591D03*
G01X6269698Y-430604D03*
G54D25*
G01X4259605Y3074899D03*
G01X4259605Y2944901D03*
G01X4071595Y2944901D03*
G01X4071595Y3009900D03*
G01X4071595Y3074899D03*
G54D26*
G01X5092091Y3226409D03*
G01X5182109Y3226409D03*
G01X5182109Y3136391D03*
G01X5092091Y3136391D03*
G01X4692091Y3226409D03*
G01X4782109Y3226409D03*
G01X4782109Y3136391D03*
G01X4692091Y3136391D03*
G01X7492091Y3626409D03*
G01X7582109Y3626409D03*
G01X7582109Y3536391D03*
G01X7492091Y3536391D03*
G01X7092091Y3626409D03*
G01X7182109Y3626409D03*
G01X7182109Y3536391D03*
G01X7092091Y3536391D03*
G01X6692091Y3626409D03*
G01X6782109Y3626409D03*
G01X6782109Y3536391D03*
G01X6692091Y3536391D03*
G01X6292091Y3626409D03*
G01X6382109Y3626409D03*
G01X6382109Y3536391D03*
G01X6292091Y3536391D03*
G01X5892091Y3626409D03*
G01X5982109Y3626409D03*
G01X5982109Y3536391D03*
G01X5892091Y3536391D03*
G01X5492091Y3626409D03*
G01X5582109Y3626409D03*
G01X5582109Y3536391D03*
G01X5492091Y3536391D03*
G01X5092091Y3626409D03*
G01X5182109Y3626409D03*
G01X5182109Y3536391D03*
G01X5092091Y3536391D03*
G01X4692091Y3626409D03*
G01X4782109Y3626409D03*
G01X4782109Y3536391D03*
G01X4692091Y3536391D03*
G01X5492091Y3226409D03*
G01X5582109Y3226409D03*
G01X5582109Y3136391D03*
G01X5492091Y3136391D03*
G01X5892091Y3226409D03*
G01X5982109Y3226409D03*
G01X5982109Y3136391D03*
G01X5892091Y3136391D03*
G01X6292091Y3226409D03*
G01X6382109Y3226409D03*
G01X6382109Y3136391D03*
G01X6292091Y3136391D03*
G01X6692091Y3226409D03*
G01X6782109Y3226409D03*
G01X6782109Y3136391D03*
G01X6692091Y3136391D03*
G01X7092091Y3226409D03*
G01X7182109Y3226409D03*
G01X7182109Y3136391D03*
G01X7092091Y3136391D03*
G01X7492091Y3226409D03*
G01X7582109Y3226409D03*
G01X7582109Y3136391D03*
G01X7492091Y3136391D03*
G01X4692091Y2826409D03*
G01X4782109Y2826409D03*
G01X4782109Y2736391D03*
G01X4692091Y2736391D03*
G01X5092091Y2826409D03*
G01X5182109Y2826409D03*
G01X5182109Y2736391D03*
G01X5092091Y2736391D03*
G01X5492091Y2826409D03*
G01X5582109Y2826409D03*
G01X5582109Y2736391D03*
G01X5492091Y2736391D03*
G01X5892091Y2826409D03*
G01X5982109Y2826409D03*
G01X5982109Y2736391D03*
G01X5892091Y2736391D03*
G01X6292091Y2826409D03*
G01X6382109Y2826409D03*
G01X6382109Y2736391D03*
G01X6292091Y2736391D03*
G01X6692091Y2826409D03*
G01X6782109Y2826409D03*
G01X6782109Y2736391D03*
G01X6692091Y2736391D03*
G01X7092091Y2826409D03*
G01X7182109Y2826409D03*
G01X7182109Y2736391D03*
G01X7092091Y2736391D03*
G01X7492091Y2826409D03*
G01X7582109Y2826409D03*
G01X7582109Y2736391D03*
G01X7492091Y2736391D03*
G01X4692091Y2426409D03*
G01X4782109Y2426409D03*
G01X4782109Y2336391D03*
G01X4692091Y2336391D03*
G01X5092091Y2426409D03*
G01X5182109Y2426409D03*
G01X5182109Y2336391D03*
G01X5092091Y2336391D03*
G01X5492091Y2426409D03*
G01X5582109Y2426409D03*
G01X5582109Y2336391D03*
G01X5492091Y2336391D03*
G01X5892091Y2426409D03*
G01X5982109Y2426409D03*
G01X5982109Y2336391D03*
G01X5892091Y2336391D03*
G01X6292091Y2426409D03*
G01X6382109Y2426409D03*
G01X6382109Y2336391D03*
G01X6292091Y2336391D03*
G01X6692091Y2426409D03*
G01X6782109Y2426409D03*
G01X6782109Y2336391D03*
G01X6692091Y2336391D03*
G01X7092091Y2426409D03*
G01X7182109Y2426409D03*
G01X7182109Y2336391D03*
G01X7092091Y2336391D03*
G01X7492091Y2426409D03*
G01X7582109Y2426409D03*
G01X7582109Y2336391D03*
G01X7492091Y2336391D03*
G01X4692091Y2026409D03*
G01X4782109Y2026409D03*
G01X4782109Y1936391D03*
G01X4692091Y1936391D03*
G01X5092091Y2026409D03*
G01X5182109Y2026409D03*
G01X5182109Y1936391D03*
G01X5092091Y1936391D03*
G01X5492091Y2026409D03*
G01X5582109Y2026409D03*
G01X5582109Y1936391D03*
G01X5492091Y1936391D03*
G01X5892091Y2026409D03*
G01X5982109Y2026409D03*
G01X5982109Y1936391D03*
G01X5892091Y1936391D03*
G01X6292091Y2026409D03*
G01X6382109Y2026409D03*
G01X6382109Y1936391D03*
G01X6292091Y1936391D03*
G01X6692091Y2026409D03*
G01X6782109Y2026409D03*
G01X6782109Y1936391D03*
G01X6692091Y1936391D03*
G01X7092091Y2026409D03*
G01X7182109Y2026409D03*
G01X7182109Y1936391D03*
G01X7092091Y1936391D03*
G01X7492091Y2026409D03*
G01X7582109Y2026409D03*
G01X7582109Y1936391D03*
G01X7492091Y1936391D03*
G01X4692091Y1626409D03*
G01X4782109Y1626409D03*
G01X4782109Y1536391D03*
G01X4692091Y1536391D03*
G01X5092091Y1626409D03*
G01X5182109Y1626409D03*
G01X5182109Y1536391D03*
G01X5092091Y1536391D03*
G01X5492091Y1626409D03*
G01X5582109Y1626409D03*
G01X5582109Y1536391D03*
G01X5492091Y1536391D03*
G01X5892091Y1626409D03*
G01X5982109Y1626409D03*
G01X5982109Y1536391D03*
G01X5892091Y1536391D03*
G01X6292091Y1626409D03*
G01X6382109Y1626409D03*
G01X6382109Y1536391D03*
G01X6292091Y1536391D03*
G01X6692091Y1626409D03*
G01X6782109Y1626409D03*
G01X6782109Y1536391D03*
G01X6692091Y1536391D03*
G01X7092091Y1626409D03*
G01X7182109Y1626409D03*
G01X7182109Y1536391D03*
G01X7092091Y1536391D03*
G01X7492091Y1626409D03*
G01X7582109Y1626409D03*
G01X7582109Y1536391D03*
G01X7492091Y1536391D03*
G01X4692091Y1226409D03*
G01X4782109Y1226409D03*
G01X4782109Y1136391D03*
G01X4692091Y1136391D03*
G01X5092091Y1226409D03*
G01X5182109Y1226409D03*
G01X5182109Y1136391D03*
G01X5092091Y1136391D03*
G01X5492091Y1226409D03*
G01X5582109Y1226409D03*
G01X5582109Y1136391D03*
G01X5492091Y1136391D03*
G01X5892091Y1226409D03*
G01X5982109Y1226409D03*
G01X5982109Y1136391D03*
G01X5892091Y1136391D03*
G01X6292091Y1226409D03*
G01X6382109Y1226409D03*
G01X6382109Y1136391D03*
G01X6292091Y1136391D03*
G01X6692091Y1226409D03*
G01X6782109Y1226409D03*
G01X6782109Y1136391D03*
G01X6692091Y1136391D03*
G01X7092091Y1226409D03*
G01X7182109Y1226409D03*
G01X7182109Y1136391D03*
G01X7092091Y1136391D03*
G01X7492091Y1226409D03*
G01X7582109Y1226409D03*
G01X7582109Y1136391D03*
G01X7492091Y1136391D03*
G01X4692091Y826409D03*
G01X4782109Y826409D03*
G01X4782109Y736391D03*
G01X4692091Y736391D03*
G01X5092091Y826409D03*
G01X5182109Y826409D03*
G01X5182109Y736391D03*
G01X5092091Y736391D03*
G01X5492091Y826409D03*
G01X5582109Y826409D03*
G01X5582109Y736391D03*
G01X5492091Y736391D03*
G01X5892091Y826409D03*
G01X5982109Y826409D03*
G01X5982109Y736391D03*
G01X5892091Y736391D03*
G01X6292091Y826409D03*
G01X6382109Y826409D03*
G01X6382109Y736391D03*
G01X6292091Y736391D03*
G01X6692091Y826409D03*
G01X6782109Y826409D03*
G01X6782109Y736391D03*
G01X6692091Y736391D03*
G01X7092091Y826409D03*
G01X7182109Y826409D03*
G01X7182109Y736391D03*
G01X7092091Y736391D03*
G01X7492091Y826409D03*
G01X7582109Y826409D03*
G01X7582109Y736391D03*
G01X7492091Y736391D03*
G54D10*
G01X7070802Y3975100D03*
G01X6930798Y3975100D03*
G54D11*
G01X4394200Y-387502D03*
G01X4394200Y-247498D03*
G54D27*
G01X8122209Y2025599D03*
G01X8122209Y1945589D03*
G01X8122209Y1865605D03*
G01X8122209Y1785595D03*
G01X8122209Y1705610D03*
G01X8122209Y1625600D03*
G01X8122209Y1545590D03*
G01X8122209Y1465605D03*
G01X8122209Y1385595D03*
G01X8122209Y1305611D03*
G01X8122209Y1225601D03*
G54D28*
G01X8232191Y1135609D03*
G01X8312201Y1135609D03*
G01X8392211Y1135609D03*
G01X8472195Y1135609D03*
G01X8552205Y1135609D03*
G01X8632190Y1135609D03*
G01X8712200Y1135609D03*
G01X8792210Y1135609D03*
G01X8872195Y1135609D03*
G01X8952205Y1135609D03*
G01X9032189Y1135609D03*
G01X9112199Y1135609D03*
G01X9192209Y1135609D03*
G54D27*
G01X9302191Y1225601D03*
G01X9302191Y1305611D03*
G01X9302191Y1385595D03*
G01X9302191Y1465605D03*
G01X9302191Y1545590D03*
G01X9302191Y1625600D03*
G01X9302191Y1705610D03*
G01X9302191Y1785595D03*
G01X9302191Y1865605D03*
G01X9302191Y1945589D03*
G01X9302191Y2025599D03*
G54D28*
G01X9192209Y2115591D03*
G01X9112199Y2115591D03*
G01X9032189Y2115591D03*
G01X8952205Y2115591D03*
G01X8872195Y2115591D03*
G01X8792210Y2115591D03*
G01X8712200Y2115591D03*
G01X8632190Y2115591D03*
G01X8552205Y2115591D03*
G01X8472195Y2115591D03*
G01X8392211Y2115591D03*
G01X8312201Y2115591D03*
G01X8232191Y2115591D03*
G54D29*
G01X9307195Y2120595D03*
G01X9307195Y1130605D03*
G01X8117205Y1130605D03*
G01X8117205Y2120595D03*
G54D30*
G01X8514687Y1823095D03*
G54D31*
G01X8909685Y1428090D03*
G01X8712200Y1428090D03*
G01X8514690Y1428090D03*
G01X8514690Y1625600D03*
G01X8712200Y1823085D03*
G01X8909685Y1823085D03*
G01X8909685Y1625600D03*
G01X8712200Y1625600D03*
G54D32*
G01X4148201Y247396D03*
G01X4148201Y152400D03*
G01X4148201Y57404D03*
G01X3878199Y57404D03*
G01X3878199Y152400D03*
G01X3878199Y247396D03*
G04 Pad End*

M02*

