G04 Layer: TopPasteMaskLayer*
G04 EasyEDA Pro v2.2.47.7, 2026-05-13 19:00:28*
G04 Gerber Generator version 0.3*
G04 Scale: 100 percent, Rotated: No, Reflected: No*
G04 Dimensions in millimeters*
G04 Leading zeros omitted, absolute positions, 4 integers and 5 decimals*
G04 Generated by custom config*
G04 Object Configs: Pad,Via,Track,Text,Image,Dimension,BoardOutline,BoardCutout,CopperFilled,SolidRegion,FPCStiffener,Line,PlaneZone,ComponentProperty,ComponentSilkscreen,TearDrop*
G04 Layer Configs: 1,2,3,4,7,8,5,6,11,14,9,10*
G04 Copper Areas: 0*
%FSLAX45Y45*%
%MOMM*%
%AMPolygonMacro1*4,1,5,-0.12499,0.72499,0.72499,0.72499,0.72499,-0.72499,-0.72499,-0.72499,-0.72499,0.12499,-0.12499,0.72499,0*%
%ADD10R,0.8X0.9*%
%ADD11R,0.9X0.8*%
%ADD12R,1.2X3.49999*%
%ADD13R,2.89999X0.8*%
%ADD14R,3.79999X1.8*%
%ADD15R,1.157X0.48999*%
%ADD16R,1.1898X0.48999*%
%ADD17R,1.175X0.48999*%
%ADD18R,2.2X1.2*%
%ADD19R,0.75001X1.0*%
%ADD20R,1.0X0.75001*%
%ADD21R,1.2X0.6*%
%ADD22R,2.4X3.29999*%
%ADD23R,0.8X0.4*%
%ADD24R,0.4X0.8*%
%ADD25R,0.7X0.7*%
%ADD26PolygonMacro1*%
%ADD27R,1.45001X1.45001*%
%ADD28R,0.28001X0.7*%
%ADD29R,0.7X0.28001*%
%ADD30R,0.7X0.35001*%
%ADD31R,0.5X0.5*%
G75*


G04 PolygonModel Start*
G36*
G01X6547399Y4985898D02*
G01X6547399Y5065898D01*
G01X6542397Y5070899D01*
G01X6519601Y5070899D01*
G01X6519601Y5033899D01*
G01X6486601Y5033899D01*
G01X6486601Y5070899D01*
G01X6462398Y5070899D01*
G01X6457399Y5065898D01*
G01X6457399Y4985898D01*
G01X6462398Y4980899D01*
G01X6542397Y4980899D01*
G01X6547399Y4985898D01*
G37*
G36*
G01X6457401Y5224902D02*
G01X6457401Y5144902D01*
G01X6462403Y5139901D01*
G01X6485199Y5139901D01*
G01X6485199Y5176901D01*
G01X6518199Y5176901D01*
G01X6518199Y5139901D01*
G01X6542402Y5139901D01*
G01X6547401Y5144902D01*
G01X6547401Y5224902D01*
G01X6542402Y5229901D01*
G01X6462403Y5229901D01*
G01X6457401Y5224902D01*
G37*
G36*
G01X5925099Y4985898D02*
G01X5925099Y5065898D01*
G01X5920097Y5070899D01*
G01X5897301Y5070899D01*
G01X5897301Y5033899D01*
G01X5864301Y5033899D01*
G01X5864301Y5070899D01*
G01X5840098Y5070899D01*
G01X5835099Y5065898D01*
G01X5835099Y4985898D01*
G01X5840098Y4980899D01*
G01X5920097Y4980899D01*
G01X5925099Y4985898D01*
G37*
G36*
G01X5835101Y5224902D02*
G01X5835101Y5144902D01*
G01X5840103Y5139901D01*
G01X5862899Y5139901D01*
G01X5862899Y5176901D01*
G01X5895899Y5176901D01*
G01X5895899Y5139901D01*
G01X5920102Y5139901D01*
G01X5925101Y5144902D01*
G01X5925101Y5224902D01*
G01X5920102Y5229901D01*
G01X5840103Y5229901D01*
G01X5835101Y5224902D01*
G37*
G36*
G01X6547998Y4527001D02*
G01X6627998Y4527001D01*
G01X6632999Y4532003D01*
G01X6632999Y4554799D01*
G01X6595999Y4554799D01*
G01X6595999Y4587799D01*
G01X6632999Y4587799D01*
G01X6632999Y4612002D01*
G01X6627998Y4617001D01*
G01X6547998Y4617001D01*
G01X6542999Y4612002D01*
G01X6542999Y4532003D01*
G01X6547998Y4527001D01*
G37*
G36*
G01X6787002Y4616999D02*
G01X6707002Y4616999D01*
G01X6702001Y4611997D01*
G01X6702001Y4589201D01*
G01X6739001Y4589201D01*
G01X6739001Y4556201D01*
G01X6702001Y4556201D01*
G01X6702001Y4531998D01*
G01X6707002Y4526999D01*
G01X6787002Y4526999D01*
G01X6792001Y4531998D01*
G01X6792001Y4611997D01*
G01X6787002Y4616999D01*
G37*
G36*
G01X8477799Y4033398D02*
G01X8477799Y4113398D01*
G01X8472797Y4118399D01*
G01X8450001Y4118399D01*
G01X8450001Y4081399D01*
G01X8417001Y4081399D01*
G01X8417001Y4118399D01*
G01X8392798Y4118399D01*
G01X8387799Y4113398D01*
G01X8387799Y4033398D01*
G01X8392798Y4028399D01*
G01X8472797Y4028399D01*
G01X8477799Y4033398D01*
G37*
G36*
G01X8387801Y4272402D02*
G01X8387801Y4192402D01*
G01X8392803Y4187401D01*
G01X8415599Y4187401D01*
G01X8415599Y4224401D01*
G01X8448599Y4224401D01*
G01X8448599Y4187401D01*
G01X8472802Y4187401D01*
G01X8477801Y4192402D01*
G01X8477801Y4272402D01*
G01X8472802Y4277401D01*
G01X8392803Y4277401D01*
G01X8387801Y4272402D01*
G37*
G36*
G01X5009601Y-203571D02*
G01X5009601Y-283571D01*
G01X5014603Y-288572D01*
G01X5037399Y-288572D01*
G01X5037399Y-251572D01*
G01X5070399Y-251572D01*
G01X5070399Y-288572D01*
G01X5094602Y-288572D01*
G01X5099601Y-283571D01*
G01X5099601Y-203571D01*
G01X5094602Y-198572D01*
G01X5014603Y-198572D01*
G01X5009601Y-203571D01*
G37*
G36*
G01X5099599Y-442575D02*
G01X5099599Y-362575D01*
G01X5094597Y-357574D01*
G01X5071801Y-357574D01*
G01X5071801Y-394574D01*
G01X5038801Y-394574D01*
G01X5038801Y-357574D01*
G01X5014598Y-357574D01*
G01X5009599Y-362575D01*
G01X5009599Y-442575D01*
G01X5014598Y-447573D01*
G01X5094597Y-447573D01*
G01X5099599Y-442575D01*
G37*
G36*
G01X5618602Y-350523D02*
G01X5538602Y-350523D01*
G01X5533601Y-355524D01*
G01X5533601Y-378320D01*
G01X5570601Y-378320D01*
G01X5570601Y-411320D01*
G01X5533601Y-411320D01*
G01X5533601Y-435524D01*
G01X5538602Y-440522D01*
G01X5618602Y-440522D01*
G01X5623601Y-435524D01*
G01X5623601Y-355524D01*
G01X5618602Y-350523D01*
G37*
G36*
G01X5379598Y-440520D02*
G01X5459598Y-440520D01*
G01X5464599Y-435519D01*
G01X5464599Y-412722D01*
G01X5427599Y-412722D01*
G01X5427599Y-379722D01*
G01X5464599Y-379722D01*
G01X5464599Y-355519D01*
G01X5459598Y-350520D01*
G01X5379598Y-350520D01*
G01X5374599Y-355519D01*
G01X5374599Y-435519D01*
G01X5379598Y-440520D01*
G37*
G36*
G01X6229899Y4554098D02*
G01X6229899Y4634098D01*
G01X6224897Y4639099D01*
G01X6202101Y4639099D01*
G01X6202101Y4602099D01*
G01X6169101Y4602099D01*
G01X6169101Y4639099D01*
G01X6144898Y4639099D01*
G01X6139899Y4634098D01*
G01X6139899Y4554098D01*
G01X6144898Y4549099D01*
G01X6224897Y4549099D01*
G01X6229899Y4554098D01*
G37*
G36*
G01X6139901Y4793102D02*
G01X6139901Y4713102D01*
G01X6144903Y4708101D01*
G01X6167699Y4708101D01*
G01X6167699Y4745101D01*
G01X6200699Y4745101D01*
G01X6200699Y4708101D01*
G01X6224902Y4708101D01*
G01X6229901Y4713102D01*
G01X6229901Y4793102D01*
G01X6224902Y4798101D01*
G01X6144903Y4798101D01*
G01X6139901Y4793102D01*
G37*
G36*
G01X5885901Y4628002D02*
G01X5885901Y4548002D01*
G01X5890903Y4543001D01*
G01X5913699Y4543001D01*
G01X5913699Y4580001D01*
G01X5946699Y4580001D01*
G01X5946699Y4543001D01*
G01X5970902Y4543001D01*
G01X5975901Y4548002D01*
G01X5975901Y4628002D01*
G01X5970902Y4633001D01*
G01X5890903Y4633001D01*
G01X5885901Y4628002D01*
G37*
G36*
G01X5975899Y4388998D02*
G01X5975899Y4468998D01*
G01X5970897Y4473999D01*
G01X5948101Y4473999D01*
G01X5948101Y4436999D01*
G01X5915101Y4436999D01*
G01X5915101Y4473999D01*
G01X5890898Y4473999D01*
G01X5885899Y4468998D01*
G01X5885899Y4388998D01*
G01X5890898Y4383999D01*
G01X5970897Y4383999D01*
G01X5975899Y4388998D01*
G37*
G36*
G01X4528099Y3296798D02*
G01X4528099Y3376798D01*
G01X4523097Y3381799D01*
G01X4500301Y3381799D01*
G01X4500301Y3344799D01*
G01X4467301Y3344799D01*
G01X4467301Y3381799D01*
G01X4443098Y3381799D01*
G01X4438099Y3376798D01*
G01X4438099Y3296798D01*
G01X4443098Y3291799D01*
G01X4523097Y3291799D01*
G01X4528099Y3296798D01*
G37*
G36*
G01X4438101Y3535802D02*
G01X4438101Y3455802D01*
G01X4443103Y3450801D01*
G01X4465899Y3450801D01*
G01X4465899Y3487801D01*
G01X4498899Y3487801D01*
G01X4498899Y3450801D01*
G01X4523102Y3450801D01*
G01X4528101Y3455802D01*
G01X4528101Y3535802D01*
G01X4523102Y3540801D01*
G01X4443103Y3540801D01*
G01X4438101Y3535802D01*
G37*
G36*
G01X8490499Y4388998D02*
G01X8490499Y4468998D01*
G01X8485497Y4473999D01*
G01X8462701Y4473999D01*
G01X8462701Y4436999D01*
G01X8429701Y4436999D01*
G01X8429701Y4473999D01*
G01X8405498Y4473999D01*
G01X8400499Y4468998D01*
G01X8400499Y4388998D01*
G01X8405498Y4383999D01*
G01X8485497Y4383999D01*
G01X8490499Y4388998D01*
G37*
G36*
G01X8400501Y4628002D02*
G01X8400501Y4548002D01*
G01X8405503Y4543001D01*
G01X8428299Y4543001D01*
G01X8428299Y4580001D01*
G01X8461299Y4580001D01*
G01X8461299Y4543001D01*
G01X8485502Y4543001D01*
G01X8490501Y4548002D01*
G01X8490501Y4628002D01*
G01X8485502Y4633001D01*
G01X8405503Y4633001D01*
G01X8400501Y4628002D01*
G37*
G36*
G01X8160299Y4414398D02*
G01X8160299Y4494398D01*
G01X8155297Y4499399D01*
G01X8132501Y4499399D01*
G01X8132501Y4462399D01*
G01X8099501Y4462399D01*
G01X8099501Y4499399D01*
G01X8075298Y4499399D01*
G01X8070299Y4494398D01*
G01X8070299Y4414398D01*
G01X8075298Y4409399D01*
G01X8155297Y4409399D01*
G01X8160299Y4414398D01*
G37*
G36*
G01X8070301Y4653402D02*
G01X8070301Y4573402D01*
G01X8075303Y4568401D01*
G01X8098099Y4568401D01*
G01X8098099Y4605401D01*
G01X8131099Y4605401D01*
G01X8131099Y4568401D01*
G01X8155302Y4568401D01*
G01X8160301Y4573402D01*
G01X8160301Y4653402D01*
G01X8155302Y4658401D01*
G01X8075303Y4658401D01*
G01X8070301Y4653402D01*
G37*
G36*
G01X4589300Y4069598D02*
G01X4719297Y4069598D01*
G01X4719297Y4099598D01*
G01X4719297Y4099601D01*
G01X4719297Y4129601D01*
G01X4589300Y4129601D01*
G01X4589300Y4099601D01*
G01X4589300Y4099598D01*
G01X4589300Y4069598D01*
G37*
G36*
G01X4589315Y4479605D02*
G01X4719317Y4479605D01*
G01X4719317Y4509605D01*
G01X4589315Y4509605D01*
G01X4589315Y4479605D01*
G37*
G36*
G01X4589315Y4709597D02*
G01X4719317Y4709597D01*
G01X4719317Y4739597D01*
G01X4719302Y4739597D01*
G01X4719302Y4769594D01*
G01X4589300Y4769594D01*
G01X4589300Y4739594D01*
G01X4589315Y4739594D01*
G01X4589315Y4709597D01*
G37*
G36*
G01X4589315Y4379605D02*
G01X4719317Y4379605D01*
G01X4719317Y4409605D01*
G01X4589315Y4409605D01*
G01X4589315Y4379605D01*
G37*
G36*
G01X4589313Y4229593D02*
G01X4719315Y4229593D01*
G01X4719315Y4259593D01*
G01X4589313Y4259593D01*
G01X4589313Y4229593D01*
G37*
G36*
G01X4719315Y4559592D02*
G01X4589313Y4559592D01*
G01X4589313Y4529592D01*
G01X4719315Y4529592D01*
G01X4719315Y4559592D01*
G37*
G36*
G01X4589313Y4279631D02*
G01X4719315Y4279631D01*
G01X4719315Y4309631D01*
G01X4589313Y4309631D01*
G01X4589313Y4279631D01*
G37*
G36*
G01X4589313Y4329593D02*
G01X4719315Y4329593D01*
G01X4719315Y4359593D01*
G01X4589313Y4359593D01*
G01X4589313Y4329593D01*
G37*
G36*
G01X4589313Y4579605D02*
G01X4719315Y4579605D01*
G01X4719315Y4609605D01*
G01X4589313Y4609605D01*
G01X4589313Y4579605D01*
G37*
G36*
G01X4589313Y4429592D02*
G01X4719315Y4429592D01*
G01X4719315Y4459592D01*
G01X4589313Y4459592D01*
G01X4589313Y4429592D01*
G37*
G36*
G01X4589305Y4629597D02*
G01X4719302Y4629597D01*
G01X4719302Y4659600D01*
G01X4719300Y4659600D01*
G01X4719300Y4689594D01*
G01X4589302Y4689594D01*
G01X4589302Y4659592D01*
G01X4589305Y4659592D01*
G01X4589305Y4629597D01*
G37*
G36*
G01X4677306Y4847628D02*
G01X4677456Y4850615D01*
G01X4677456Y4853607D01*
G01X4677306Y4856594D01*
G01X4677009Y4859571D01*
G01X4676562Y4862530D01*
G01X4675970Y4865461D01*
G01X4675231Y4868362D01*
G01X4674349Y4871220D01*
G01X4673326Y4874031D01*
G01X4672165Y4876787D01*
G01X4670867Y4879485D01*
G01X4669434Y4882111D01*
G01X4667875Y4884664D01*
G01X4666191Y4887135D01*
G01X4664382Y4889520D01*
G01X4662460Y4891811D01*
G01X4660425Y4894006D01*
G01X4658284Y4896094D01*
G01X4656041Y4898075D01*
G01X4653702Y4899939D01*
G01X4651273Y4901684D01*
G01X4648759Y4903307D01*
G01X4646168Y4904804D01*
G01X4643506Y4906170D01*
G01X4640781Y4907399D01*
G01X4637994Y4908492D01*
G01X4635160Y4909447D01*
G01X4632279Y4910257D01*
G01X4629363Y4910922D01*
G01X4626417Y4911441D01*
G01X4623448Y4911814D01*
G01X4620463Y4912037D01*
G01X4617474Y4912111D01*
G01X4537474Y4912111D01*
G01X4534484Y4912037D01*
G01X4531500Y4911814D01*
G01X4528530Y4911441D01*
G01X4525584Y4910922D01*
G01X4522668Y4910257D01*
G01X4519788Y4909447D01*
G01X4516953Y4908492D01*
G01X4514167Y4907399D01*
G01X4511441Y4906170D01*
G01X4508779Y4904804D01*
G01X4506189Y4903307D01*
G01X4503674Y4901684D01*
G01X4501246Y4899939D01*
G01X4498906Y4898075D01*
G01X4496664Y4896094D01*
G01X4494522Y4894006D01*
G01X4492488Y4891811D01*
G01X4490565Y4889520D01*
G01X4488757Y4887135D01*
G01X4487073Y4884664D01*
G01X4485513Y4882111D01*
G01X4484080Y4879485D01*
G01X4482783Y4876787D01*
G01X4481622Y4874031D01*
G01X4480598Y4871220D01*
G01X4479717Y4868362D01*
G01X4478978Y4865461D01*
G01X4478386Y4862530D01*
G01X4477939Y4859571D01*
G01X4477642Y4856594D01*
G01X4477492Y4853607D01*
G01X4477492Y4850615D01*
G01X4477642Y4847628D01*
G01X4477939Y4844651D01*
G01X4478386Y4841692D01*
G01X4478978Y4838761D01*
G01X4479717Y4835860D01*
G01X4480598Y4833003D01*
G01X4481622Y4830191D01*
G01X4482783Y4827435D01*
G01X4484080Y4824738D01*
G01X4485513Y4822111D01*
G01X4487073Y4819559D01*
G01X4488757Y4817087D01*
G01X4490565Y4814702D01*
G01X4492488Y4812411D01*
G01X4494522Y4810216D01*
G01X4496664Y4808129D01*
G01X4498906Y4806147D01*
G01X4501246Y4804283D01*
G01X4503674Y4802538D01*
G01X4506189Y4800915D01*
G01X4508779Y4799419D01*
G01X4511441Y4798052D01*
G01X4514167Y4796823D01*
G01X4516953Y4795731D01*
G01X4519788Y4794776D01*
G01X4522668Y4793966D01*
G01X4525584Y4793300D01*
G01X4528530Y4792782D01*
G01X4531500Y4792409D01*
G01X4534484Y4792185D01*
G01X4537474Y4792111D01*
G01X4617474Y4792111D01*
G01X4620463Y4792185D01*
G01X4623448Y4792409D01*
G01X4626417Y4792782D01*
G01X4629363Y4793300D01*
G01X4632279Y4793966D01*
G01X4635160Y4794776D01*
G01X4637994Y4795731D01*
G01X4640781Y4796823D01*
G01X4643506Y4798052D01*
G01X4646168Y4799419D01*
G01X4648759Y4800915D01*
G01X4651273Y4802538D01*
G01X4653702Y4804283D01*
G01X4656041Y4806147D01*
G01X4658284Y4808129D01*
G01X4660425Y4810216D01*
G01X4662460Y4812411D01*
G01X4664382Y4814702D01*
G01X4666191Y4817087D01*
G01X4667875Y4819559D01*
G01X4669434Y4822111D01*
G01X4670867Y4824738D01*
G01X4672165Y4827435D01*
G01X4673326Y4830191D01*
G01X4674349Y4833003D01*
G01X4675231Y4835860D01*
G01X4675970Y4838761D01*
G01X4676562Y4841692D01*
G01X4677009Y4844651D01*
G01X4677306Y4847628D01*
G37*
G36*
G01X4677306Y3982606D02*
G01X4677456Y3985593D01*
G01X4677456Y3988585D01*
G01X4677306Y3991572D01*
G01X4677009Y3994549D01*
G01X4676562Y3997508D01*
G01X4675970Y4000439D01*
G01X4675231Y4003340D01*
G01X4674349Y4006197D01*
G01X4673326Y4009009D01*
G01X4672165Y4011765D01*
G01X4670867Y4014462D01*
G01X4669434Y4017089D01*
G01X4667875Y4019641D01*
G01X4666191Y4022113D01*
G01X4664382Y4024498D01*
G01X4662460Y4026789D01*
G01X4660425Y4028984D01*
G01X4658284Y4031071D01*
G01X4656041Y4033053D01*
G01X4653702Y4034917D01*
G01X4651273Y4036662D01*
G01X4648759Y4038285D01*
G01X4646168Y4039781D01*
G01X4643506Y4041148D01*
G01X4640781Y4042377D01*
G01X4637994Y4043469D01*
G01X4635160Y4044424D01*
G01X4632279Y4045234D01*
G01X4629363Y4045900D01*
G01X4626417Y4046418D01*
G01X4623448Y4046792D01*
G01X4620463Y4047015D01*
G01X4617474Y4047089D01*
G01X4537474Y4047089D01*
G01X4534484Y4047015D01*
G01X4531500Y4046792D01*
G01X4528530Y4046418D01*
G01X4525584Y4045900D01*
G01X4522668Y4045234D01*
G01X4519788Y4044424D01*
G01X4516953Y4043469D01*
G01X4514167Y4042377D01*
G01X4511441Y4041148D01*
G01X4508779Y4039781D01*
G01X4506189Y4038285D01*
G01X4503674Y4036662D01*
G01X4501246Y4034917D01*
G01X4498906Y4033053D01*
G01X4496664Y4031071D01*
G01X4494522Y4028984D01*
G01X4492488Y4026789D01*
G01X4490565Y4024498D01*
G01X4488757Y4022113D01*
G01X4487073Y4019641D01*
G01X4485513Y4017089D01*
G01X4484080Y4014462D01*
G01X4482783Y4011765D01*
G01X4481622Y4009009D01*
G01X4480598Y4006197D01*
G01X4479717Y4003340D01*
G01X4478978Y4000439D01*
G01X4478386Y3997508D01*
G01X4477939Y3994549D01*
G01X4477642Y3991572D01*
G01X4477492Y3988585D01*
G01X4477492Y3985593D01*
G01X4477642Y3982606D01*
G01X4477939Y3979629D01*
G01X4478386Y3976670D01*
G01X4478978Y3973739D01*
G01X4479717Y3970838D01*
G01X4480598Y3967980D01*
G01X4481622Y3965169D01*
G01X4482783Y3962413D01*
G01X4484080Y3959715D01*
G01X4485513Y3957089D01*
G01X4487073Y3954536D01*
G01X4488757Y3952065D01*
G01X4490565Y3949680D01*
G01X4492488Y3947389D01*
G01X4494522Y3945194D01*
G01X4496664Y3943106D01*
G01X4498906Y3941125D01*
G01X4501246Y3939261D01*
G01X4503674Y3937516D01*
G01X4506189Y3935893D01*
G01X4508779Y3934397D01*
G01X4511441Y3933030D01*
G01X4514167Y3931801D01*
G01X4516953Y3930708D01*
G01X4519788Y3929753D01*
G01X4522668Y3928943D01*
G01X4525584Y3928278D01*
G01X4528530Y3927759D01*
G01X4531500Y3927386D01*
G01X4534484Y3927163D01*
G01X4537474Y3927089D01*
G01X4617474Y3927089D01*
G01X4620463Y3927163D01*
G01X4623448Y3927386D01*
G01X4626417Y3927759D01*
G01X4629363Y3928278D01*
G01X4632279Y3928943D01*
G01X4635160Y3929753D01*
G01X4637994Y3930708D01*
G01X4640781Y3931801D01*
G01X4643506Y3933030D01*
G01X4646168Y3934397D01*
G01X4648759Y3935893D01*
G01X4651273Y3937516D01*
G01X4653702Y3939261D01*
G01X4656041Y3941125D01*
G01X4658284Y3943106D01*
G01X4660425Y3945194D01*
G01X4662460Y3947389D01*
G01X4664382Y3949680D01*
G01X4666191Y3952065D01*
G01X4667875Y3954536D01*
G01X4669434Y3957089D01*
G01X4670867Y3959715D01*
G01X4672165Y3962413D01*
G01X4673326Y3965169D01*
G01X4674349Y3967980D01*
G01X4675231Y3970838D01*
G01X4675970Y3973739D01*
G01X4676562Y3976670D01*
G01X4677009Y3979629D01*
G01X4677306Y3982606D01*
G37*
G36*
G01X4249466Y4853607D02*
G01X4249316Y4856594D01*
G01X4249019Y4859571D01*
G01X4248572Y4862530D01*
G01X4247980Y4865461D01*
G01X4247241Y4868362D01*
G01X4246359Y4871220D01*
G01X4245336Y4874031D01*
G01X4244175Y4876787D01*
G01X4242877Y4879485D01*
G01X4241444Y4882111D01*
G01X4239885Y4884664D01*
G01X4238201Y4887135D01*
G01X4236392Y4889520D01*
G01X4234470Y4891811D01*
G01X4232435Y4894006D01*
G01X4230294Y4896094D01*
G01X4228051Y4898075D01*
G01X4225712Y4899939D01*
G01X4223283Y4901684D01*
G01X4220769Y4903307D01*
G01X4218178Y4904804D01*
G01X4215516Y4906170D01*
G01X4212791Y4907399D01*
G01X4210004Y4908492D01*
G01X4207170Y4909447D01*
G01X4204289Y4910257D01*
G01X4201373Y4910922D01*
G01X4198427Y4911441D01*
G01X4195458Y4911814D01*
G01X4192473Y4912037D01*
G01X4189484Y4912111D01*
G01X4129484Y4912111D01*
G01X4126494Y4912037D01*
G01X4123510Y4911814D01*
G01X4120540Y4911441D01*
G01X4117594Y4910922D01*
G01X4114678Y4910257D01*
G01X4111798Y4909447D01*
G01X4108963Y4908492D01*
G01X4106177Y4907399D01*
G01X4103451Y4906170D01*
G01X4100789Y4904804D01*
G01X4098199Y4903307D01*
G01X4095684Y4901684D01*
G01X4093256Y4899939D01*
G01X4090916Y4898075D01*
G01X4088674Y4896094D01*
G01X4086532Y4894006D01*
G01X4084498Y4891811D01*
G01X4082575Y4889520D01*
G01X4080767Y4887135D01*
G01X4079083Y4884664D01*
G01X4077523Y4882111D01*
G01X4076090Y4879485D01*
G01X4074792Y4876787D01*
G01X4073632Y4874031D01*
G01X4072608Y4871220D01*
G01X4071727Y4868362D01*
G01X4070988Y4865461D01*
G01X4070396Y4862530D01*
G01X4069949Y4859571D01*
G01X4069652Y4856594D01*
G01X4069502Y4853607D01*
G01X4069502Y4850615D01*
G01X4069652Y4847628D01*
G01X4069949Y4844651D01*
G01X4070396Y4841692D01*
G01X4070988Y4838761D01*
G01X4071727Y4835860D01*
G01X4072608Y4833003D01*
G01X4073632Y4830191D01*
G01X4074792Y4827435D01*
G01X4076090Y4824738D01*
G01X4077523Y4822111D01*
G01X4079083Y4819559D01*
G01X4080767Y4817087D01*
G01X4082575Y4814702D01*
G01X4084498Y4812411D01*
G01X4086532Y4810216D01*
G01X4088674Y4808129D01*
G01X4090916Y4806147D01*
G01X4093256Y4804283D01*
G01X4095684Y4802538D01*
G01X4098199Y4800915D01*
G01X4100789Y4799419D01*
G01X4103451Y4798052D01*
G01X4106177Y4796823D01*
G01X4108963Y4795731D01*
G01X4111798Y4794776D01*
G01X4114678Y4793966D01*
G01X4117594Y4793300D01*
G01X4120540Y4792782D01*
G01X4123510Y4792409D01*
G01X4126494Y4792185D01*
G01X4129484Y4792111D01*
G01X4189484Y4792111D01*
G01X4192473Y4792185D01*
G01X4195458Y4792409D01*
G01X4198427Y4792782D01*
G01X4201373Y4793300D01*
G01X4204289Y4793966D01*
G01X4207170Y4794776D01*
G01X4210004Y4795731D01*
G01X4212791Y4796823D01*
G01X4215516Y4798052D01*
G01X4218178Y4799419D01*
G01X4220769Y4800915D01*
G01X4223283Y4802538D01*
G01X4225712Y4804283D01*
G01X4228051Y4806147D01*
G01X4230294Y4808129D01*
G01X4232435Y4810216D01*
G01X4234470Y4812411D01*
G01X4236392Y4814702D01*
G01X4238201Y4817087D01*
G01X4239885Y4819559D01*
G01X4241444Y4822111D01*
G01X4242877Y4824738D01*
G01X4244175Y4827435D01*
G01X4245336Y4830191D01*
G01X4246359Y4833003D01*
G01X4247241Y4835860D01*
G01X4247980Y4838761D01*
G01X4248572Y4841692D01*
G01X4249019Y4844651D01*
G01X4249316Y4847628D01*
G01X4249466Y4850615D01*
G01X4249466Y4853607D01*
G37*
G36*
G01X4249316Y3982606D02*
G01X4249466Y3985593D01*
G01X4249466Y3988585D01*
G01X4249316Y3991572D01*
G01X4249019Y3994549D01*
G01X4248572Y3997508D01*
G01X4247980Y4000439D01*
G01X4247241Y4003340D01*
G01X4246359Y4006197D01*
G01X4245336Y4009009D01*
G01X4244175Y4011765D01*
G01X4242877Y4014462D01*
G01X4241444Y4017089D01*
G01X4239885Y4019641D01*
G01X4238201Y4022113D01*
G01X4236392Y4024498D01*
G01X4234470Y4026789D01*
G01X4232435Y4028984D01*
G01X4230294Y4031071D01*
G01X4228051Y4033053D01*
G01X4225712Y4034917D01*
G01X4223283Y4036662D01*
G01X4220769Y4038285D01*
G01X4218178Y4039781D01*
G01X4215516Y4041148D01*
G01X4212791Y4042377D01*
G01X4210004Y4043469D01*
G01X4207170Y4044424D01*
G01X4204289Y4045234D01*
G01X4201373Y4045900D01*
G01X4198427Y4046418D01*
G01X4195458Y4046792D01*
G01X4192473Y4047015D01*
G01X4189484Y4047089D01*
G01X4129484Y4047089D01*
G01X4126494Y4047015D01*
G01X4123510Y4046792D01*
G01X4120540Y4046418D01*
G01X4117594Y4045900D01*
G01X4114678Y4045234D01*
G01X4111798Y4044424D01*
G01X4108963Y4043469D01*
G01X4106177Y4042377D01*
G01X4103451Y4041148D01*
G01X4100789Y4039781D01*
G01X4098199Y4038285D01*
G01X4095684Y4036662D01*
G01X4093256Y4034917D01*
G01X4090916Y4033053D01*
G01X4088674Y4031071D01*
G01X4086532Y4028984D01*
G01X4084498Y4026789D01*
G01X4082575Y4024498D01*
G01X4080767Y4022113D01*
G01X4079083Y4019641D01*
G01X4077523Y4017089D01*
G01X4076090Y4014462D01*
G01X4074792Y4011765D01*
G01X4073632Y4009009D01*
G01X4072608Y4006197D01*
G01X4071727Y4003340D01*
G01X4070988Y4000439D01*
G01X4070396Y3997508D01*
G01X4069949Y3994549D01*
G01X4069652Y3991572D01*
G01X4069502Y3988585D01*
G01X4069502Y3985593D01*
G01X4069652Y3982606D01*
G01X4069949Y3979629D01*
G01X4070396Y3976670D01*
G01X4070988Y3973739D01*
G01X4071727Y3970838D01*
G01X4072608Y3967980D01*
G01X4073632Y3965169D01*
G01X4074792Y3962413D01*
G01X4076090Y3959715D01*
G01X4077523Y3957089D01*
G01X4079083Y3954536D01*
G01X4080767Y3952065D01*
G01X4082575Y3949680D01*
G01X4084498Y3947389D01*
G01X4086532Y3945194D01*
G01X4088674Y3943106D01*
G01X4090916Y3941125D01*
G01X4093256Y3939261D01*
G01X4095684Y3937516D01*
G01X4098199Y3935893D01*
G01X4100789Y3934397D01*
G01X4103451Y3933030D01*
G01X4106177Y3931801D01*
G01X4108963Y3930708D01*
G01X4111798Y3929753D01*
G01X4114678Y3928943D01*
G01X4117594Y3928278D01*
G01X4120540Y3927759D01*
G01X4123510Y3927386D01*
G01X4126494Y3927163D01*
G01X4129484Y3927089D01*
G01X4189484Y3927089D01*
G01X4192473Y3927163D01*
G01X4195458Y3927386D01*
G01X4198427Y3927759D01*
G01X4201373Y3928278D01*
G01X4204289Y3928943D01*
G01X4207170Y3929753D01*
G01X4210004Y3930708D01*
G01X4212791Y3931801D01*
G01X4215516Y3933030D01*
G01X4218178Y3934397D01*
G01X4220769Y3935893D01*
G01X4223283Y3937516D01*
G01X4225712Y3939261D01*
G01X4228051Y3941125D01*
G01X4230294Y3943106D01*
G01X4232435Y3945194D01*
G01X4234470Y3947389D01*
G01X4236392Y3949680D01*
G01X4238201Y3952065D01*
G01X4239885Y3954536D01*
G01X4241444Y3957089D01*
G01X4242877Y3959715D01*
G01X4244175Y3962413D01*
G01X4245336Y3965169D01*
G01X4246359Y3967980D01*
G01X4247241Y3970838D01*
G01X4247980Y3973739D01*
G01X4248572Y3976670D01*
G01X4249019Y3979629D01*
G01X4249316Y3982606D01*
G37*
G36*
G01X4589320Y4149583D02*
G01X4719317Y4149583D01*
G01X4719317Y4179583D01*
G01X4719317Y4179585D01*
G01X4719317Y4209585D01*
G01X4589320Y4209585D01*
G01X4589320Y4179585D01*
G01X4589320Y4179583D01*
G01X4589320Y4149583D01*
G37*

G04 Pad Start*
G54D10*
G01X6762902Y4279900D03*
G01X6622898Y4279900D03*
G01X7702702Y3975100D03*
G01X7562698Y3975100D03*
G01X6470802Y3975100D03*
G01X6330798Y3975100D03*
G54D11*
G01X2959100Y3079902D03*
G01X2959100Y2939898D03*
G54D10*
G01X6770802Y3975100D03*
G01X6630798Y3975100D03*
G01X7370802Y3975100D03*
G01X7230798Y3975100D03*
G54D11*
G01X8216900Y4184802D03*
G01X8216900Y4044798D03*
G01X4762500Y-387502D03*
G01X4762500Y-247498D03*
G54D12*
G01X3581387Y2933413D03*
G01X3581387Y3467397D03*
G54D13*
G01X8273999Y3364306D03*
G01X8273999Y3214294D03*
G54D14*
G01X8744001Y2954299D03*
G01X8744001Y3624301D03*
G54D15*
G01X6031433Y145796D03*
G01X6031433Y50800D03*
G01X6031433Y-44196D03*
G54D17*
G01X6262167Y-44196D03*
G01X6262167Y145796D03*
G54D18*
G01X3594100Y1862887D03*
G01X3594100Y1612900D03*
G01X3594100Y1362913D03*
G54D19*
G01X7855788Y211099D03*
G01X7855788Y-388899D03*
G01X7485812Y211099D03*
G01X7485812Y-388899D03*
G54D20*
G01X7234199Y-197688D03*
G01X6634201Y-197688D03*
G01X7234199Y172288D03*
G01X6634201Y172288D03*
G54D21*
G01X7087870Y5105400D03*
G01X7087870Y4978400D03*
G01X7087870Y4851400D03*
G01X7087870Y4724400D03*
G01X7669530Y4724400D03*
G01X7669530Y4851400D03*
G01X7669530Y4978400D03*
G01X7669530Y5105400D03*
G54D22*
G01X7378700Y4914900D03*
G54D23*
G01X8109509Y1987499D03*
G01X8109509Y1907489D03*
G01X8109509Y1827505D03*
G01X8109509Y1747495D03*
G01X8109509Y1667510D03*
G01X8109509Y1587500D03*
G01X8109509Y1507490D03*
G01X8109509Y1427505D03*
G01X8109509Y1347495D03*
G01X8109509Y1267511D03*
G01X8109509Y1187501D03*
G54D24*
G01X8219491Y1097509D03*
G01X8299501Y1097509D03*
G01X8379511Y1097509D03*
G01X8459495Y1097509D03*
G01X8539505Y1097509D03*
G01X8619490Y1097509D03*
G01X8699500Y1097509D03*
G01X8779510Y1097509D03*
G01X8859495Y1097509D03*
G01X8939505Y1097509D03*
G01X9019489Y1097509D03*
G01X9099499Y1097509D03*
G01X9179509Y1097509D03*
G54D23*
G01X9289491Y1187501D03*
G01X9289491Y1267511D03*
G01X9289491Y1347495D03*
G01X9289491Y1427505D03*
G01X9289491Y1507490D03*
G01X9289491Y1587500D03*
G01X9289491Y1667510D03*
G01X9289491Y1747495D03*
G01X9289491Y1827505D03*
G01X9289491Y1907489D03*
G01X9289491Y1987499D03*
G54D24*
G01X9179509Y2077491D03*
G01X9099499Y2077491D03*
G01X9019489Y2077491D03*
G01X8939505Y2077491D03*
G01X8859495Y2077491D03*
G01X8779510Y2077491D03*
G01X8699500Y2077491D03*
G01X8619490Y2077491D03*
G01X8539505Y2077491D03*
G01X8459495Y2077491D03*
G01X8379511Y2077491D03*
G01X8299501Y2077491D03*
G01X8219491Y2077491D03*
G54D25*
G01X9294495Y2082495D03*
G01X9294495Y1092505D03*
G01X8104505Y1092505D03*
G01X8104505Y2082495D03*
G54D26*
G01X8501987Y1784995D03*
G54D27*
G01X8896985Y1389990D03*
G01X8699500Y1389990D03*
G01X8501990Y1389990D03*
G01X8501990Y1587500D03*
G01X8699500Y1784985D03*
G01X8896985Y1784985D03*
G01X8896985Y1587500D03*
G01X8699500Y1587500D03*
G54D28*
G01X6197181Y-453108D03*
G01X6147194Y-453108D03*
G54D29*
G01X6074702Y-430604D03*
G01X6074702Y-380591D03*
G01X6074702Y-330604D03*
G01X6074702Y-280591D03*
G54D28*
G01X6147194Y-258112D03*
G01X6197181Y-258112D03*
G54D29*
G01X6269698Y-280591D03*
G01X6269698Y-330604D03*
G01X6269698Y-380591D03*
G01X6269698Y-430604D03*
G54D30*
G01X4259605Y3074899D03*
G01X4259605Y2944901D03*
G01X4071595Y2944901D03*
G01X4071595Y3009900D03*
G01X4071595Y3074899D03*
G54D31*
G01X5092091Y3226409D03*
G01X5182109Y3226409D03*
G01X5182109Y3136391D03*
G01X5092091Y3136391D03*
G01X4692091Y3226409D03*
G01X4782109Y3226409D03*
G01X4782109Y3136391D03*
G01X4692091Y3136391D03*
G01X7492091Y3626409D03*
G01X7582109Y3626409D03*
G01X7582109Y3536391D03*
G01X7492091Y3536391D03*
G01X7092091Y3626409D03*
G01X7182109Y3626409D03*
G01X7182109Y3536391D03*
G01X7092091Y3536391D03*
G01X6692091Y3626409D03*
G01X6782109Y3626409D03*
G01X6782109Y3536391D03*
G01X6692091Y3536391D03*
G01X6292091Y3626409D03*
G01X6382109Y3626409D03*
G01X6382109Y3536391D03*
G01X6292091Y3536391D03*
G01X5892091Y3626409D03*
G01X5982109Y3626409D03*
G01X5982109Y3536391D03*
G01X5892091Y3536391D03*
G01X5492091Y3626409D03*
G01X5582109Y3626409D03*
G01X5582109Y3536391D03*
G01X5492091Y3536391D03*
G01X5092091Y3626409D03*
G01X5182109Y3626409D03*
G01X5182109Y3536391D03*
G01X5092091Y3536391D03*
G01X4692091Y3626409D03*
G01X4782109Y3626409D03*
G01X4782109Y3536391D03*
G01X4692091Y3536391D03*
G01X5492091Y3226409D03*
G01X5582109Y3226409D03*
G01X5582109Y3136391D03*
G01X5492091Y3136391D03*
G01X5892091Y3226409D03*
G01X5982109Y3226409D03*
G01X5982109Y3136391D03*
G01X5892091Y3136391D03*
G01X6292091Y3226409D03*
G01X6382109Y3226409D03*
G01X6382109Y3136391D03*
G01X6292091Y3136391D03*
G01X6692091Y3226409D03*
G01X6782109Y3226409D03*
G01X6782109Y3136391D03*
G01X6692091Y3136391D03*
G01X7092091Y3226409D03*
G01X7182109Y3226409D03*
G01X7182109Y3136391D03*
G01X7092091Y3136391D03*
G01X7492091Y3226409D03*
G01X7582109Y3226409D03*
G01X7582109Y3136391D03*
G01X7492091Y3136391D03*
G01X4692091Y2826409D03*
G01X4782109Y2826409D03*
G01X4782109Y2736391D03*
G01X4692091Y2736391D03*
G01X5092091Y2826409D03*
G01X5182109Y2826409D03*
G01X5182109Y2736391D03*
G01X5092091Y2736391D03*
G01X5492091Y2826409D03*
G01X5582109Y2826409D03*
G01X5582109Y2736391D03*
G01X5492091Y2736391D03*
G01X5892091Y2826409D03*
G01X5982109Y2826409D03*
G01X5982109Y2736391D03*
G01X5892091Y2736391D03*
G01X6292091Y2826409D03*
G01X6382109Y2826409D03*
G01X6382109Y2736391D03*
G01X6292091Y2736391D03*
G01X6692091Y2826409D03*
G01X6782109Y2826409D03*
G01X6782109Y2736391D03*
G01X6692091Y2736391D03*
G01X7092091Y2826409D03*
G01X7182109Y2826409D03*
G01X7182109Y2736391D03*
G01X7092091Y2736391D03*
G01X7492091Y2826409D03*
G01X7582109Y2826409D03*
G01X7582109Y2736391D03*
G01X7492091Y2736391D03*
G01X4692091Y2426409D03*
G01X4782109Y2426409D03*
G01X4782109Y2336391D03*
G01X4692091Y2336391D03*
G01X5092091Y2426409D03*
G01X5182109Y2426409D03*
G01X5182109Y2336391D03*
G01X5092091Y2336391D03*
G01X5492091Y2426409D03*
G01X5582109Y2426409D03*
G01X5582109Y2336391D03*
G01X5492091Y2336391D03*
G01X5892091Y2426409D03*
G01X5982109Y2426409D03*
G01X5982109Y2336391D03*
G01X5892091Y2336391D03*
G01X6292091Y2426409D03*
G01X6382109Y2426409D03*
G01X6382109Y2336391D03*
G01X6292091Y2336391D03*
G01X6692091Y2426409D03*
G01X6782109Y2426409D03*
G01X6782109Y2336391D03*
G01X6692091Y2336391D03*
G01X7092091Y2426409D03*
G01X7182109Y2426409D03*
G01X7182109Y2336391D03*
G01X7092091Y2336391D03*
G01X7492091Y2426409D03*
G01X7582109Y2426409D03*
G01X7582109Y2336391D03*
G01X7492091Y2336391D03*
G01X4692091Y2026409D03*
G01X4782109Y2026409D03*
G01X4782109Y1936391D03*
G01X4692091Y1936391D03*
G01X5092091Y2026409D03*
G01X5182109Y2026409D03*
G01X5182109Y1936391D03*
G01X5092091Y1936391D03*
G01X5492091Y2026409D03*
G01X5582109Y2026409D03*
G01X5582109Y1936391D03*
G01X5492091Y1936391D03*
G01X5892091Y2026409D03*
G01X5982109Y2026409D03*
G01X5982109Y1936391D03*
G01X5892091Y1936391D03*
G01X6292091Y2026409D03*
G01X6382109Y2026409D03*
G01X6382109Y1936391D03*
G01X6292091Y1936391D03*
G01X6692091Y2026409D03*
G01X6782109Y2026409D03*
G01X6782109Y1936391D03*
G01X6692091Y1936391D03*
G01X7092091Y2026409D03*
G01X7182109Y2026409D03*
G01X7182109Y1936391D03*
G01X7092091Y1936391D03*
G01X7492091Y2026409D03*
G01X7582109Y2026409D03*
G01X7582109Y1936391D03*
G01X7492091Y1936391D03*
G01X4692091Y1626409D03*
G01X4782109Y1626409D03*
G01X4782109Y1536391D03*
G01X4692091Y1536391D03*
G01X5092091Y1626409D03*
G01X5182109Y1626409D03*
G01X5182109Y1536391D03*
G01X5092091Y1536391D03*
G01X5492091Y1626409D03*
G01X5582109Y1626409D03*
G01X5582109Y1536391D03*
G01X5492091Y1536391D03*
G01X5892091Y1626409D03*
G01X5982109Y1626409D03*
G01X5982109Y1536391D03*
G01X5892091Y1536391D03*
G01X6292091Y1626409D03*
G01X6382109Y1626409D03*
G01X6382109Y1536391D03*
G01X6292091Y1536391D03*
G01X6692091Y1626409D03*
G01X6782109Y1626409D03*
G01X6782109Y1536391D03*
G01X6692091Y1536391D03*
G01X7092091Y1626409D03*
G01X7182109Y1626409D03*
G01X7182109Y1536391D03*
G01X7092091Y1536391D03*
G01X7492091Y1626409D03*
G01X7582109Y1626409D03*
G01X7582109Y1536391D03*
G01X7492091Y1536391D03*
G01X4692091Y1226409D03*
G01X4782109Y1226409D03*
G01X4782109Y1136391D03*
G01X4692091Y1136391D03*
G01X5092091Y1226409D03*
G01X5182109Y1226409D03*
G01X5182109Y1136391D03*
G01X5092091Y1136391D03*
G01X5492091Y1226409D03*
G01X5582109Y1226409D03*
G01X5582109Y1136391D03*
G01X5492091Y1136391D03*
G01X5892091Y1226409D03*
G01X5982109Y1226409D03*
G01X5982109Y1136391D03*
G01X5892091Y1136391D03*
G01X6292091Y1226409D03*
G01X6382109Y1226409D03*
G01X6382109Y1136391D03*
G01X6292091Y1136391D03*
G01X6692091Y1226409D03*
G01X6782109Y1226409D03*
G01X6782109Y1136391D03*
G01X6692091Y1136391D03*
G01X7092091Y1226409D03*
G01X7182109Y1226409D03*
G01X7182109Y1136391D03*
G01X7092091Y1136391D03*
G01X7492091Y1226409D03*
G01X7582109Y1226409D03*
G01X7582109Y1136391D03*
G01X7492091Y1136391D03*
G01X4692091Y826409D03*
G01X4782109Y826409D03*
G01X4782109Y736391D03*
G01X4692091Y736391D03*
G01X5092091Y826409D03*
G01X5182109Y826409D03*
G01X5182109Y736391D03*
G01X5092091Y736391D03*
G01X5492091Y826409D03*
G01X5582109Y826409D03*
G01X5582109Y736391D03*
G01X5492091Y736391D03*
G01X5892091Y826409D03*
G01X5982109Y826409D03*
G01X5982109Y736391D03*
G01X5892091Y736391D03*
G01X6292091Y826409D03*
G01X6382109Y826409D03*
G01X6382109Y736391D03*
G01X6292091Y736391D03*
G01X6692091Y826409D03*
G01X6782109Y826409D03*
G01X6782109Y736391D03*
G01X6692091Y736391D03*
G01X7092091Y826409D03*
G01X7182109Y826409D03*
G01X7182109Y736391D03*
G01X7092091Y736391D03*
G01X7492091Y826409D03*
G01X7582109Y826409D03*
G01X7582109Y736391D03*
G01X7492091Y736391D03*
G54D10*
G01X7070802Y3975100D03*
G01X6930798Y3975100D03*
G54D11*
G01X4394200Y-387502D03*
G01X4394200Y-247498D03*
G04 Pad End*

M02*

