G04 Layer: TopSolderMaskLayer*
G04 EasyEDA Pro v2.2.47.7, 2026-05-16 15:29:02*
G04 Gerber Generator version 0.3*
G04 Scale: 100 percent, Rotated: No, Reflected: No*
G04 Dimensions in millimeters*
G04 Leading zeros omitted, absolute positions, 4 integers and 5 decimals*
G04 Generated by one-click*
G04 Object Configs: Pad,Via,Track,Text,Image,Dimension,BoardOutline,BoardCutout,CopperFilled,SolidRegion,FPCStiffener,Line,PlaneZone,ComponentProperty,ComponentSilkscreen,TearDrop*
G04 Layer Configs: 1,2,3,4,5,6,7,8,9,10,11,13,14,56*
G04 Copper Areas: 0*
%FSLAX45Y45*%
%MOMM*%
%AMRoundRect*1,1,$1,$2,$3*1,1,$1,$4,$5*1,1,$1,0-$2,0-$3*1,1,$1,0-$4,0-$5*20,1,$1,$2,$3,$4,$5,0*20,1,$1,$4,$5,0-$2,0-$3,0*20,1,$1,0-$2,0-$3,0-$4,0-$5,0*20,1,$1,0-$4,0-$5,$2,$3,0*4,1,4,$2,$3,$4,$5,0-$2,0-$3,0-$4,0-$5,$2,$3,0*%
%AMOval*1,1,$1,$2,$3*1,1,$1,$4,$5*20,1,$1,$2,$3,$4,$5,0*%
%ADD10RoundRect,0.09131X-0.40514X0.45514X0.40514X0.45514*%
%ADD11RoundRect,0.09131X-0.45514X-0.40514X-0.45514X0.40514*%
%ADD12RoundRect,0.09424X-0.60368X-1.75367X-0.60368X1.75367*%
%ADD13RoundRect,0.09131X-1.45514X-0.40514X-1.45514X0.40514*%
%ADD14RoundRect,0.09645X-1.90257X0.90257X1.90257X0.90257*%
%ADD15RoundRect,0.08671X-0.58594X-0.25244X-0.58594X0.25244*%
%ADD16RoundRect,0.0901X-0.59495X-0.25244X-0.59495X0.25244*%
%ADD17RoundRect,0.08671X-0.59495X-0.25244X-0.59495X0.25244*%
%ADD18RoundRect,0.09138X-0.43711X-0.40835X-0.43711X0.40835*%
%ADD19RoundRect,0.09138X-0.40835X0.43711X0.40835X0.43711*%
%ADD20RoundRect,0.09424X-0.98208X-0.78616X-1.19174X0.40285*%
%ADD21RoundRect,0.09077X-0.38042X-0.50541X-0.38042X0.50541*%
%ADD22RoundRect,0.09077X-0.50541X0.38042X0.50541X0.38042*%
%ADD23RoundRect,0.08875X-0.60642X-0.30643X-0.60642X0.30643*%
%ADD24RoundRect,0.09763X-1.20198X-1.65198X-1.20198X1.65198*%
%ADD25RoundRect,0.08024X-0.15069X0.36068X0.15069X0.36068*%
%ADD26RoundRect,0.08024X-0.36068X0.15069X0.36068X0.15069*%
%ADD27RoundRect,0.08294X-0.35933X-0.18434X-0.35933X0.18434*%
%ADD28RoundRect,0.08109X-0.54717X0.40277X-0.30164X0.6088*%
%ADD29Oval,1.3016X-0.19284X0.22981X0.19284X-0.22981*%
%ADD30Oval,1.3016X-0.25711X0.30642X0.25711X-0.30642*%
%ADD31RoundRect,0.08573X-0.25715X0.25715X0.25715X0.25715*%
%ADD32RoundRect,0.08335X-0.40834X-0.20834X-0.40834X0.20834*%
%ADD33RoundRect,0.08335X-0.20834X0.40834X0.20834X0.40834*%
%ADD34RoundRect,0.08891X-0.35556X0.35556X0.35556X0.35556*%
%ADD35RoundRect,0.09396X-0.72804X0.72804X0.72804X0.72804*%
%ADD36RoundRect,0.08906X-0.55647X0.30647X0.55647X0.30647*%
G75*


G04 Pad Start*
G54D10*
G01X6762902Y4279900D03*
G01X6622898Y4279900D03*
G01X7702702Y3975100D03*
G01X7562698Y3975100D03*
G01X6470802Y3975100D03*
G01X6330798Y3975100D03*
G54D11*
G01X2959100Y3079902D03*
G01X2959100Y2939898D03*
G54D10*
G01X6770802Y3975100D03*
G01X6630798Y3975100D03*
G01X7370802Y3975100D03*
G01X7230798Y3975100D03*
G54D11*
G01X8216900Y4184802D03*
G01X8216900Y4044798D03*
G01X4762500Y-387502D03*
G01X4762500Y-247498D03*
G54D12*
G01X3581387Y2933413D03*
G01X3581387Y3467397D03*
G54D13*
G01X8273999Y3364306D03*
G01X8273999Y3214294D03*
G54D14*
G01X8744001Y2954299D03*
G01X8744001Y3624301D03*
G54D15*
G01X6031433Y145796D03*
G01X6031433Y50800D03*
G01X6031433Y-44196D03*
G54D17*
G01X6262167Y-44196D03*
G01X6262167Y145796D03*
G54D18*
G01X6502400Y5030064D03*
G01X6502400Y5180736D03*
G01X5880100Y5030064D03*
G01X5880100Y5180736D03*
G54D19*
G01X6592164Y4572000D03*
G01X6742836Y4572000D03*
G54D18*
G01X8432800Y4077564D03*
G01X8432800Y4228236D03*
G01X5054600Y-247736D03*
G01X5054600Y-398409D03*
G54D19*
G01X5574436Y-395521D03*
G01X5423764Y-395521D03*
G54D18*
G01X4521200Y1283564D03*
G01X4521200Y1434236D03*
G01X5930900Y4583836D03*
G01X5930900Y4433164D03*
G01X4483100Y3340964D03*
G01X4483100Y3491636D03*
G01X8445500Y4433164D03*
G01X8445500Y4583836D03*
G01X8115300Y4458564D03*
G01X8115300Y4609236D03*
G54D20*
G01X3245890Y2011489D03*
G01X3289300Y1765300D03*
G01X3332710Y1519111D03*
G54D21*
G01X7855788Y211099D03*
G01X7855788Y-388899D03*
G01X7485812Y211099D03*
G01X7485812Y-388899D03*
G54D22*
G01X7234199Y-197688D03*
G01X6634201Y-197688D03*
G01X7234199Y172288D03*
G01X6634201Y172288D03*
G54D23*
G01X7087870Y5105400D03*
G01X7087870Y4978400D03*
G01X7087870Y4851400D03*
G01X7087870Y4724400D03*
G01X7669530Y4724400D03*
G01X7669530Y4851400D03*
G01X7669530Y4978400D03*
G01X7669530Y5105400D03*
G54D24*
G01X7378700Y4914900D03*
G54D25*
G01X6197181Y-453108D03*
G01X6147194Y-453108D03*
G54D26*
G01X6074702Y-430604D03*
G01X6074702Y-380591D03*
G01X6074702Y-330604D03*
G01X6074702Y-280591D03*
G54D25*
G01X6147194Y-258112D03*
G01X6197181Y-258112D03*
G54D26*
G01X6269698Y-280591D03*
G01X6269698Y-330604D03*
G01X6269698Y-380591D03*
G01X6269698Y-430604D03*
G54D27*
G01X4259605Y3074899D03*
G01X4259605Y2944901D03*
G01X4071595Y2944901D03*
G01X4071595Y3009900D03*
G01X4071595Y3074899D03*
G54D28*
G01X4649194Y4482266D03*
G01X4610882Y4450118D03*
G01X4572589Y4417987D03*
G01X4534277Y4385840D03*
G01X4495985Y4353708D03*
G01X4457673Y4321561D03*
G01X4419400Y4289446D03*
G01X4381069Y4257282D03*
G36*
G01X4692226Y4609875D02*
G01X4715205Y4629157D01*
G01X4738175Y4648451D01*
G02X4745363Y4647824I3280J-3905D01*
G01X4828926Y4548236D01*
G02X4828298Y4541051I-3907J-3278D01*
G01X4805320Y4521770D01*
G01X4782349Y4502475D01*
G02X4775162Y4503102I-3280J3905D01*
G01X4691598Y4602690D01*
G02X4692226Y4609875I3907J3278D01*
G37*
G36*
G01X4338044Y4129659D02*
G01X4315063Y4110376D01*
G01X4315063Y4110376D01*
G01X4292080Y4091090D01*
G02X4284894Y4091719I-3278J3907D01*
G01X4201333Y4191303D01*
G02X4201962Y4198488I3907J3278D01*
G01X4224943Y4217772D01*
G01X4247927Y4237057D01*
G02X4255112Y4236428I3278J-3907D01*
G01X4338673Y4136845D01*
G02X4338044Y4129659I-3907J-3278D01*
G37*
G36*
G01X4263234Y4249901D02*
G01X4286215Y4269185D01*
G01X4309198Y4288470D01*
G02X4316384Y4287841I3278J-3907D01*
G01X4399945Y4188258D01*
G02X4399316Y4181072I-3907J-3278D01*
G01X4376334Y4161789D01*
G01X4353351Y4142503D01*
G02X4346166Y4143132I-3278J3907D01*
G01X4262605Y4242716D01*
G02X4263234Y4249901I3907J3278D01*
G37*
G36*
G01X4630936Y4558460D02*
G01X4653914Y4577740D01*
G01X4676895Y4597027D01*
G02X4684081Y4596399I3279J-3907D01*
G01X4767642Y4496816D01*
G02X4767013Y4489630I-3907J-3278D01*
G01X4744035Y4470350D01*
G01X4721054Y4451063D01*
G02X4713868Y4451691I-3279J3907D01*
G01X4630308Y4551275D01*
G02X4630936Y4558460I3907J3278D01*
G37*
G54D29*
G01X3865746Y4470813D03*
G54D30*
G01X4134420Y4150620D03*
G01X4797065Y4706646D03*
G54D29*
G01X4528392Y5026839D03*
G54D31*
G01X5092091Y3226409D03*
G01X5182109Y3226409D03*
G01X5182109Y3136391D03*
G01X5092091Y3136391D03*
G01X4692091Y3226409D03*
G01X4782109Y3226409D03*
G01X4782109Y3136391D03*
G01X4692091Y3136391D03*
G01X7492091Y3626409D03*
G01X7582109Y3626409D03*
G01X7582109Y3536391D03*
G01X7492091Y3536391D03*
G01X7092091Y3626409D03*
G01X7182109Y3626409D03*
G01X7182109Y3536391D03*
G01X7092091Y3536391D03*
G01X6692091Y3626409D03*
G01X6782109Y3626409D03*
G01X6782109Y3536391D03*
G01X6692091Y3536391D03*
G01X6292091Y3626409D03*
G01X6382109Y3626409D03*
G01X6382109Y3536391D03*
G01X6292091Y3536391D03*
G01X5892091Y3626409D03*
G01X5982109Y3626409D03*
G01X5982109Y3536391D03*
G01X5892091Y3536391D03*
G01X5492091Y3626409D03*
G01X5582109Y3626409D03*
G01X5582109Y3536391D03*
G01X5492091Y3536391D03*
G01X5092091Y3626409D03*
G01X5182109Y3626409D03*
G01X5182109Y3536391D03*
G01X5092091Y3536391D03*
G01X4692091Y3626409D03*
G01X4782109Y3626409D03*
G01X4782109Y3536391D03*
G01X4692091Y3536391D03*
G01X5492091Y3226409D03*
G01X5582109Y3226409D03*
G01X5582109Y3136391D03*
G01X5492091Y3136391D03*
G01X5892091Y3226409D03*
G01X5982109Y3226409D03*
G01X5982109Y3136391D03*
G01X5892091Y3136391D03*
G01X6292091Y3226409D03*
G01X6382109Y3226409D03*
G01X6382109Y3136391D03*
G01X6292091Y3136391D03*
G01X6692091Y3226409D03*
G01X6782109Y3226409D03*
G01X6782109Y3136391D03*
G01X6692091Y3136391D03*
G01X7092091Y3226409D03*
G01X7182109Y3226409D03*
G01X7182109Y3136391D03*
G01X7092091Y3136391D03*
G01X7492091Y3226409D03*
G01X7582109Y3226409D03*
G01X7582109Y3136391D03*
G01X7492091Y3136391D03*
G01X4692091Y2826409D03*
G01X4782109Y2826409D03*
G01X4782109Y2736391D03*
G01X4692091Y2736391D03*
G01X5092091Y2826409D03*
G01X5182109Y2826409D03*
G01X5182109Y2736391D03*
G01X5092091Y2736391D03*
G01X5492091Y2826409D03*
G01X5582109Y2826409D03*
G01X5582109Y2736391D03*
G01X5492091Y2736391D03*
G01X5892091Y2826409D03*
G01X5982109Y2826409D03*
G01X5982109Y2736391D03*
G01X5892091Y2736391D03*
G01X6292091Y2826409D03*
G01X6382109Y2826409D03*
G01X6382109Y2736391D03*
G01X6292091Y2736391D03*
G01X6692091Y2826409D03*
G01X6782109Y2826409D03*
G01X6782109Y2736391D03*
G01X6692091Y2736391D03*
G01X7092091Y2826409D03*
G01X7182109Y2826409D03*
G01X7182109Y2736391D03*
G01X7092091Y2736391D03*
G01X7492091Y2826409D03*
G01X7582109Y2826409D03*
G01X7582109Y2736391D03*
G01X7492091Y2736391D03*
G01X4692091Y2426409D03*
G01X4782109Y2426409D03*
G01X4782109Y2336391D03*
G01X4692091Y2336391D03*
G01X5092091Y2426409D03*
G01X5182109Y2426409D03*
G01X5182109Y2336391D03*
G01X5092091Y2336391D03*
G01X5492091Y2426409D03*
G01X5582109Y2426409D03*
G01X5582109Y2336391D03*
G01X5492091Y2336391D03*
G01X5892091Y2426409D03*
G01X5982109Y2426409D03*
G01X5982109Y2336391D03*
G01X5892091Y2336391D03*
G01X6292091Y2426409D03*
G01X6382109Y2426409D03*
G01X6382109Y2336391D03*
G01X6292091Y2336391D03*
G01X6692091Y2426409D03*
G01X6782109Y2426409D03*
G01X6782109Y2336391D03*
G01X6692091Y2336391D03*
G01X7092091Y2426409D03*
G01X7182109Y2426409D03*
G01X7182109Y2336391D03*
G01X7092091Y2336391D03*
G01X7492091Y2426409D03*
G01X7582109Y2426409D03*
G01X7582109Y2336391D03*
G01X7492091Y2336391D03*
G01X4692091Y2026409D03*
G01X4782109Y2026409D03*
G01X4782109Y1936391D03*
G01X4692091Y1936391D03*
G01X5092091Y2026409D03*
G01X5182109Y2026409D03*
G01X5182109Y1936391D03*
G01X5092091Y1936391D03*
G01X5492091Y2026409D03*
G01X5582109Y2026409D03*
G01X5582109Y1936391D03*
G01X5492091Y1936391D03*
G01X5892091Y2026409D03*
G01X5982109Y2026409D03*
G01X5982109Y1936391D03*
G01X5892091Y1936391D03*
G01X6292091Y2026409D03*
G01X6382109Y2026409D03*
G01X6382109Y1936391D03*
G01X6292091Y1936391D03*
G01X6692091Y2026409D03*
G01X6782109Y2026409D03*
G01X6782109Y1936391D03*
G01X6692091Y1936391D03*
G01X7092091Y2026409D03*
G01X7182109Y2026409D03*
G01X7182109Y1936391D03*
G01X7092091Y1936391D03*
G01X7492091Y2026409D03*
G01X7582109Y2026409D03*
G01X7582109Y1936391D03*
G01X7492091Y1936391D03*
G01X4692091Y1626409D03*
G01X4782109Y1626409D03*
G01X4782109Y1536391D03*
G01X4692091Y1536391D03*
G01X5092091Y1626409D03*
G01X5182109Y1626409D03*
G01X5182109Y1536391D03*
G01X5092091Y1536391D03*
G01X5492091Y1626409D03*
G01X5582109Y1626409D03*
G01X5582109Y1536391D03*
G01X5492091Y1536391D03*
G01X5892091Y1626409D03*
G01X5982109Y1626409D03*
G01X5982109Y1536391D03*
G01X5892091Y1536391D03*
G01X6292091Y1626409D03*
G01X6382109Y1626409D03*
G01X6382109Y1536391D03*
G01X6292091Y1536391D03*
G01X6692091Y1626409D03*
G01X6782109Y1626409D03*
G01X6782109Y1536391D03*
G01X6692091Y1536391D03*
G01X7092091Y1626409D03*
G01X7182109Y1626409D03*
G01X7182109Y1536391D03*
G01X7092091Y1536391D03*
G01X7492091Y1626409D03*
G01X7582109Y1626409D03*
G01X7582109Y1536391D03*
G01X7492091Y1536391D03*
G01X4692091Y1226409D03*
G01X4782109Y1226409D03*
G01X4782109Y1136391D03*
G01X4692091Y1136391D03*
G01X5092091Y1226409D03*
G01X5182109Y1226409D03*
G01X5182109Y1136391D03*
G01X5092091Y1136391D03*
G01X5492091Y1226409D03*
G01X5582109Y1226409D03*
G01X5582109Y1136391D03*
G01X5492091Y1136391D03*
G01X5892091Y1226409D03*
G01X5982109Y1226409D03*
G01X5982109Y1136391D03*
G01X5892091Y1136391D03*
G01X6292091Y1226409D03*
G01X6382109Y1226409D03*
G01X6382109Y1136391D03*
G01X6292091Y1136391D03*
G01X6692091Y1226409D03*
G01X6782109Y1226409D03*
G01X6782109Y1136391D03*
G01X6692091Y1136391D03*
G01X7092091Y1226409D03*
G01X7182109Y1226409D03*
G01X7182109Y1136391D03*
G01X7092091Y1136391D03*
G01X7492091Y1226409D03*
G01X7582109Y1226409D03*
G01X7582109Y1136391D03*
G01X7492091Y1136391D03*
G01X4692091Y826409D03*
G01X4782109Y826409D03*
G01X4782109Y736391D03*
G01X4692091Y736391D03*
G01X5092091Y826409D03*
G01X5182109Y826409D03*
G01X5182109Y736391D03*
G01X5092091Y736391D03*
G01X5492091Y826409D03*
G01X5582109Y826409D03*
G01X5582109Y736391D03*
G01X5492091Y736391D03*
G01X5892091Y826409D03*
G01X5982109Y826409D03*
G01X5982109Y736391D03*
G01X5892091Y736391D03*
G01X6292091Y826409D03*
G01X6382109Y826409D03*
G01X6382109Y736391D03*
G01X6292091Y736391D03*
G01X6692091Y826409D03*
G01X6782109Y826409D03*
G01X6782109Y736391D03*
G01X6692091Y736391D03*
G01X7092091Y826409D03*
G01X7182109Y826409D03*
G01X7182109Y736391D03*
G01X7092091Y736391D03*
G01X7492091Y826409D03*
G01X7582109Y826409D03*
G01X7582109Y736391D03*
G01X7492091Y736391D03*
G54D10*
G01X7070802Y3975100D03*
G01X6930798Y3975100D03*
G54D11*
G01X4394200Y-387502D03*
G01X4394200Y-247498D03*
G54D32*
G01X8122209Y2025599D03*
G01X8122209Y1945589D03*
G01X8122209Y1865605D03*
G01X8122209Y1785595D03*
G01X8122209Y1705610D03*
G01X8122209Y1625600D03*
G01X8122209Y1545590D03*
G01X8122209Y1465605D03*
G01X8122209Y1385595D03*
G01X8122209Y1305611D03*
G01X8122209Y1225601D03*
G54D33*
G01X8232191Y1135609D03*
G01X8312201Y1135609D03*
G01X8392211Y1135609D03*
G01X8472195Y1135609D03*
G01X8552205Y1135609D03*
G01X8632190Y1135609D03*
G01X8712200Y1135609D03*
G01X8792210Y1135609D03*
G01X8872195Y1135609D03*
G01X8952205Y1135609D03*
G01X9032189Y1135609D03*
G01X9112199Y1135609D03*
G01X9192209Y1135609D03*
G54D32*
G01X9302191Y1225601D03*
G01X9302191Y1305611D03*
G01X9302191Y1385595D03*
G01X9302191Y1465605D03*
G01X9302191Y1545590D03*
G01X9302191Y1625600D03*
G01X9302191Y1705610D03*
G01X9302191Y1785595D03*
G01X9302191Y1865605D03*
G01X9302191Y1945589D03*
G01X9302191Y2025599D03*
G54D33*
G01X9192209Y2115591D03*
G01X9112199Y2115591D03*
G01X9032189Y2115591D03*
G01X8952205Y2115591D03*
G01X8872195Y2115591D03*
G01X8792210Y2115591D03*
G01X8712200Y2115591D03*
G01X8632190Y2115591D03*
G01X8552205Y2115591D03*
G01X8472195Y2115591D03*
G01X8392211Y2115591D03*
G01X8312201Y2115591D03*
G01X8232191Y2115591D03*
G54D34*
G01X9307195Y2120595D03*
G01X9307195Y1130605D03*
G01X8117205Y1130605D03*
G01X8117205Y2120595D03*
G36*
G01X8437187Y1750596D02*
G01X8437187Y1835595D01*
G02X8438651Y1839131I5001J0D01*
G01X8498651Y1899131D01*
G02X8502188Y1900596I3536J-3536D01*
G01X8587186Y1900596D01*
G02X8592188Y1895594I0J-5001D01*
G01X8592188Y1750596D01*
G02X8587186Y1745595I-5001J0D01*
G01X8442188Y1745595D01*
G02X8437187Y1750596I0J5001D01*
G37*
G54D35*
G01X8909685Y1428090D03*
G01X8712200Y1428090D03*
G01X8514690Y1428090D03*
G01X8514690Y1625600D03*
G01X8712200Y1823085D03*
G01X8909685Y1823085D03*
G01X8909685Y1625600D03*
G01X8712200Y1625600D03*
G54D18*
G01X4610100Y430936D03*
G01X4610100Y280264D03*
G54D36*
G01X4148201Y247396D03*
G01X4148201Y152400D03*
G01X4148201Y57404D03*
G01X3878199Y57404D03*
G01X3878199Y152400D03*
G01X3878199Y247396D03*
G04 Pad End*

M02*

