G04 Layer: BottomLayer*
G04 EasyEDA Pro v2.2.47.7, 2026-05-16 15:29:02*
G04 Gerber Generator version 0.3*
G04 Scale: 100 percent, Rotated: No, Reflected: No*
G04 Dimensions in millimeters*
G04 Leading zeros omitted, absolute positions, 4 integers and 5 decimals*
G04 Generated by one-click*
G04 Object Configs: Pad,Via,Track,Text,Image,Dimension,BoardOutline,BoardCutout,CopperFilled,SolidRegion,FPCStiffener,Line,PlaneZone,ComponentProperty,ComponentSilkscreen,TearDrop*
G04 Layer Configs: 1,2,3,4,5,6,7,8,9,10,11,13,14,56*
G04 Copper Areas: 0*
%FSLAX45Y45*%
%MOMM*%
%AMOval*1,1,$1,$2,$3*1,1,$1,$4,$5*20,1,$1,$2,$3,$4,$5,0*%
%ADD10Oval,1.2X-0.19284X0.22981X0.19284X-0.22981*%
%ADD11Oval,1.2X-0.25711X0.30642X0.25711X-0.30642*%
%ADD12C,0.6096*%
%ADD13C,0.254*%
%ADD14C,0.3834*%
G75*


G04 Pad Start*
G54D10*
G01X3865746Y4470813D03*
G54D11*
G01X4134420Y4150620D03*
G01X4797065Y4706646D03*
G54D10*
G01X4528392Y5026839D03*
G04 Pad End*

G04 Via Start*
G54D12*
G01X7582131Y2982641D03*
G01X8026885Y2982641D03*
G01X4448533Y4098209D03*
G01X4793973Y4456349D03*
G01X6665699Y4426885D03*
G01X3402307Y2902885D03*
G01X7554445Y4087287D03*
G01X4195803Y3009819D03*
G01X3469617Y2395139D03*
G01X5923511Y133523D03*
G01X4045689Y100249D03*
G01X5433037Y169337D03*
G01X6351501Y518587D03*
G01X8310095Y1231311D03*
G01X6515839Y701975D03*
G01X5074135Y3064429D03*
G01X5655033Y3207431D03*
G01X5819879Y2698923D03*
G01X6468849Y2761915D03*
G01X6618455Y2360595D03*
G01X7088609Y2567859D03*
G01X7492215Y1762425D03*
G01X4782035Y1762425D03*
G01X5105885Y1051987D03*
G01X5641825Y1051987D03*
G01X5892015Y660827D03*
G01X6452085Y873679D03*
G01X6197069Y-539069D03*
G01X8081495Y-539069D03*
G01X4572231Y2816017D03*
G01X4184373Y3338749D03*
G01X7407379Y812465D03*
G01X8217639Y1231311D03*
G01X3988539Y2996611D03*
G01X7979895Y1886123D03*
G01X8609561Y99487D03*
G01X6208753Y-145623D03*
G01X4835629Y3292267D03*
G01X7381217Y3549061D03*
G01X7562827Y3699175D03*
G01X7108929Y3360085D03*
G01X7259043Y3666663D03*
G01X6703037Y3442889D03*
G01X6455133Y3675045D03*
G01X6043653Y3479973D03*
G01X5355821Y3609767D03*
G01X5018763Y3520867D03*
G01X5501617Y3025821D03*
G01X6035779Y3025821D03*
G01X5803623Y3222925D03*
G01X6454371Y3222925D03*
G01X6326355Y2992801D03*
G01X6788889Y3337479D03*
G01X6703037Y3052745D03*
G01X7266409Y3170601D03*
G01X7543777Y3318429D03*
G01X7018505Y3224195D03*
G01X7501613Y3020487D03*
G01X4855949Y2845481D03*
G01X5016985Y2715179D03*
G01X5582135Y2927523D03*
G01X5409161Y2851577D03*
G01X6054321Y2851577D03*
G01X6218151Y2761661D03*
G01X6790413Y2981371D03*
G01X6619471Y2765725D03*
G01X7066511Y2991277D03*
G01X7191987Y2523917D03*
G01X7517615Y2899075D03*
G01X7483579Y2635931D03*
G01X4884397Y2504867D03*
G01X5819625Y2424603D03*
G01X6451577Y2285411D03*
G01X6217135Y2345609D03*
G01X6745455Y2514773D03*
G01X7020537Y2308525D03*
G01X7557239Y2513757D03*
G01X7481293Y2137583D03*
G01X4782035Y2137583D03*
G01X4710661Y1862501D03*
G01X5255491Y1924985D03*
G01X5010635Y2010837D03*
G01X5656811Y2010837D03*
G01X5418559Y1916603D03*
G01X6055591Y2042587D03*
G01X7038571Y1845229D03*
G01X7572733Y2099483D03*
G01X4756381Y1447719D03*
G01X5253713Y1604183D03*
G01X6219675Y1555161D03*
G01X6853913Y1532047D03*
G01X6628869Y1700449D03*
G01X7175985Y1700449D03*
G01X7295365Y1657269D03*
G01X7572733Y1700195D03*
G01X7492215Y1442893D03*
G01X4920465Y1442893D03*
G01X5399255Y1174669D03*
G01X6001489Y1333165D03*
G01X7492723Y975533D03*
G01X4782035Y975533D03*
G01X4618459Y737027D03*
G01X5190721Y906953D03*
G01X5503903Y598343D03*
G01X6089881Y686481D03*
G01X6217135Y745409D03*
G01X6594325Y899841D03*
G01X7038571Y623489D03*
G01X7564097Y898317D03*
G01X5750283Y4972223D03*
G01X4480029Y4190411D03*
G01X9004023Y368981D03*
G01X7234151Y368981D03*
G01X4615919Y1300145D03*
G01X9213319Y1300145D03*
G01X6007331Y4157645D03*
G01X9012151Y4157645D03*
G01X8354291Y61133D03*
G01X5144493Y-229697D03*
G01X6355565Y-229697D03*
G01X8952207Y564053D03*
G01X4700247Y536367D03*
G01X6870700Y825500D03*
G01X7289800Y774700D03*
G04 Via End*

G04 Track Start*
G54D13*
G01X8026885Y2982641D02*
G01X7582131Y2982641D01*
G01X4812007Y4438315D02*
G01X4793973Y4456349D01*
G01X6665699Y4426885D02*
G01X4823691Y4426885D01*
G01X4812007Y4438315D01*
G01X4471901Y4098209D01*
G01X4448533Y4098209D01*
G01X7554445Y4087287D02*
G01X4586709Y4087287D01*
G01X3402307Y2902885D01*
G01X5923511Y133523D02*
G01X5890237Y100249D01*
G01X4045689Y100249D01*
G01X3469617Y2395139D02*
G01X3581123Y2395139D01*
G01X4195803Y3009819D01*
G01X5433037Y169337D02*
G01X5758411Y494711D01*
G01X6327625Y494711D01*
G01X6351501Y518587D01*
G01X8310095Y1231311D02*
G01X7780759Y701975D01*
G01X6515839Y701975D01*
G01X5074135Y3064429D02*
G01X5216883Y3207431D01*
G01X5655033Y3207431D01*
G01X6468849Y2761915D02*
G01X6405857Y2698923D01*
G01X5819879Y2698923D01*
G01X6618455Y2360595D02*
G01X6881599Y2360595D01*
G01X7088609Y2567859D01*
G01X7492215Y1762425D02*
G01X4782035Y1762425D01*
G01X5105885Y1051987D02*
G01X5641825Y1051987D01*
G01X5892015Y660827D02*
G01X6105121Y873679D01*
G01X6452085Y873679D01*
G01X8081495Y-539069D02*
G01X6197069Y-539069D01*
G01X4184373Y3338749D02*
G01X4572231Y2950891D01*
G01X4572231Y2816017D01*
G01X8217639Y1231311D02*
G01X7798793Y812465D01*
G01X7407379Y812465D01*
G01X3988539Y2996611D02*
G01X4076423Y3084495D01*
G01X4206725Y3084495D01*
G01X5068039Y2223181D01*
G01X7642583Y2223181D01*
G01X7979895Y1886123D01*
G01X8609561Y99487D02*
G01X8364451Y-145623D01*
G01X6208753Y-145623D01*
G01X4835629Y3292267D02*
G01X4873983Y3292267D01*
G01X5131031Y3549061D01*
G01X7381217Y3549061D01*
G01X7562827Y3699175D02*
G01X7562827Y3522899D01*
G01X7400013Y3360085D01*
G01X7108929Y3360085D01*
G01X6703037Y3442889D02*
G01X7423889Y3442889D01*
G01X7485865Y3504611D01*
G01X7485865Y3600369D01*
G01X7419317Y3666663D01*
G01X7259043Y3666663D01*
G01X6455133Y3675045D02*
G01X6531079Y3598845D01*
G01X7313907Y3598845D01*
G01X7328385Y3613577D01*
G01X7413729Y3613577D01*
G01X7444209Y3583097D01*
G01X7444209Y3521883D01*
G01X7409665Y3487339D01*
G01X7321527Y3487339D01*
G01X7306795Y3502071D01*
G01X6066005Y3502071D01*
G01X6043653Y3479973D01*
G01X5018763Y3520867D02*
G01X5107663Y3609767D01*
G01X5355821Y3609767D01*
G01X5501617Y3025821D02*
G01X6035779Y3025821D01*
G01X6454371Y3222925D02*
G01X5803623Y3222925D01*
G01X6326355Y2992801D02*
G01X6670779Y3337479D01*
G01X6788889Y3337479D01*
G01X7266409Y3170601D02*
G01X7148807Y3052745D01*
G01X6703037Y3052745D01*
G01X7018505Y3224195D02*
G01X7074639Y3224195D01*
G01X7168873Y3318429D01*
G01X7543777Y3318429D01*
G01X4855949Y2845481D02*
G01X4855949Y2786045D01*
G01X5005555Y2636439D01*
G01X6450053Y2636439D01*
G01X6496535Y2682921D01*
G01X7163793Y2682921D01*
G01X7501613Y3020487D01*
G01X5016985Y2715179D02*
G01X5229329Y2927523D01*
G01X5582135Y2927523D01*
G01X5409161Y2851577D02*
G01X6054321Y2851577D01*
G01X6218151Y2761661D02*
G01X6438115Y2981371D01*
G01X6790413Y2981371D01*
G01X7066511Y2991277D02*
G01X6840705Y2765725D01*
G01X6619471Y2765725D01*
G01X7517615Y2899075D02*
G01X7546825Y2869865D01*
G01X7546825Y2587163D01*
G01X7483579Y2523917D01*
G01X7191987Y2523917D01*
G01X4884397Y2504867D02*
G01X4974313Y2594783D01*
G01X6770093Y2594783D01*
G01X6811241Y2635931D01*
G01X7483579Y2635931D01*
G01X5819625Y2424603D02*
G01X5959071Y2285411D01*
G01X6451577Y2285411D01*
G01X6217135Y2345609D02*
G01X6386299Y2514773D01*
G01X6745455Y2514773D01*
G01X7557239Y2513757D02*
G01X7352007Y2308525D01*
G01X7020537Y2308525D01*
G01X7481293Y2137583D02*
G01X4782035Y2137583D01*
G01X5255491Y1924985D02*
G01X4773145Y1924985D01*
G01X4710661Y1862501D01*
G01X5656811Y2010837D02*
G01X5010635Y2010837D01*
G01X6055591Y2042587D02*
G01X5929607Y1916603D01*
G01X5418559Y1916603D01*
G01X7572733Y2099483D02*
G01X7318479Y1845229D01*
G01X7038571Y1845229D01*
G01X5253713Y1604183D02*
G01X4912591Y1604183D01*
G01X4756381Y1447719D01*
G01X6853913Y1532047D02*
G01X6242789Y1532047D01*
G01X6219675Y1555161D01*
G01X6628869Y1700449D02*
G01X7175985Y1700449D01*
G01X7295365Y1657269D02*
G01X7530061Y1657269D01*
G01X7572733Y1700195D01*
G01X7492215Y1442893D02*
G01X4920465Y1442893D01*
G01X6001489Y1333165D02*
G01X5963389Y1371265D01*
G01X4578581Y1371265D01*
G01X4544291Y1337229D01*
G01X4544291Y1269157D01*
G01X4638779Y1174669D01*
G01X5399255Y1174669D01*
G01X7492723Y975533D02*
G01X4782035Y975533D01*
G01X5190721Y906953D02*
G01X4788639Y906953D01*
G01X4618459Y737027D01*
G01X6089881Y686481D02*
G01X6001997Y598343D01*
G01X5503903Y598343D01*
G01X6594325Y899841D02*
G01X6563591Y899841D01*
G01X6409159Y745409D01*
G01X6217135Y745409D01*
G01X7564097Y898317D02*
G01X6676621Y898317D01*
G01X6618963Y840659D01*
G01X6569687Y840659D01*
G01X6450561Y721533D01*
G01X6450561Y673019D01*
G01X6500091Y623489D01*
G01X7038571Y623489D01*
G01X5750283Y4972223D02*
G01X5318229Y4540423D01*
G01X4775431Y4540423D01*
G01X4480029Y4244767D01*
G01X4480029Y4190411D01*
G01X9004023Y368981D02*
G01X7234151Y368981D01*
G01X4615919Y1300145D02*
G01X4641827Y1273983D01*
G01X6026127Y1273983D01*
G01X6052035Y1300145D01*
G01X9213319Y1300145D01*
G01X6007331Y4157645D02*
G01X9012151Y4157645D01*
G01X6127473Y-229697D02*
G01X6355565Y-229697D01*
G01X5144493Y-229697D02*
G01X6127473Y-229697D01*
G01X6127473Y-134447D01*
G01X6322799Y61133D01*
G01X8354291Y61133D01*
G01X8952207Y564053D02*
G01X6389855Y564053D01*
G01X6376139Y577769D01*
G01X6103597Y577769D01*
G01X6062195Y536367D01*
G01X4700247Y536367D01*
G01X6870700Y825500D02*
G01X7239000Y825500D01*
G01X7289800Y774700D01*
G04 Track End*

M02*

